<svg width="23" height="29" viewBox="0 0 23 29" fill="none" xmlns="http://www.w3.org/2000/svg">
<g clip-path="url(#clip0_87_8346)">
<path d="M2.89196 24.2567C3.90895 25.7206 5.29949 27.7224 7.09357 27.7224V27.719H7.18498C7.86984 27.6755 8.53946 27.4963 9.15543 27.1916H9.17267C9.95229 26.8104 10.8069 26.6105 11.6735 26.6069C12.5034 26.6159 13.3208 26.8113 14.0664 27.1786H14.0716C14.6946 27.4948 15.38 27.6663 16.0774 27.6807H16.1792C17.9841 27.6538 19.1378 26.1369 20.3451 24.3071C21.1739 23.112 21.8163 21.7962 22.25 20.4053V20.3984C21.5704 20.1101 20.9494 19.6977 20.4184 19.182C19.832 18.6246 19.3666 17.9508 19.0513 17.2032C18.7361 16.4556 18.578 15.6503 18.5868 14.8381C18.6038 13.7838 18.8836 12.7508 19.4003 11.8339C19.9169 10.9169 20.654 10.1456 21.5438 9.59048C20.9766 8.77551 20.2289 8.10475 19.3599 7.63126C18.4909 7.15777 17.5245 6.89455 16.537 6.86244C16.3724 6.84766 16.2249 6.83984 16.0989 6.83984C15.0096 6.9088 13.9425 7.18163 12.9523 7.64435H12.9316C12.4223 7.8931 11.8757 8.05515 11.3139 8.12393C10.7214 8.0607 10.1448 7.89215 9.61074 7.62611H9.59177C8.73578 7.2168 7.80992 6.97645 6.86419 6.91804H6.78658C5.63538 6.95452 4.51323 7.29106 3.52964 7.89481C2.54603 8.49855 1.73459 9.34889 1.17449 10.3628C0.0454163 12.5978 -0.282374 15.1573 0.246607 17.6078C0.663483 19.9802 1.5618 22.2405 2.88536 24.2471L2.89196 24.2567Z" fill="white"/>
<path d="M11.1 6.54322C11.1889 6.55119 11.2781 6.55468 11.3674 6.55364C12.0995 6.5164 12.8157 6.32416 13.4691 5.98944C14.1225 5.65472 14.6987 5.18504 15.1599 4.611C16.1822 3.38198 16.6844 1.79768 16.5586 0.199219C15.0035 0.36292 13.5668 1.11118 12.535 2.29477C11.5165 3.46324 11.0004 4.9914 11.1 6.54322Z" fill="white"/>
</g>
<defs>
<clipPath id="clip0_87_8346">
<rect width="23" height="28" fill="white" transform="translate(0 0.199219)"/>
</clipPath>
</defs>
</svg>
