<?xml version="1.0" encoding="UTF-8"?>
<svg version="1.1" xmlns="http://www.w3.org/2000/svg" width="3563" height="1188">
<path d="M0 0 C1.01578125 0.41636719 2.0315625 0.83273438 3.078125 1.26171875 C11.43321918 4.71660959 11.43321918 4.71660959 14 6 C14 6.66 14 7.32 14 8 C15.134375 8.268125 16.26875 8.53625 17.4375 8.8125 C18.613125 9.204375 19.78875 9.59625 21 10 C21.33 10.99 21.66 11.98 22 13 C23.32042517 13.38126926 24.65689004 13.70854757 26 14 C27.81640625 15.15625 27.81640625 15.15625 29.5625 16.5 C31.82900642 18.23647708 33.22472293 19.07490764 36 20 C38.6875 22.4375 38.6875 22.4375 41 25 C41 25.66 41 26.32 41 27 C41.639375 27.103125 42.27875 27.20625 42.9375 27.3125 C43.618125 27.539375 44.29875 27.76625 45 28 C45.33 28.99 45.66 29.98 46 31 C46.66 31.33 47.32 31.66 48 32 C48.66 32.33 49.32 32.66 50 33 C50.33 33.99 50.66 34.98 51 36 C51.598125 36.28875 52.19625 36.5775 52.8125 36.875 C55.73868579 38.37989555 57.03091464 40.37455285 59 43 C59.825 43.99 60.65 44.98 61.5 46 C63.70254782 48.64305738 65.88324382 51.28790614 68 54 C68.43699219 54.55816406 68.87398437 55.11632812 69.32421875 55.69140625 C71.8757763 59.07642386 73.60463851 61.65102357 74 66 C74.66 66 75.32 66 76 66 C76.99 68.97 77.98 71.94 79 75 C79.66 75 80.32 75 81 75 C81.66 77.97 82.32 80.94 83 84 C83.66 84 84.32 84 85 84 C85.50757862 85.41396902 86.00574925 86.83131729 86.5 88.25 C86.91765625 89.43335938 86.91765625 89.43335938 87.34375 90.640625 C88 93 88 93 88 97 C88.66 97 89.32 97 90 97 C90.19335938 97.92941406 90.38671875 98.85882813 90.5859375 99.81640625 C90.97652344 101.67072266 90.97652344 101.67072266 91.375 103.5625 C91.75785156 105.38974609 91.75785156 105.38974609 92.1484375 107.25390625 C92.69435847 109.65545766 93.31611205 112.0417329 94.03125 114.3984375 C99.63631085 135.23660728 97.67179487 158.85948531 95 180 C94.85433594 181.21816406 94.70867187 182.43632812 94.55859375 183.69140625 C94.00162133 186.99039674 93.11151613 189.84747689 92 193 C91.52489336 194.55758025 91.05819906 196.11773907 90.59765625 197.6796875 C90.22157227 198.95005859 90.22157227 198.95005859 89.83789062 200.24609375 C89.32339585 201.99045136 88.81036064 203.73524016 88.29882812 205.48046875 C86.93015426 210.09405481 85.45028588 214.61520961 83.72094727 219.10595703 C80.63350046 227.21717013 77.90127292 235.53069334 76 244 C75.34 244 74.68 244 74 244 C73.9175 245.093125 73.835 246.18625 73.75 247.3125 C73.18625485 251.92867409 71.64656859 255.97717389 69.98828125 260.30078125 C68.69833308 263.82392031 67.82787708 267.34354292 67 271 C66.34 271 65.68 271 65 271 C64.87625 271.99 64.7525 272.98 64.625 274 C64.04805273 278.08880024 63.05036346 282.00861887 62 286 C61.34 286 60.68 286 60 286 C59.855625 287.2375 59.71125 288.475 59.5625 289.75 C59.21311498 292.56504499 58.79620634 295.2701497 58 298 C57.34 298 56.68 298 56 298 C55.87625 298.99 55.7525 299.98 55.625 301 C55.04805273 305.08880024 54.05036346 309.00861887 53 313 C52.34 313 51.68 313 51 313 C50.9175 314.093125 50.835 315.18625 50.75 316.3125 C50.18625485 320.92867409 48.64656859 324.97717389 46.98828125 329.30078125 C45.69833308 332.82392031 44.82787708 336.34354292 44 340 C43.34 340 42.68 340 42 340 C41.87625 341.175625 41.7525 342.35125 41.625 343.5625 C41.13564065 347.54120426 40.1944795 351.17766559 39 355 C38.34 355 37.68 355 37 355 C36.855625 356.2375 36.71125 357.475 36.5625 358.75 C36.21311498 361.56504499 35.79620634 364.2701497 35 367 C34.34 367 33.68 367 33 367 C32.896875 367.969375 32.79375 368.93875 32.6875 369.9375 C32.16394896 373.58781419 31.10522865 376.87248279 29.88671875 380.34375 C28.81447149 383.55576822 27.90951957 386.80077465 27 390.0625 C25.78525961 394.36680652 24.48768465 398.5368975 22.84375 402.69140625 C21.62510568 406.02575251 20.60453639 409.41991437 19.5625 412.8125 C18.1452642 417.41917565 16.68777055 421.98333469 15 426.5 C13.33584608 430.95563791 11.89637304 435.45544046 10.5 440 C8.83108543 445.43155831 7.01986289 450.76939935 5.03125 456.09375 C3.75175726 459.69959319 2.62361948 463.34312931 1.5 467 C-0.16770217 472.42761251 -1.97681653 477.76184505 -3.96484375 483.08203125 C-5.5127767 487.4454498 -6.85029824 491.87056331 -8.21044922 496.29541016 C-9.26061905 499.69359352 -10.339959 503.05811407 -11.625 506.375 C-13.01985747 510.05235151 -14.14946799 513.74496842 -15.2578125 517.515625 C-16.41103817 521.3758962 -17.70912647 525.18399666 -19 529 C-19.87687337 531.60355611 -20.75183155 534.20770394 -21.625 536.8125 C-21.84333496 537.45920654 -22.06166992 538.10591309 -22.28662109 538.7722168 C-23.30984224 541.82555647 -24.28768949 544.85791918 -25 548 C-25.66 548 -26.32 548 -27 548 C-27.061875 549.010625 -27.12375 550.02125 -27.1875 551.0625 C-27.87885764 556.81005527 -29.94749475 562.17334969 -31.84375 567.609375 C-32.68526009 570.07704647 -33.4356982 572.46064188 -34 575 C-34.66 575 -35.32 575 -36 575 C-36.12375 576.175625 -36.2475 577.35125 -36.375 578.5625 C-36.86435935 582.54120426 -37.8055205 586.17766559 -39 590 C-39.66 590 -40.32 590 -41 590 C-41.061875 591.010625 -41.12375 592.02125 -41.1875 593.0625 C-41.87885764 598.81005527 -43.94749475 604.17334969 -45.84375 609.609375 C-46.68526009 612.07704647 -47.4356982 614.46064188 -48 617 C-48.66 617 -49.32 617 -50 617 C-50.061875 618.010625 -50.12375 619.02125 -50.1875 620.0625 C-50.87885764 625.81005527 -52.94749475 631.17334969 -54.84375 636.609375 C-55.68526009 639.07704647 -56.4356982 641.46064188 -57 644 C-57.66 644 -58.32 644 -59 644 C-59.12375 645.175625 -59.2475 646.35125 -59.375 647.5625 C-59.86435935 651.54120426 -60.8055205 655.17766559 -62 659 C-62.66 659 -63.32 659 -64 659 C-64.061875 660.010625 -64.12375 661.02125 -64.1875 662.0625 C-64.87885764 667.81005527 -66.94749475 673.17334969 -68.84375 678.609375 C-69.68526009 681.07704647 -70.4356982 683.46064188 -71 686 C-71.66 686 -72.32 686 -73 686 C-73.061875 687.010625 -73.12375 688.02125 -73.1875 689.0625 C-73.87885764 694.81005527 -75.94749475 700.17334969 -77.84375 705.609375 C-78.68526009 708.07704647 -79.4356982 710.46064188 -80 713 C-80.66 713 -81.32 713 -82 713 C-82.12375 714.175625 -82.2475 715.35125 -82.375 716.5625 C-82.86435935 720.54120426 -83.8055205 724.17766559 -85 728 C-85.66 728 -86.32 728 -87 728 C-87.14695312 728.94359375 -87.14695312 728.94359375 -87.296875 729.90625 C-88.22139197 735.19831264 -89.49338859 739.6012571 -92.09765625 744.30859375 C-93.14704013 746.16189894 -93.14704013 746.16189894 -94 749 C-94.66 749 -95.32 749 -96 749 C-96.99 751.97 -97.98 754.94 -99 758 C-99.66 758 -100.32 758 -101 758 C-101.66 759.98 -102.32 761.96 -103 764 C-103.66 764 -104.32 764 -105 764 C-105.309375 764.78375 -105.61875 765.5675 -105.9375 766.375 C-107 769 -107 769 -108 771 C-108.66 771 -109.32 771 -110 771 C-110.226875 771.70125 -110.45375 772.4025 -110.6875 773.125 C-113.1799772 778.58471196 -117.61441058 782.96999891 -122 787 C-122.66 787 -123.32 787 -124 787 C-124.33 788.32 -124.66 789.64 -125 791 C-125.928125 791.12375 -125.928125 791.12375 -126.875 791.25 C-129.18437567 791.81258459 -129.18437567 791.81258459 -130.25 794.0625 C-130.62125 795.0215625 -130.62125 795.0215625 -131 796 C-131.66 796 -132.32 796 -133 796 C-133.37125 796.9590625 -133.37125 796.9590625 -133.75 797.9375 C-135 800 -135 800 -137.0625 800.5625 C-137.701875 800.706875 -138.34125 800.85125 -139 801 C-139.33 801.99 -139.66 802.98 -140 804 C-143.49166855 806.61875142 -146.88663907 808.54822555 -151 810 C-151 810.66 -151 811.32 -151 812 C-151.53109375 812.25394531 -152.0621875 812.50789062 -152.609375 812.76953125 C-155.6933385 814.27211931 -158.56950141 815.67421728 -161.3125 817.75 C-163 819 -163 819 -166 819 C-166 819.66 -166 820.32 -166 821 C-167.26839526 821.50615298 -168.53983102 822.00469099 -169.8125 822.5 C-170.87404297 822.91765625 -170.87404297 822.91765625 -171.95703125 823.34375 C-174 824 -174 824 -177 824 C-177 824.66 -177 825.32 -177 826 C-177.88042969 826.26554688 -178.76085938 826.53109375 -179.66796875 826.8046875 C-180.82941406 827.15789063 -181.99085938 827.51109375 -183.1875 827.875 C-184.33605469 828.22304688 -185.48460937 828.57109375 -186.66796875 828.9296875 C-189.90564916 829.91303692 -189.90564916 829.91303692 -192.5625 831.09375 C-195.36156168 832.13442678 -197.8391533 832.41005927 -200.8125 832.625 C-201.78832031 832.69976563 -202.76414062 832.77453125 -203.76953125 832.8515625 C-204.50558594 832.90054688 -205.24164062 832.94953125 -206 833 C-206 833.66 -206 834.32 -206 835 C-227.40705539 838.7757326 -255.2622798 840.64795355 -276 833 C-276.70382812 832.76539063 -277.40765625 832.53078125 -278.1328125 832.2890625 C-284.421875 830.19270833 -290.7109375 828.09635417 -297 826 C-297 825.34 -297 824.68 -297 824 C-297.928125 823.95875 -298.85625 823.9175 -299.8125 823.875 C-305.45226069 823.12071102 -310.18314238 819.84830459 -315 817 C-315 816.34 -315 815.68 -315 815 C-315.5775 814.87625 -316.155 814.7525 -316.75 814.625 C-319.02335767 813.99351176 -320.9253529 813.11141809 -323 812 C-323 811.34 -323 810.68 -323 810 C-323.61875 809.855625 -324.2375 809.71125 -324.875 809.5625 C-327 809 -327 809 -329 808 C-329 807.34 -329 806.68 -329 806 C-329.58007812 805.72542969 -330.16015625 805.45085938 -330.7578125 805.16796875 C-336.69167684 802.07698367 -341.32269529 797.90786668 -345.48828125 792.7265625 C-347.10683126 790.877986 -348.83700514 789.41328453 -350.75 787.875 C-353.59443377 785.5391736 -355.03435841 783.64797934 -356 780 C-356.66 780 -357.32 780 -358 780 C-360.29648649 777.4385343 -361 776.52032428 -361 773 C-361.99 772.67 -362.98 772.34 -364 772 C-365.5 769.75 -365.5 769.75 -367 767 C-367.556875 766.13375 -368.11375 765.2675 -368.6875 764.375 C-370 762 -370 762 -370 759 C-370.66 759 -371.32 759 -372 759 C-375 753.375 -375 753.375 -375 750 C-375.66 750 -376.32 750 -377 750 C-377.99 745.545 -377.99 745.545 -379 741 C-379.66 741 -380.32 741 -381 741 C-381.50692692 739.4188708 -382.00526443 737.83498617 -382.5 736.25 C-382.91765625 734.92742187 -382.91765625 734.92742187 -383.34375 733.578125 C-384 731 -384 731 -384 727 C-384.66 727 -385.32 727 -386 727 C-386.29003906 725.515 -386.29003906 725.515 -386.5859375 724 C-386.84846763 722.66656996 -387.11152311 721.33324329 -387.375 720 C-387.51147949 719.3088208 -387.64795898 718.6176416 -387.78857422 717.90551758 C-388.47540556 714.4701474 -389.20141382 711.06698578 -390.125 707.6875 C-392.28049181 698.60364164 -392.18635959 689.31725281 -392.18530273 680.02539062 C-392.18747493 677.89953125 -392.20565568 675.7742047 -392.22460938 673.6484375 C-392.27693521 661.1057434 -391.2686711 648.73049874 -388.0625 636.5625 C-387.88775146 635.89549072 -387.71300293 635.22848145 -387.53295898 634.54125977 C-386.22152947 629.61453809 -384.69689711 624.80400095 -383 620 C-382.12060524 617.39720932 -381.24564234 614.79320594 -380.375 612.1875 C-380.15658447 611.54031006 -379.93816895 610.89312012 -379.71313477 610.22631836 C-378.68970265 607.17355062 -377.71220331 604.14160793 -377 601 C-376.34 601 -375.68 601 -375 601 C-374.938125 599.989375 -374.87625 598.97875 -374.8125 597.9375 C-374.03901455 591.73872224 -371.73837315 585.9606249 -369.70703125 580.08789062 C-368.49050596 576.49544439 -367.37105895 572.87315656 -366.25 569.25 C-364.05872483 562.1761745 -364.05872483 562.1761745 -363 559 C-362.34 559 -361.68 559 -361 559 C-360.938125 557.989375 -360.87625 556.97875 -360.8125 555.9375 C-360.12114236 550.18994473 -358.05250525 544.82665031 -356.15625 539.390625 C-355.31473991 536.92295353 -354.5643018 534.53935812 -354 532 C-353.34 532 -352.68 532 -352 532 C-351.938125 530.989375 -351.87625 529.97875 -351.8125 528.9375 C-351.12673441 523.48947338 -349.25200466 518.45365998 -347.46484375 513.2890625 C-345.56711193 507.79813716 -343.86002671 502.24780339 -342.14379883 496.69799805 C-340.98803234 492.99519882 -339.77696841 489.33978878 -338.39453125 485.71484375 C-337.35963425 482.9580173 -336.47562391 480.35653374 -335.8125 477.5 C-335.544375 476.345 -335.27625 475.19 -335 474 C-334.34 474 -333.68 474 -333 474 C-332.8453125 472.2675 -332.8453125 472.2675 -332.6875 470.5 C-332.22452567 466.7766431 -331.22159234 463.66160438 -329.8203125 460.19921875 C-328.87519271 457.66539759 -328.1854984 455.11571757 -327.5 452.5 C-326.49130927 448.69401231 -325.32834985 445.04578684 -323.890625 441.375 C-322.63551585 438.02804226 -321.50593539 434.64037404 -320.375 431.25 C-320.15666504 430.5993457 -319.93833008 429.94869141 -319.71337891 429.27832031 C-318.69295446 426.20831183 -317.71730086 423.1561238 -317 420 C-316.34 420 -315.68 420 -315 420 C-314.938125 418.989375 -314.87625 417.97875 -314.8125 416.9375 C-314.12382584 411.41840709 -312.20484911 406.30900435 -310.39453125 401.078125 C-308.98240201 396.99623505 -307.70304295 392.87925211 -306.4375 388.75 C-304.78919679 383.40511573 -302.98814291 378.14567296 -301.03125 372.90625 C-299.75175726 369.30040681 -298.62361948 365.65687069 -297.5 362 C-295.83108543 356.56844169 -294.01986289 351.23060065 -292.03125 345.90625 C-290.75175726 342.30040681 -289.62361948 338.65687069 -288.5 335 C-286.83108543 329.56844169 -285.01986289 324.23060065 -283.03125 318.90625 C-281.75175485 315.30040003 -280.62374033 311.65683833 -279.5 308 C-277.82200206 302.54459987 -276.01619485 297.17183955 -274.02734375 291.8203125 C-270.6521771 282.55464587 -267.71404359 273.13988778 -264.81152344 263.71801758 C-263.31099037 258.88765656 -261.61757746 254.15447855 -259.84765625 249.41796875 C-258.64593822 245.99002653 -257.8017553 242.54108592 -257 239 C-256.34 239 -255.68 239 -255 239 C-254.9175 237.906875 -254.835 236.81375 -254.75 235.6875 C-254.18625485 231.07132591 -252.64656859 227.02282611 -250.98828125 222.69921875 C-249.69833308 219.17607969 -248.82787708 215.65645708 -248 212 C-247.34 212 -246.68 212 -246 212 C-245.814375 210.2365625 -245.814375 210.2365625 -245.625 208.4375 C-245.13564065 204.45879574 -244.1944795 200.82233441 -243 197 C-242.34 197 -241.68 197 -241 197 C-240.855625 195.7625 -240.71125 194.525 -240.5625 193.25 C-240.21311498 190.43495501 -239.79620634 187.7298503 -239 185 C-238.34 185 -237.68 185 -237 185 C-236.87625 184.01 -236.7525 183.02 -236.625 182 C-236.04805273 177.91119976 -235.05036346 173.99138113 -234 170 C-233.34 170 -232.68 170 -232 170 C-231.9175 168.906875 -231.835 167.81375 -231.75 166.6875 C-231.18625485 162.07132591 -229.64656859 158.02282611 -227.98828125 153.69921875 C-226.69833308 150.17607969 -225.82787708 146.65645708 -225 143 C-224.34 143 -223.68 143 -223 143 C-222.814375 141.2365625 -222.814375 141.2365625 -222.625 139.4375 C-222.13564065 135.45879574 -221.1944795 131.82233441 -220 128 C-219.34 128 -218.68 128 -218 128 C-217.855625 126.7625 -217.71125 125.525 -217.5625 124.25 C-217.21311498 121.43495501 -216.79620634 118.7298503 -216 116 C-215.34 116 -214.68 116 -214 116 C-213.814375 114.2365625 -213.814375 114.2365625 -213.625 112.4375 C-213.13564065 108.45879574 -212.1944795 104.82233441 -211 101 C-210.34 101 -209.68 101 -209 101 C-208.855625 99.906875 -208.71125 98.81375 -208.5625 97.6875 C-208 94 -208 94 -207 91 C-206.34 91 -205.68 91 -205 91 C-204.87625 89.948125 -204.7525 88.89625 -204.625 87.8125 C-204.08859218 84.54041229 -203.36119965 81.99463924 -202 79 C-201.34 79 -200.68 79 -200 79 C-199.773125 78.195625 -199.54625 77.39125 -199.3125 76.5625 C-195.06451613 65.03225806 -195.06451613 65.03225806 -191 63 C-189.61852047 60.68267951 -188.28937456 58.36721111 -187 56 C-184.81750352 52.01457165 -182.39414656 49.04602896 -179 46 C-178.34 46 -177.68 46 -177 46 C-176.9175 45.38125 -176.835 44.7625 -176.75 44.125 C-175.76174558 41.32494581 -174.59640015 41.25886068 -172 40 C-170.73195434 37.9664052 -170.73195434 37.9664052 -170 36 C-169.34 36 -168.68 36 -168 36 C-167.731875 35.360625 -167.46375 34.72125 -167.1875 34.0625 C-166 32 -166 32 -163 31 C-161.41250218 29.31090232 -160.02608082 27.51598057 -158.59765625 25.69140625 C-156.86429662 23.85633358 -155.25212801 23.08609931 -153 22 C-152.67 21.34 -152.34 20.68 -152 20 C-150.29576416 18.98401325 -148.58743605 17.97337356 -146.84765625 17.01953125 C-145.26553297 16.14652031 -143.72174838 15.20464344 -142.1875 14.25 C-140 13 -140 13 -138 13 C-138 12.34 -138 11.68 -138 11 C-135.03 10.01 -132.06 9.02 -129 8 C-129 7.34 -129 6.68 -129 6 C-126.09399739 4.74335022 -124.20395416 4 -121 4 C-121 3.34 -121 2.68 -121 2 C-119.58603098 1.49242138 -118.16868271 0.99425075 -116.75 0.5 C-115.96109375 0.2215625 -115.1721875 -0.056875 -114.359375 -0.34375 C-112 -1 -112 -1 -108 -1 C-108 -1.66 -108 -2.32 -108 -3 C-107.04738281 -3.19335938 -106.09476563 -3.38671875 -105.11328125 -3.5859375 C-103.85902344 -3.84632813 -102.60476563 -4.10671875 -101.3125 -4.375 C-100.07113281 -4.63023437 -98.82976562 -4.88546875 -97.55078125 -5.1484375 C-94.1173647 -5.87971762 -94.1173647 -5.87971762 -91.44140625 -7.03125 C-65.37403472 -17.37478302 -25.06174501 -10.31677097 0 0 Z " fill="#00BE62" transform="translate(1271,149)"/>
<path d="M0 0 C2.41305721 0.00316291 4.82488545 -0.02043312 7.23779297 -0.0456543 C21.23725228 -0.10151466 35.41352052 1.14137383 48.54638672 6.31567383 C50.4623601 7.00510358 52.37906299 7.69250839 54.29638672 8.37817383 C57.73890647 9.63137181 61.15035242 10.94137937 64.54638672 12.31567383 C64.54638672 12.97567383 64.54638672 13.63567383 64.54638672 14.31567383 C65.49513672 14.46004883 66.44388672 14.60442383 67.42138672 14.75317383 C70.54638672 15.31567383 70.54638672 15.31567383 72.54638672 16.31567383 C72.54638672 16.97567383 72.54638672 17.63567383 72.54638672 18.31567383 C73.28888672 18.43942383 74.03138672 18.56317383 74.79638672 18.69067383 C77.37568721 19.27687848 79.29460291 19.94851938 81.54638672 21.31567383 C81.87638672 21.97567383 82.20638672 22.63567383 82.54638672 23.31567383 C84.53704213 24.33414869 86.53886857 25.3308536 88.54638672 26.31567383 C94.3546059 29.93211218 94.3546059 29.93211218 95.54638672 32.31567383 C96.28888672 32.72817383 97.03138672 33.14067383 97.79638672 33.56567383 C101.11528324 35.67769889 103.03732983 38.30480556 105.54638672 41.31567383 C107.19665612 42.34250812 108.85882539 43.35135307 110.54638672 44.31567383 C110.54638672 44.97567383 110.54638672 45.63567383 110.54638672 46.31567383 C111.86638672 46.97567383 113.18638672 47.63567383 114.54638672 48.31567383 C114.54638672 49.30567383 114.54638672 50.29567383 114.54638672 51.31567383 C115.18576172 51.56317383 115.82513672 51.81067383 116.48388672 52.06567383 C118.54638672 53.31567383 118.54638672 53.31567383 119.10888672 55.37817383 C119.25326172 56.01754883 119.39763672 56.65692383 119.54638672 57.31567383 C120.53638672 57.64567383 121.52638672 57.97567383 122.54638672 58.31567383 C124.54638672 61.31567383 124.54638672 61.31567383 124.54638672 64.31567383 C125.53638672 64.64567383 126.52638672 64.97567383 127.54638672 65.31567383 C128.23388672 67.37817383 128.23388672 67.37817383 128.54638672 69.31567383 C129.20638672 69.31567383 129.86638672 69.31567383 130.54638672 69.31567383 C133.54638672 74.94067383 133.54638672 74.94067383 133.54638672 78.31567383 C134.20638672 78.31567383 134.86638672 78.31567383 135.54638672 78.31567383 C137.35486478 81.84220605 139.08031171 85.40179339 140.73388672 89.00317383 C141.07806641 89.74954102 141.42224609 90.4959082 141.77685547 91.26489258 C142.54638672 93.31567383 142.54638672 93.31567383 142.54638672 96.31567383 C143.20638672 96.31567383 143.86638672 96.31567383 144.54638672 96.31567383 C145.05275279 98.06384241 145.55123291 99.81429646 146.04638672 101.56567383 C146.46404297 103.0274707 146.46404297 103.0274707 146.89013672 104.51879883 C147.54638672 107.31567383 147.54638672 107.31567383 147.54638672 111.31567383 C148.20638672 111.31567383 148.86638672 111.31567383 149.54638672 111.31567383 C149.75134766 112.38688477 149.95630859 113.4580957 150.16748047 114.56176758 C150.43941381 115.95894234 150.71156024 117.35607564 150.98388672 118.75317383 C151.18594727 119.81375 151.18594727 119.81375 151.39208984 120.89575195 C151.8304557 124.39996647 151.8304557 124.39996647 153.54638672 127.31567383 C157.19237861 148.34000664 156.41962918 170.25378044 153.54638672 191.31567383 C152.88638672 191.31567383 152.22638672 191.31567383 151.54638672 191.31567383 C151.58763672 192.28504883 151.62888672 193.25442383 151.67138672 194.25317383 C151.68987605 198.76457107 150.65156094 202.96405035 149.54638672 207.31567383 C148.88638672 207.31567383 148.22638672 207.31567383 147.54638672 207.31567383 C147.49740234 207.88415039 147.44841797 208.45262695 147.39794922 209.03833008 C146.91495591 214.02648511 146.07000509 218.54166961 144.54638672 223.31567383 C143.88638672 223.31567383 143.22638672 223.31567383 142.54638672 223.31567383 C142.48451172 224.32629883 142.42263672 225.33692383 142.35888672 226.37817383 C141.66752908 232.1257291 139.59889196 237.48902352 137.70263672 242.92504883 C136.86112663 245.3927203 136.11068852 247.77631571 135.54638672 250.31567383 C134.88638672 250.31567383 134.22638672 250.31567383 133.54638672 250.31567383 C133.42263672 251.49129883 133.29888672 252.66692383 133.17138672 253.87817383 C132.68202737 257.85687809 131.74086622 261.49333941 130.54638672 265.31567383 C129.88638672 265.31567383 129.22638672 265.31567383 128.54638672 265.31567383 C128.40201172 266.55317383 128.25763672 267.79067383 128.10888672 269.06567383 C127.7595017 271.88071882 127.34259306 274.58582353 126.54638672 277.31567383 C125.88638672 277.31567383 125.22638672 277.31567383 124.54638672 277.31567383 C124.42263672 278.49129883 124.29888672 279.66692383 124.17138672 280.87817383 C123.68202737 284.85687809 122.74086622 288.49333941 121.54638672 292.31567383 C120.88638672 292.31567383 120.22638672 292.31567383 119.54638672 292.31567383 C119.48451172 293.32629883 119.42263672 294.33692383 119.35888672 295.37817383 C118.66752908 301.1257291 116.59889196 306.48902352 114.70263672 311.92504883 C113.86112663 314.3927203 113.11068852 316.77631571 112.54638672 319.31567383 C111.88638672 319.31567383 111.22638672 319.31567383 110.54638672 319.31567383 C110.48451172 320.32629883 110.42263672 321.33692383 110.35888672 322.37817383 C109.67021256 327.89726673 107.75123583 333.00666947 105.94091797 338.23754883 C104.52878674 342.31944455 103.24956858 346.43646059 101.98388672 350.56567383 C100.32511181 355.93874572 98.52794212 361.23582669 96.56982422 366.50708008 C92.96305962 376.40503331 89.83391966 386.47829367 86.68945312 396.53051758 C84.49640353 403.53146439 82.26176539 410.51252415 79.67138672 417.37817383 C77.79231882 422.50290445 76.1536019 427.68943299 74.54736328 432.90405273 C72.24036661 440.36755566 69.75612297 447.76994567 67.265625 455.17382812 C66.26459682 458.15482617 65.27185404 461.13856783 64.27832031 464.12207031 C63.5869273 466.19417379 62.89167659 468.26493218 62.19482422 470.33520508 C61.98341797 470.96491211 61.77201172 471.59461914 61.55419922 472.2434082 C61.12563928 473.519829 60.69591682 474.79585998 60.26513672 476.0715332 C59.24025925 479.1303496 58.25996809 482.16798713 57.54638672 485.31567383 C56.88638672 485.31567383 56.22638672 485.31567383 55.54638672 485.31567383 C55.48451172 486.32629883 55.42263672 487.33692383 55.35888672 488.37817383 C54.58239124 494.59013767 52.30639918 500.39872474 50.25341797 506.27954102 C49.07328775 509.67812044 47.93543524 513.09065513 46.79638672 516.50317383 C46.18537109 518.31881836 46.18537109 518.31881836 45.56201172 520.17114258 C44.79424141 522.54827756 44.10174607 524.88295842 43.54638672 527.31567383 C42.88638672 527.31567383 42.22638672 527.31567383 41.54638672 527.31567383 C41.48451172 528.32629883 41.42263672 529.33692383 41.35888672 530.37817383 C40.66752908 536.1257291 38.59889196 541.48902352 36.70263672 546.92504883 C35.86112663 549.3927203 35.11068852 551.77631571 34.54638672 554.31567383 C33.88638672 554.31567383 33.22638672 554.31567383 32.54638672 554.31567383 C32.48451172 555.32629883 32.42263672 556.33692383 32.35888672 557.37817383 C31.67021256 562.89726673 29.75123583 568.00666947 27.94091797 573.23754883 C26.52878674 577.31944455 25.24956858 581.43646059 23.98388672 585.56567383 C22.33121037 590.91899139 20.54431984 596.19801058 18.58935547 601.44848633 C17.28624619 605.03081671 16.06624319 608.63762832 14.85888672 612.25317383 C14.44251953 613.49969727 14.02615234 614.7462207 13.59716797 616.03051758 C12.82153975 618.45543701 12.11184045 620.83637668 11.54638672 623.31567383 C10.88638672 623.31567383 10.22638672 623.31567383 9.54638672 623.31567383 C9.48451172 624.32629883 9.42263672 625.33692383 9.35888672 626.37817383 C8.5821663 632.53799827 6.33933093 638.28724451 4.30517578 644.11987305 C2.9117825 648.15210574 1.57753761 652.20415594 0.23388672 656.25317383 C-0.282806 657.80403318 -0.79971269 659.35482127 -1.31689453 660.90551758 C-1.69201172 662.03086914 -2.06712891 663.1562207 -2.45361328 664.31567383 C-3.11361328 664.31567383 -3.77361328 664.31567383 -4.45361328 664.31567383 C-4.57736328 665.36754883 -4.70111328 666.41942383 -4.82861328 667.50317383 C-5.3650211 670.77526154 -6.09241363 673.32103459 -7.45361328 676.31567383 C-8.11361328 676.31567383 -8.77361328 676.31567383 -9.45361328 676.31567383 C-9.79392578 677.76973633 -9.79392578 677.76973633 -10.14111328 679.25317383 C-11.47596301 684.00796701 -13.94537207 688.0937869 -16.45361328 692.31567383 C-17.11361328 692.31567383 -17.77361328 692.31567383 -18.45361328 692.31567383 C-18.57736328 692.89317383 -18.70111328 693.47067383 -18.82861328 694.06567383 C-19.46010152 696.3390315 -20.34219519 698.24102672 -21.45361328 700.31567383 C-22.11361328 700.31567383 -22.77361328 700.31567383 -23.45361328 700.31567383 C-23.55673828 700.95504883 -23.65986328 701.59442383 -23.76611328 702.25317383 C-23.99298828 702.93379883 -24.21986328 703.61442383 -24.45361328 704.31567383 C-25.44361328 704.64567383 -26.43361328 704.97567383 -27.45361328 705.31567383 C-27.70111328 705.99629883 -27.94861328 706.67692383 -28.20361328 707.37817383 C-30.88840749 713.68744021 -36.60111701 718.59432611 -41.45361328 723.31567383 C-42.35080078 724.24379883 -42.35080078 724.24379883 -43.26611328 725.19067383 C-56.77714269 738.31567383 -56.77714269 738.31567383 -61.45361328 738.31567383 C-61.78361328 739.30567383 -62.11361328 740.29567383 -62.45361328 741.31567383 C-63.44361328 741.64567383 -64.43361328 741.97567383 -65.45361328 742.31567383 C-65.78361328 742.97567383 -66.11361328 743.63567383 -66.45361328 744.31567383 C-68.74675158 745.15796116 -71.06856285 745.78500322 -73.42236328 746.43676758 C-74.09267578 746.72680664 -74.76298828 747.0168457 -75.45361328 747.31567383 C-75.78361328 748.30567383 -76.11361328 749.29567383 -76.45361328 750.31567383 C-78.43361328 750.64567383 -80.41361328 750.97567383 -82.45361328 751.31567383 C-82.45361328 751.97567383 -82.45361328 752.63567383 -82.45361328 753.31567383 C-89.07861328 756.31567383 -89.07861328 756.31567383 -92.45361328 756.31567383 C-92.45361328 756.97567383 -92.45361328 757.63567383 -92.45361328 758.31567383 C-94.03474248 758.82260075 -95.61862711 759.32093826 -97.20361328 759.81567383 C-98.52619141 760.23333008 -98.52619141 760.23333008 -99.87548828 760.65942383 C-102.45361328 761.31567383 -102.45361328 761.31567383 -106.45361328 761.31567383 C-106.45361328 761.97567383 -106.45361328 762.63567383 -106.45361328 763.31567383 C-108.01478147 763.65519002 -109.57762667 763.98699927 -111.14111328 764.31567383 C-112.01123047 764.50129883 -112.88134766 764.68692383 -113.77783203 764.87817383 C-116.39074292 765.30539429 -118.81174366 765.39183584 -121.45361328 765.31567383 C-121.45361328 765.97567383 -121.45361328 766.63567383 -121.45361328 767.31567383 C-142.81318501 771.08303136 -165.03126932 770.10880831 -186.45361328 767.31567383 C-186.45361328 766.65567383 -186.45361328 765.99567383 -186.45361328 765.31567383 C-188.38527344 765.16291992 -188.38527344 765.16291992 -190.35595703 765.00708008 C-195.51645914 764.43369096 -200.13984148 762.98294596 -205.01611328 761.25317383 C-205.83402344 760.97151367 -206.65193359 760.68985352 -207.49462891 760.3996582 C-209.48384811 759.71331941 -211.46916568 759.01568932 -213.45361328 758.31567383 C-213.45361328 757.65567383 -213.45361328 756.99567383 -213.45361328 756.31567383 C-214.36111328 756.19192383 -215.26861328 756.06817383 -216.20361328 755.94067383 C-219.04331651 755.39457705 -220.97951919 754.7430358 -223.45361328 753.31567383 C-223.45361328 752.65567383 -223.45361328 751.99567383 -223.45361328 751.31567383 C-224.21673828 751.17129883 -224.97986328 751.02692383 -225.76611328 750.87817383 C-228.45361328 750.31567383 -228.45361328 750.31567383 -231.45361328 749.31567383 C-231.78361328 748.65567383 -232.11361328 747.99567383 -232.45361328 747.31567383 C-234.76327176 746.2621454 -237.09659068 745.25848287 -239.45361328 744.31567383 C-239.45361328 743.65567383 -239.45361328 742.99567383 -239.45361328 742.31567383 C-241.10361328 741.65567383 -242.75361328 740.99567383 -244.45361328 740.31567383 C-244.45361328 739.65567383 -244.45361328 738.99567383 -244.45361328 738.31567383 C-245.23736328 738.04754883 -246.02111328 737.77942383 -246.82861328 737.50317383 C-249.45361328 736.31567383 -249.45361328 736.31567383 -251.45361328 733.31567383 C-253.11640655 732.30924632 -254.78344812 731.30981976 -256.45361328 730.31567383 C-258.76611328 728.25317383 -258.76611328 728.25317383 -260.45361328 726.31567383 C-260.45361328 725.65567383 -260.45361328 724.99567383 -260.45361328 724.31567383 C-261.01048828 724.08879883 -261.56736328 723.86192383 -262.14111328 723.62817383 C-265.13402527 721.92949405 -267.18888566 719.89494696 -269.45361328 717.31567383 C-269.45361328 716.32567383 -269.45361328 715.33567383 -269.45361328 714.31567383 C-270.03111328 714.08879883 -270.60861328 713.86192383 -271.20361328 713.62817383 C-274.71804093 711.57809104 -276.94550499 708.88234106 -278.20361328 705.00317383 C-278.28611328 704.44629883 -278.36861328 703.88942383 -278.45361328 703.31567383 C-279.11361328 703.31567383 -279.77361328 703.31567383 -280.45361328 703.31567383 C-282.49530813 700.41018501 -283.45361328 698.91425337 -283.45361328 695.31567383 C-284.44361328 694.98567383 -285.43361328 694.65567383 -286.45361328 694.31567383 C-288.05908203 691.47973633 -288.05908203 691.47973633 -289.64111328 687.94067383 C-290.43582031 686.19657227 -290.43582031 686.19657227 -291.24658203 684.41723633 C-292.45361328 681.31567383 -292.45361328 681.31567383 -292.45361328 678.31567383 C-293.11361328 678.31567383 -293.77361328 678.31567383 -294.45361328 678.31567383 C-295.80182251 674.65429343 -297.13202762 670.9867451 -298.45361328 667.31567383 C-298.76169922 666.47133789 -299.06978516 665.62700195 -299.38720703 664.75708008 C-300.77036329 660.83262236 -301.86281919 657.54413489 -301.45361328 653.31567383 C-302.11361328 653.31567383 -302.77361328 653.31567383 -303.45361328 653.31567383 C-305.42364842 642.86745174 -306.96254187 632.98432505 -306.45361328 622.31567383 C-307.11361328 622.31567383 -307.77361328 622.31567383 -308.45361328 622.31567383 C-308.45361328 614.06567383 -308.45361328 605.81567383 -308.45361328 597.31567383 C-307.79361328 597.31567383 -307.13361328 597.31567383 -306.45361328 597.31567383 C-306.48841797 596.66985352 -306.52322266 596.0240332 -306.55908203 595.35864258 C-306.84327537 585.46600775 -305.15896788 576.01995356 -303.45361328 566.31567383 C-302.79361328 566.31567383 -302.13361328 566.31567383 -301.45361328 566.31567383 C-301.39173828 565.14004883 -301.32986328 563.96442383 -301.26611328 562.75317383 C-300.62972222 556.78819489 -298.58729235 551.29301516 -296.60986328 545.67114258 C-295.76332142 543.21445521 -295.01461104 540.84653873 -294.45361328 538.31567383 C-293.79361328 538.31567383 -293.13361328 538.31567383 -292.45361328 538.31567383 C-292.39173828 537.30504883 -292.32986328 536.29442383 -292.26611328 535.25317383 C-291.57475565 529.50561856 -289.50611853 524.14232414 -287.60986328 518.70629883 C-286.76835319 516.23862735 -286.01791509 513.85503195 -285.45361328 511.31567383 C-284.79361328 511.31567383 -284.13361328 511.31567383 -283.45361328 511.31567383 C-283.32986328 510.14004883 -283.20611328 508.96442383 -283.07861328 507.75317383 C-282.58925393 503.77446957 -281.64809279 500.13800824 -280.45361328 496.31567383 C-279.79361328 496.31567383 -279.13361328 496.31567383 -278.45361328 496.31567383 C-278.39173828 495.30504883 -278.32986328 494.29442383 -278.26611328 493.25317383 C-277.57794115 487.73810419 -275.66120648 482.63254028 -273.85205078 477.40551758 C-272.41705683 473.25764454 -271.11649644 469.07362527 -269.82861328 464.87817383 C-268.43065371 460.35401383 -266.97714249 455.88099881 -265.25830078 451.46801758 C-262.13796307 443.12187156 -259.51815057 434.57768036 -256.89111328 426.06567383 C-255.51533352 421.60793493 -254.08347978 417.1881671 -252.45361328 412.81567383 C-250.60015553 407.84099321 -249.01611804 402.79694905 -247.45410156 397.72558594 C-245.14714856 390.2626896 -242.66316102 382.86084157 -240.17285156 375.45751953 C-239.17182338 372.47652149 -238.1790806 369.49277983 -237.18554688 366.50927734 C-236.49415386 364.43717386 -235.79890315 362.36641547 -235.10205078 360.29614258 C-234.89064453 359.66643555 -234.67923828 359.03672852 -234.46142578 358.38793945 C-234.03286584 357.11151865 -233.60314339 355.83548768 -233.17236328 354.55981445 C-232.14748581 351.50099806 -231.16719465 348.46336053 -230.45361328 345.31567383 C-229.79361328 345.31567383 -229.13361328 345.31567383 -228.45361328 345.31567383 C-228.32986328 344.14004883 -228.20611328 342.96442383 -228.07861328 341.75317383 C-227.58925393 337.77446957 -226.64809279 334.13800824 -225.45361328 330.31567383 C-224.79361328 330.31567383 -224.13361328 330.31567383 -223.45361328 330.31567383 C-223.39173828 329.30504883 -223.32986328 328.29442383 -223.26611328 327.25317383 C-222.57475565 321.50561856 -220.50611853 316.14232414 -218.60986328 310.70629883 C-217.76835319 308.23862735 -217.01791509 305.85503195 -216.45361328 303.31567383 C-215.79361328 303.31567383 -215.13361328 303.31567383 -214.45361328 303.31567383 C-214.39173828 302.30504883 -214.32986328 301.29442383 -214.26611328 300.25317383 C-213.57475565 294.50561856 -211.50611853 289.14232414 -209.60986328 283.70629883 C-208.76835319 281.23862735 -208.01791509 278.85503195 -207.45361328 276.31567383 C-206.79361328 276.31567383 -206.13361328 276.31567383 -205.45361328 276.31567383 C-205.39173828 275.30504883 -205.32986328 274.29442383 -205.26611328 273.25317383 C-204.4896178 267.04120998 -202.21362574 261.23262292 -200.16064453 255.35180664 C-198.98051431 251.95322722 -197.8426618 248.54069252 -196.70361328 245.12817383 C-196.29626953 243.91774414 -195.88892578 242.70731445 -195.46923828 241.46020508 C-194.70146798 239.08307009 -194.00897263 236.74838924 -193.45361328 234.31567383 C-192.79361328 234.31567383 -192.13361328 234.31567383 -191.45361328 234.31567383 C-191.39173828 233.30504883 -191.32986328 232.29442383 -191.26611328 231.25317383 C-190.57475565 225.50561856 -188.50611853 220.14232414 -186.60986328 214.70629883 C-185.76835319 212.23862735 -185.01791509 209.85503195 -184.45361328 207.31567383 C-183.79361328 207.31567383 -183.13361328 207.31567383 -182.45361328 207.31567383 C-182.39173828 206.30504883 -182.32986328 205.29442383 -182.26611328 204.25317383 C-181.49262783 198.05439607 -179.19198644 192.27629873 -177.16064453 186.40356445 C-175.94411924 182.81111822 -174.82467223 179.18883039 -173.70361328 175.56567383 C-171.51233811 168.49184832 -171.51233811 168.49184832 -170.45361328 165.31567383 C-169.79361328 165.31567383 -169.13361328 165.31567383 -168.45361328 165.31567383 C-168.39173828 164.30504883 -168.32986328 163.29442383 -168.26611328 162.25317383 C-167.57475565 156.50561856 -165.50611853 151.14232414 -163.60986328 145.70629883 C-162.76835319 143.23862735 -162.01791509 140.85503195 -161.45361328 138.31567383 C-160.79361328 138.31567383 -160.13361328 138.31567383 -159.45361328 138.31567383 C-159.39173828 137.30504883 -159.32986328 136.29442383 -159.26611328 135.25317383 C-158.48939286 129.09334938 -156.24655749 123.34410315 -154.21240234 117.51147461 C-152.81900906 113.47924192 -151.48476417 109.42719171 -150.14111328 105.37817383 C-149.62442057 103.82731447 -149.10751388 102.27652638 -148.59033203 100.72583008 C-148.21521484 99.60047852 -147.84009766 98.47512695 -147.45361328 97.31567383 C-146.79361328 97.31567383 -146.13361328 97.31567383 -145.45361328 97.31567383 C-145.26798828 96.23286133 -145.26798828 96.23286133 -145.07861328 95.12817383 C-144.46312018 92.35845488 -143.56916954 89.91863843 -142.45361328 87.31567383 C-141.79361328 87.31567383 -141.13361328 87.31567383 -140.45361328 87.31567383 C-140.23705078 86.41848633 -140.23705078 86.41848633 -140.01611328 85.50317383 C-139.56636938 83.75416978 -139.02468987 82.0289036 -138.45361328 80.31567383 C-137.79361328 80.31567383 -137.13361328 80.31567383 -136.45361328 80.31567383 C-136.08236328 78.98536133 -136.08236328 78.98536133 -135.70361328 77.62817383 C-134.40222905 74.17950561 -132.80936208 72.11312553 -130.45361328 69.31567383 C-130.08236328 68.57317383 -129.71111328 67.83067383 -129.32861328 67.06567383 C-128.45361328 65.31567383 -128.45361328 65.31567383 -126.45361328 64.31567383 C-125.32010794 62.29897555 -125.32010794 62.29897555 -124.45361328 60.31567383 C-123.79361328 60.31567383 -123.13361328 60.31567383 -122.45361328 60.31567383 C-122.21255859 59.58348633 -121.97150391 58.85129883 -121.72314453 58.09692383 C-120.28340651 54.94279008 -118.6409903 53.20211105 -116.14111328 50.81567383 C-115.33673828 50.03836914 -114.53236328 49.26106445 -113.70361328 48.46020508 C-112.58986328 47.39866211 -112.58986328 47.39866211 -111.45361328 46.31567383 C-110.52548828 45.38754883 -109.59736328 44.45942383 -108.64111328 43.50317383 C-107.91923828 42.78129883 -107.19736328 42.05942383 -106.45361328 41.31567383 C-105.75236328 40.55254883 -105.05111328 39.78942383 -104.32861328 39.00317383 C-102.45361328 37.31567383 -102.45361328 37.31567383 -99.45361328 37.31567383 C-99.08236328 36.35661133 -99.08236328 36.35661133 -98.70361328 35.37817383 C-97.45361328 33.31567383 -97.45361328 33.31567383 -95.39111328 32.75317383 C-94.75173828 32.60879883 -94.11236328 32.46442383 -93.45361328 32.31567383 C-93.12361328 31.32567383 -92.79361328 30.33567383 -92.45361328 29.31567383 C-91.12027995 28.98234049 -89.78694661 28.64900716 -88.45361328 28.31567383 C-88.12361328 27.32567383 -87.79361328 26.33567383 -87.45361328 25.31567383 C-83.89111328 24.12817383 -83.89111328 24.12817383 -80.45361328 23.31567383 C-80.45361328 22.65567383 -80.45361328 21.99567383 -80.45361328 21.31567383 C-74.82861328 18.31567383 -74.82861328 18.31567383 -71.45361328 18.31567383 C-71.45361328 17.65567383 -71.45361328 16.99567383 -71.45361328 16.31567383 C-68.08263945 14.81746324 -66.24919209 14.31567383 -62.45361328 14.31567383 C-62.45361328 13.65567383 -62.45361328 12.99567383 -62.45361328 12.31567383 C-61.01807303 11.81007475 -59.58009308 11.31139893 -58.14111328 10.81567383 C-57.34060547 10.53723633 -56.54009766 10.25879883 -55.71533203 9.97192383 C-53.45361328 9.31567383 -53.45361328 9.31567383 -50.45361328 9.31567383 C-50.45361328 8.65567383 -50.45361328 7.99567383 -50.45361328 7.31567383 C-49.57318359 7.12231445 -48.69275391 6.92895508 -47.78564453 6.72973633 C-46.04347656 6.33915039 -46.04347656 6.33915039 -44.26611328 5.94067383 C-42.54328125 5.55782227 -42.54328125 5.55782227 -40.78564453 5.16723633 C-37.58082866 4.44248962 -37.58082866 4.44248962 -35.19116211 3.33154297 C-24.4267449 -0.66299373 -11.34890347 -0.03093281 0 0 Z " fill="#00BE63" transform="translate(802.45361328125,216.684326171875)"/>
<path d="M0 0 C1.12019531 -0.00128906 2.24039063 -0.00257813 3.39453125 -0.00390625 C4.57402344 -0.00003906 5.75351562 0.00382812 6.96875 0.0078125 C8.73798828 0.00201172 8.73798828 0.00201172 10.54296875 -0.00390625 C12.22326172 -0.00197266 12.22326172 -0.00197266 13.9375 0 C14.97326172 0.00112793 16.00902344 0.00225586 17.07617188 0.00341797 C19.46875 0.1328125 19.46875 0.1328125 20.46875 1.1328125 C22.0392584 1.41808792 23.62002747 1.64740347 25.203125 1.8515625 C26.16992188 1.97917969 27.13671875 2.10679687 28.1328125 2.23828125 C29.15117187 2.36847656 30.16953125 2.49867188 31.21875 2.6328125 C33.21372764 2.8918006 35.20852627 3.15217222 37.203125 3.4140625 C38.53682129 3.58518555 38.53682129 3.58518555 39.89746094 3.75976562 C42.4445236 4.12929769 44.95020296 4.60485797 47.46875 5.1328125 C47.46875 5.7928125 47.46875 6.4528125 47.46875 7.1328125 C48.54125 7.2771875 49.61375 7.4215625 50.71875 7.5703125 C53.38537949 7.97030692 55.88274729 8.40873174 58.46875 9.1328125 C58.46875 9.7928125 58.46875 10.4528125 58.46875 11.1328125 C59.108125 11.2153125 59.7475 11.2978125 60.40625 11.3828125 C69.22291458 13.54199566 77.73980641 18.46324242 85.46875 23.1328125 C85.79875 23.7928125 86.12875 24.4528125 86.46875 25.1328125 C88.11431566 26.16716806 89.7858108 27.16044763 91.46875 28.1328125 C95.68635166 30.76881354 99.00298433 33.57818104 102.46875 37.1328125 C103.273125 37.7309375 104.0775 38.3290625 104.90625 38.9453125 C107.82157566 41.43400514 109.82008859 44.14305177 112.046875 47.2421875 C113.50938137 49.28763593 113.50938137 49.28763593 115.78125 51.3828125 C117.6670297 53.3384359 117.84831159 54.56242482 118.46875 57.1328125 C119.45875 57.4628125 120.44875 57.7928125 121.46875 58.1328125 C122.15625 60.1953125 122.15625 60.1953125 122.46875 62.1328125 C123.12875 62.1328125 123.78875 62.1328125 124.46875 62.1328125 C127.46875 67.7578125 127.46875 67.7578125 127.46875 71.1328125 C128.45875 71.4628125 129.44875 71.7928125 130.46875 72.1328125 C131.9165422 75.02839691 132.46875 76.87470188 132.46875 80.1328125 C133.12875 80.1328125 133.78875 80.1328125 134.46875 80.1328125 C135.12875 83.1028125 135.78875 86.0728125 136.46875 89.1328125 C137.12875 89.1328125 137.78875 89.1328125 138.46875 89.1328125 C138.97681447 90.85962687 139.47485467 92.58939229 139.96875 94.3203125 C140.38640625 95.76470703 140.38640625 95.76470703 140.8125 97.23828125 C141.43552608 99.98627126 141.59177812 102.32879666 141.46875 105.1328125 C142.12875 105.1328125 142.78875 105.1328125 143.46875 105.1328125 C143.55439209 105.76372803 143.64003418 106.39464355 143.72827148 107.04467773 C144.11658714 109.88716931 144.51133081 112.72873119 144.90625 115.5703125 C145.04095703 116.56353516 145.17566406 117.55675781 145.31445312 118.58007812 C145.51264648 119.99643555 145.51264648 119.99643555 145.71484375 121.44140625 C145.83529053 122.31595459 145.9557373 123.19050293 146.07983398 124.09155273 C146.26797202 126.11945755 146.26797202 126.11945755 147.46875 127.1328125 C147.56849389 129.03566237 147.5995563 130.94219503 147.6015625 132.84765625 C147.60285156 134.00845703 147.60414063 135.16925781 147.60546875 136.36523438 C147.60160156 137.58791016 147.59773438 138.81058594 147.59375 140.0703125 C147.59761719 141.28912109 147.60148437 142.50792969 147.60546875 143.76367188 C147.60353516 145.50680664 147.60353516 145.50680664 147.6015625 147.28515625 C147.60043457 148.35757568 147.59930664 149.42999512 147.59814453 150.53491211 C147.46875 153.1328125 147.46875 153.1328125 146.46875 155.1328125 C146.20605723 156.58004677 145.98406447 158.03481656 145.78515625 159.4921875 C145.66205078 160.36101562 145.53894531 161.22984375 145.41210938 162.125 C145.16039358 163.94768053 144.91036323 165.77059471 144.66210938 167.59375 C143.98884344 172.32405369 143.12692864 176.62927673 141.46875 181.1328125 C140.91257602 183.08707521 140.37026406 185.04535099 139.84375 187.0078125 C139.45316406 188.45800781 139.45316406 188.45800781 139.0546875 189.9375 C138.76464844 191.02417969 138.76464844 191.02417969 138.46875 192.1328125 C137.80875 192.1328125 137.14875 192.1328125 136.46875 192.1328125 C136.324375 193.0609375 136.18 193.9890625 136.03125 194.9453125 C135.46875 198.1328125 135.46875 198.1328125 134.46875 201.1328125 C133.80875 201.1328125 133.14875 201.1328125 132.46875 201.1328125 C132.365625 201.8546875 132.2625 202.5765625 132.15625 203.3203125 C131.39252476 206.44464301 130.17714582 208.41203397 128.46875 211.1328125 C127.09572696 213.78007995 125.77839051 216.45370018 124.46875 219.1328125 C123.80875 219.1328125 123.14875 219.1328125 122.46875 219.1328125 C121.80875 220.7828125 121.14875 222.4328125 120.46875 224.1328125 C119.80875 224.1328125 119.14875 224.1328125 118.46875 224.1328125 C118.200625 224.9371875 117.9325 225.7415625 117.65625 226.5703125 C117.264375 227.4159375 116.8725 228.2615625 116.46875 229.1328125 C115.47875 229.4628125 114.48875 229.7928125 113.46875 230.1328125 C112.25005071 232.63728766 112.25005071 232.63728766 111.46875 235.1328125 C110.80875 235.1328125 110.14875 235.1328125 109.46875 235.1328125 C109.241875 235.6896875 109.015 236.2465625 108.78125 236.8203125 C107.09324964 239.79440838 105.00198483 241.85290115 102.46875 244.1328125 C101.80875 244.1328125 101.14875 244.1328125 100.46875 244.1328125 C100.13875 245.1228125 99.80875 246.1128125 99.46875 247.1328125 C98.5096875 247.349375 98.5096875 247.349375 97.53125 247.5703125 C96.850625 247.7559375 96.17 247.9415625 95.46875 248.1328125 C94.76937468 249.44928369 94.10145867 250.78303401 93.46875 252.1328125 C92.47875 252.4628125 91.48875 252.7928125 90.46875 253.1328125 C89.44770449 254.11131445 88.4481379 255.11261677 87.46875 256.1328125 C84.46875 258.1328125 84.46875 258.1328125 81.46875 258.1328125 C81.46875 258.7928125 81.46875 259.4528125 81.46875 260.1328125 C79.48875 260.7928125 77.50875 261.4528125 75.46875 262.1328125 C75.46875 262.7928125 75.46875 263.4528125 75.46875 264.1328125 C70.51875 265.6178125 70.51875 265.6178125 65.46875 267.1328125 C65.46875 267.7928125 65.46875 268.4528125 65.46875 269.1328125 C56.50452219 272.81073282 48.31622892 276.09108589 38.46875 276.1328125 C38.46875 276.7928125 38.46875 277.4528125 38.46875 278.1328125 C28.10023346 279.7664702 18.04230115 280.4608306 7.53125 280.3828125 C6.83684814 280.38104004 6.14244629 280.37926758 5.42700195 280.37744141 C-4.66682782 280.34722384 -14.57956199 279.96601819 -24.53125 278.1328125 C-24.53125 277.4728125 -24.53125 276.8128125 -24.53125 276.1328125 C-25.44390625 276.12894531 -25.44390625 276.12894531 -26.375 276.125 C-38.90121129 275.57237303 -50.6460529 270.04640515 -61.53125 264.1328125 C-61.53125 263.4728125 -61.53125 262.8128125 -61.53125 262.1328125 C-63.51125 261.4728125 -65.49125 260.8128125 -67.53125 260.1328125 C-67.53125 259.4728125 -67.53125 258.8128125 -67.53125 258.1328125 C-68.294375 258.0090625 -69.0575 257.8853125 -69.84375 257.7578125 C-72.53125 257.1328125 -72.53125 257.1328125 -75.53125 255.1328125 C-75.53125 254.4728125 -75.53125 253.8128125 -75.53125 253.1328125 C-76.583125 252.7925 -76.583125 252.7925 -77.65625 252.4453125 C-81.27253535 250.79439962 -83.61894976 248.841929 -86.53125 246.1328125 C-86.53125 245.4728125 -86.53125 244.8128125 -86.53125 244.1328125 C-87.170625 243.8646875 -87.81 243.5965625 -88.46875 243.3203125 C-90.53125 242.1328125 -90.53125 242.1328125 -91.53125 239.1328125 C-93.53141466 237.92399154 -93.53141466 237.92399154 -95.53125 237.1328125 C-95.53125 236.4728125 -95.53125 235.8128125 -95.53125 235.1328125 C-96.170625 234.8646875 -96.81 234.5965625 -97.46875 234.3203125 C-99.53125 233.1328125 -99.53125 233.1328125 -100.53125 230.1328125 C-101.19125 230.1328125 -101.85125 230.1328125 -102.53125 230.1328125 C-105.53125 225.74819712 -105.53125 225.74819712 -105.53125 223.1328125 C-106.19125 223.1328125 -106.85125 223.1328125 -107.53125 223.1328125 C-109.00390625 221.33984375 -109.00390625 221.33984375 -110.59375 218.9453125 C-111.12097656 218.16800781 -111.64820313 217.39070312 -112.19140625 216.58984375 C-113.56934267 214.06295744 -114.12357823 211.96638295 -114.53125 209.1328125 C-115.19125 209.1328125 -115.85125 209.1328125 -116.53125 209.1328125 C-117.52213927 207.11770129 -118.49843737 205.09541203 -119.46875 203.0703125 C-120.01402344 201.94496094 -120.55929687 200.81960938 -121.12109375 199.66015625 C-122.54728277 196.09270837 -123.14789169 192.94213245 -123.53125 189.1328125 C-124.19125 189.1328125 -124.85125 189.1328125 -125.53125 189.1328125 C-126.03931447 187.40599813 -126.53735467 185.67623271 -127.03125 183.9453125 C-127.3096875 182.98238281 -127.588125 182.01945313 -127.875 181.02734375 C-128.49802608 178.27935374 -128.65427812 175.93682834 -128.53125 173.1328125 C-129.19125 173.1328125 -129.85125 173.1328125 -130.53125 173.1328125 C-132.16271793 162.98723745 -132.85034116 153.13875708 -132.79199219 142.87158203 C-132.78125649 140.6341647 -132.79197226 138.3975498 -132.8046875 136.16015625 C-132.81250451 126.6546708 -132.04117542 117.52255375 -130.53125 108.1328125 C-129.87125 108.1328125 -129.21125 108.1328125 -128.53125 108.1328125 C-128.48226563 107.5759375 -128.43328125 107.0190625 -128.3828125 106.4453125 C-127.86569423 101.16713985 -126.92662537 96.24918885 -125.53125 91.1328125 C-124.87125 91.1328125 -124.21125 91.1328125 -123.53125 91.1328125 C-123.42941406 90.28460938 -123.32757813 89.43640625 -123.22265625 88.5625 C-122.45806493 84.76978149 -121.1397067 81.74193497 -119.46875 78.2578125 C-118.92089844 77.10539062 -118.37304688 75.95296875 -117.80859375 74.765625 C-117.38707031 73.89679688 -116.96554687 73.02796875 -116.53125 72.1328125 C-115.87125 72.1328125 -115.21125 72.1328125 -114.53125 72.1328125 C-114.345625 71.0190625 -114.345625 71.0190625 -114.15625 69.8828125 C-113.57004534 67.30351201 -112.89840445 65.3845963 -111.53125 63.1328125 C-110.54125 62.6378125 -110.54125 62.6378125 -109.53125 62.1328125 C-109.20125 61.4728125 -108.87125 60.8128125 -108.53125 60.1328125 C-107.53125 58.1328125 -107.53125 58.1328125 -105.53125 57.1328125 C-104.48316959 55.15758404 -103.4792089 53.15799741 -102.53125 51.1328125 C-101.87125 51.1328125 -101.21125 51.1328125 -100.53125 51.1328125 C-100.36625 50.4521875 -100.20125 49.7715625 -100.03125 49.0703125 C-98.18128301 45.44746047 -95.8130674 43.53027977 -92.69921875 40.9765625 C-90.43332147 39.10524982 -90.43332147 39.10524982 -88.15625 36.71484375 C-85.37354155 33.97768558 -82.46663597 31.65956745 -79.34375 29.3203125 C-78.29832031 28.53011719 -77.25289063 27.73992187 -76.17578125 26.92578125 C-73.53125 25.1328125 -73.53125 25.1328125 -71.53125 25.1328125 C-71.53125 24.4728125 -71.53125 23.8128125 -71.53125 23.1328125 C-64.33671255 17.74096954 -53.59348158 11.1328125 -44.53125 11.1328125 C-44.53125 10.4728125 -44.53125 9.8128125 -44.53125 9.1328125 C-43.87898438 8.93945312 -43.22671875 8.74609375 -42.5546875 8.546875 C-41.68070312 8.28648437 -40.80671875 8.02609375 -39.90625 7.7578125 C-39.04773438 7.50257813 -38.18921875 7.24734375 -37.3046875 6.984375 C-35.48452027 6.42550675 -33.68109456 5.80816176 -31.90234375 5.12890625 C-27.07827865 3.70348725 -22.2027837 3.1808001 -17.21875 2.5703125 C-15.2221823 2.32280411 -13.2260556 2.07170236 -11.23046875 1.81640625 C-9.91308716 1.65483032 -9.91308716 1.65483032 -8.5690918 1.48999023 C-0.06852749 0.00007463 -0.06852749 0.00007463 0 0 Z " fill="#00BE62" transform="translate(394.53125,347.8671875)"/>
<path d="M0 0 C20.13 0 40.26 0 61 0 C71.06029365 30.68389565 81.03745449 61.38888225 90.85232544 92.15180969 C93.51133647 100.48114998 96.18493457 108.80576788 98.86328125 117.12890625 C99.06770781 117.76426929 99.27213436 118.39963234 99.48275566 119.05424881 C101.29480529 124.6860728 103.10730939 130.31775012 104.92160034 135.94885254 C107.28895362 143.29672392 109.65027706 150.64647087 112 158 C112.24435791 158.76262146 112.48871582 159.52524292 112.74047852 160.31097412 C113.33711263 162.17840799 113.92678386 164.04806297 114.515625 165.91796875 C114.81243164 166.85793701 115.10923828 167.79790527 115.41503906 168.76635742 C116 171 116 171 116 174 C116.66 174 117.32 174 118 174 C118.32145996 172.30327148 118.32145996 172.30327148 118.64941406 170.57226562 C120.37726827 162.82946236 123.08576104 155.35487989 125.609375 147.84375 C126.17415389 146.15214392 126.73856364 144.46041456 127.30262756 142.76856995 C128.80329935 138.27152987 130.30971059 133.77643279 131.81744766 129.28175735 C133.06491173 125.56063393 134.30898142 121.83837939 135.55308628 118.11613178 C142.42530497 97.55696039 149.32501241 77.00752267 156.37866211 56.50976562 C159.26630241 48.11362293 162.10845085 39.70390546 164.90625 31.27734375 C165.3979493 29.79694359 165.3979493 29.79694359 165.89958191 28.28663635 C167.48782535 23.50136488 169.07164056 18.71467844 170.6496582 13.92602539 C171.21039771 12.23191654 171.771186 10.53782384 172.33203125 8.84375 C172.58855469 8.06067978 172.84507812 7.27760956 173.109375 6.47080994 C174.88687683 1.11312317 174.88687683 1.11312317 176 0 C177.71865409 -0.0935919 179.44115744 -0.11744611 181.16235352 -0.11352539 C182.26341934 -0.11344986 183.36448517 -0.11337433 184.49891663 -0.11329651 C185.6968132 -0.10813522 186.89470978 -0.10297394 188.12890625 -0.09765625 C189.34827377 -0.0962413 190.5676413 -0.09482635 191.82395935 -0.09336853 C195.7368307 -0.08774967 199.64964581 -0.07519396 203.5625 -0.0625 C206.20768147 -0.05748743 208.85286383 -0.0529241 211.49804688 -0.04882812 C217.99871726 -0.03777411 224.49935461 -0.02101764 231 0 C240.04403208 27.49326381 249.07975412 54.98842436 257.875 82.5625 C263.89046933 101.41393915 269.92669722 120.25852263 275.99737549 139.09225464 C276.9550347 142.06372415 277.91114795 145.03568417 278.86590576 148.00808716 C279.98798397 151.50125136 281.11297129 154.9934648 282.24024773 158.48495483 C282.65857272 159.78231187 283.07584746 161.08000804 283.49203682 162.37805176 C284.06273437 164.15732586 284.63757347 165.93527002 285.21264648 167.71313477 C285.69652077 169.21566551 285.69652077 169.21566551 286.19017029 170.74855042 C286.79779822 172.93981265 286.79779822 172.93981265 288 174 C303.23108754 128.54536207 303.23108754 128.54536207 318.1875 83 C318.57381088 81.80910263 318.57381088 81.80910263 318.96792603 80.59414673 C320.04216084 77.28210014 321.11610761 73.96996031 322.18968201 70.65769958 C326.02091638 58.84274789 329.87364866 47.03480198 333.7349329 35.22964096 C334.88505807 31.71320986 336.03407751 28.19642696 337.18026733 24.67871094 C338.45670908 20.76128171 339.73790127 16.84542243 341.01953125 12.9296875 C341.40734772 11.73721405 341.79516418 10.5447406 342.19473267 9.31613159 C342.55046356 8.23195953 342.90619446 7.14778748 343.27270508 6.03076172 C343.73898064 4.60315018 343.73898064 4.60315018 344.2146759 3.146698 C345 1 345 1 346 0 C347.7492872 -0.09365006 349.50236254 -0.11744438 351.25415039 -0.11352539 C352.37523697 -0.11344986 353.49632355 -0.11337433 354.65138245 -0.11329651 C356.48103798 -0.10555458 356.48103798 -0.10555458 358.34765625 -0.09765625 C360.2100016 -0.09553383 360.2100016 -0.09553383 362.10997009 -0.09336853 C365.41605491 -0.08870591 368.72207146 -0.07971497 372.02813721 -0.06866455 C375.3996115 -0.05844827 378.77109283 -0.05387045 382.14257812 -0.04882812 C388.76173775 -0.03777395 395.38086493 -0.02101736 402 0 C401.40608798 5.10144693 400.27004971 9.76757094 398.63012695 14.63964844 C398.2681701 15.73865006 398.2681701 15.73865006 397.89890099 16.85985374 C397.10090218 19.2782334 396.29460722 21.69376033 395.48828125 24.109375 C394.92221603 25.81971717 394.35670075 27.53024143 393.79170227 29.24093628 C392.59350498 32.86529534 391.39175172 36.48844698 390.18707275 40.11065674 C388.3009719 45.78195638 386.42285812 51.45587915 384.54638672 57.13037109 C382.69266436 62.73520298 380.83872196 68.33995965 378.98205566 73.94381714 C374.82496095 86.49194662 370.69974364 99.04986159 366.625 111.625 C360.95702905 129.09660442 355.23123687 146.54907534 349.5 164 C342.72552976 184.62752204 335.96712649 205.26005031 329.26171875 225.91015625 C328.05629051 229.62216164 326.84857539 233.33341082 325.63787842 237.04370117 C325.01762377 238.94594996 324.39964754 240.84894119 323.78173828 242.75195312 C323.24202393 244.3984082 323.24202393 244.3984082 322.69140625 246.078125 C322.38533447 247.0155957 322.0792627 247.95306641 321.76391602 248.91894531 C321 251 321 251 320 252 C318.0056827 252.09405142 316.00800457 252.11743249 314.01147461 252.11352539 C312.73022202 252.11344986 311.44896942 252.11337433 310.12889099 252.11329651 C308.72004152 252.10818909 307.31119244 252.10297309 305.90234375 252.09765625 C304.46887766 252.09579202 303.03541093 252.09436814 301.60194397 252.09336853 C297.82240043 252.08954372 294.0428951 252.07971377 290.2633667 252.06866455 C286.40930702 252.05844963 282.55524118 252.05387074 278.70117188 252.04882812 C271.13409713 252.03809146 263.56705391 252.02101549 256 252 C247.69478485 226.67376713 239.44484308 201.33190531 231.35641479 175.93554688 C224.51419205 154.46771979 217.48736478 133.06124341 210.43247795 111.66256046 C209.54096588 108.95792578 208.65041278 106.2529758 207.7599411 103.54799843 C207.1432737 101.67641759 206.52493429 99.80538793 205.90655518 97.93437195 C205.35255035 96.25200188 205.35255035 96.25200188 204.78735352 94.53564453 C204.46477066 93.55838409 204.14218781 92.58112366 203.80982971 91.57424927 C203.12370035 89.39321297 202.52232241 87.2249658 202 85 C194.30187501 107.38806681 186.70004079 129.80672064 179.22265625 152.26953125 C178.84956707 153.39023891 178.47647789 154.51094658 178.09208298 155.66561508 C175.41338888 163.71385678 172.73765964 171.76308292 170.0625 179.8125 C167.35837137 187.9488013 164.65313039 196.08472986 161.94537163 204.21982384 C160.88573584 207.40506487 159.82794572 210.59091442 158.77027893 213.77680969 C155.59157111 223.33830963 152.37860136 232.88689789 149.07202148 242.4050293 C148.62904394 243.68804664 148.62904394 243.68804664 148.17711735 244.99698353 C146.11871108 250.88128892 146.11871108 250.88128892 145 252 C143.03630847 252.0940067 141.06920801 252.11743381 139.10327148 252.11352539 C137.84203964 252.11344986 136.5808078 252.11337433 135.28135681 252.11329651 C133.89460206 252.1081891 132.50784771 252.10297309 131.12109375 252.09765625 C129.71004791 252.09579201 128.29900143 252.09436814 126.88795471 252.09336853 C123.16759465 252.08954379 119.4472734 252.0797139 115.72692871 252.06866455 C111.93319219 252.05844948 108.13944942 252.05387071 104.34570312 252.04882812 C96.89711769 252.03809158 89.44856428 252.0210157 82 252 C78.87416621 244.5076203 76.23431468 236.91012578 73.7265625 229.19140625 C73.32635391 227.96844345 72.92614532 226.74548065 72.5138092 225.48545837 C71.43685144 222.19419383 70.36392603 218.90162805 69.29177475 215.60879517 C68.1668139 212.15635196 67.03786804 208.70521212 65.90942383 205.25390625 C61.96047663 193.17177513 58.02535559 181.08514855 54.09765625 168.99609375 C53.80691223 168.10124771 53.51616821 167.20640167 53.21661377 166.28443909 C52.79107208 164.97466347 52.79107208 164.97466347 52.35693359 163.63842773 C52.08000671 162.78610565 51.80307983 161.93378357 51.51776123 161.05563354 C50.9624961 159.34646762 50.40736182 157.63725917 49.85235596 155.92800903 C45.15948132 141.48082848 40.36809597 127.06772251 35.5508728 112.66159058 C30.39483971 97.23770628 25.31457983 81.79060856 20.30029297 66.32006836 C19.7288595 64.55712296 19.15740757 62.79418354 18.5859375 61.03125 C18.30096405 60.15195328 18.0159906 59.27265656 17.72238159 58.36671448 C15.78489433 52.3964533 13.82851047 46.43261935 11.86212158 40.47181702 C10.4545932 36.20477875 9.05123009 31.93637494 7.64794922 27.66793823 C6.97034108 25.61087598 6.29067979 23.55448881 5.60888672 21.49880981 C4.66363102 18.64806137 3.72559943 15.79502873 2.7890625 12.94140625 C2.50543854 12.09247803 2.22181458 11.2435498 1.92959595 10.36889648 C1.54606461 9.19351318 1.54606461 9.19351318 1.15478516 7.99438477 C0.93053864 7.31577896 0.70629211 6.63717316 0.47525024 5.93800354 C0 4 0 4 0 0 Z " fill="#FFFFFF" transform="translate(1441,266)"/>
<path d="M0 0 C19.47 0 38.94 0 59 0 C59 32.67 59 65.34 59 99 C96.62 99 134.24 99 173 99 C173 66.33 173 33.66 173 0 C192.47 0 211.94 0 232 0 C232 83.16 232 166.32 232 252 C212.53 252 193.06 252 173 252 C173 218.01 173 184.02 173 149 C135.38 149 97.76 149 59 149 C59 182.99 59 216.98 59 252 C39.53 252 20.06 252 0 252 C0 168.84 0 85.68 0 0 Z " fill="#FFFFFF" transform="translate(3008,266)"/>
<path d="M0 0 C63.03 0 126.06 0 191 0 C191 15.51 191 31.02 191 47 C147.11 47 103.22 47 58 47 C58 64.82 58 82.64 58 101 C96.61 101 135.22 101 175 101 C175 116.18 175 131.36 175 147 C136.39 147 97.78 147 58 147 C58 166.14 58 185.28 58 205 C103.21 205 148.42 205 195 205 C195 220.51 195 236.02 195 252 C130.65 252 66.3 252 0 252 C0 168.84 0 85.68 0 0 Z " fill="#FFFFFF" transform="translate(1915,266)"/>
<path d="M0 0 C19.47 0 38.94 0 59 0 C65.98967887 15.14430423 72.94794459 30.2744735 79.6875 45.52734375 C83.49721477 54.13296778 87.34204974 62.72279829 91.1875 71.3125 C91.91496836 72.93782074 92.64242598 74.56314629 93.36987305 76.18847656 C94.84459616 79.48329407 96.31947425 82.77804215 97.79443359 86.07275391 C99.95351129 90.89584049 102.11168468 95.71933126 104.26953125 100.54296875 C104.61878662 101.32368744 104.96804199 102.10440613 105.32788086 102.90878296 C106.74001818 106.06550981 108.1521123 109.22225599 109.56414795 112.37902832 C113.07819619 120.23509563 116.59246911 128.09106005 120.11050415 135.94534302 C128.94554536 155.67040758 137.74811933 175.40958241 146.51391602 195.16552734 C150.67045847 204.53009245 154.84185008 213.8875618 159.046875 223.23046875 C159.84766561 225.01171454 160.64844707 226.79296445 161.44921875 228.57421875 C162.95292896 231.918536 164.46146952 235.26061819 165.97265625 238.6015625 C166.64340234 240.09237002 167.31398513 241.58325101 167.984375 243.07421875 C168.2926825 243.7521196 168.60098999 244.43002045 168.91864014 245.12846375 C171 249.77272433 171 249.77272433 171 252 C150.54 252 130.08 252 109 252 C101.11299309 234.91148502 94.14355134 217.41240639 87 200 C48.72 200 10.44 200 -29 200 C-34.61 213.53 -40.22 227.06 -46 241 C-47.65 244.63 -49.3 248.26 -51 252 C-71.13 252 -91.26 252 -112 252 C-103.97988504 232.52257796 -103.97988504 232.52257796 -100.79296875 225.59375 C-100.04360853 223.94857284 -99.29426007 222.30339032 -98.54492188 220.65820312 C-98.16134521 219.819104 -97.77776855 218.98000488 -97.38256836 218.11547852 C-90.46026719 202.96560876 -83.66417282 187.76503737 -77 172.5 C-70.55135911 157.73374706 -63.96938759 143.03354458 -57.30224609 128.36474609 C-51.43591568 115.45211753 -45.67686083 102.49698252 -40 89.5 C-33.03475407 73.55451407 -25.91773254 57.68259817 -18.7253418 41.83837891 C-17.94836185 40.12664717 -17.17142432 38.41489617 -16.39453125 36.703125 C-16.01916733 35.87610077 -15.64380341 35.04907654 -15.25706482 34.19699097 C-10.10215504 22.82860979 -5.05136667 11.41477663 0 0 Z M29 60 C24.8351026 67.80755432 21.51013431 75.90754854 18.23858643 84.11502075 C16.62092147 88.17187029 14.98925496 92.22305778 13.35546875 96.2734375 C13.0107251 97.12819168 12.66598145 97.98294586 12.31079102 98.86360168 C7.24861485 111.37502047 1.98253967 123.80266106 -3.2722168 136.23413086 C-4.0122171 137.99071842 -4.75220782 139.74731001 -5.4921875 141.50390625 C-6.00364571 142.70770432 -6.00364571 142.70770432 -6.5254364 143.93582153 C-6.83785782 144.67831146 -7.15027924 145.42080139 -7.47216797 146.18579102 C-7.74447235 146.82919937 -8.01677673 147.47260773 -8.29733276 148.13551331 C-9.16179785 150.32086672 -9.16179785 150.32086672 -10 154 C15.74 154 41.48 154 68 154 C66.11004363 148.3301309 64.20596531 142.80679862 61.953125 137.29296875 C61.52092148 136.22613861 61.52092148 136.22613861 61.07998657 135.13775635 C60.1396813 132.81976246 59.19504278 130.50356603 58.25 128.1875 C57.58734864 126.55804593 56.92475191 124.92856964 56.26220703 123.29907227 C49.7950154 107.4164703 43.20008514 91.58720448 36.57714844 75.76904297 C34.37787785 70.51556695 32.18847398 65.25798118 30 60 C29.67 60 29.34 60 29 60 Z " fill="#FFFFFF" transform="translate(2269,266)"/>
<path d="M0 0 C72.6 0 145.2 0 220 0 C220 15.84 220 31.68 220 48 C193.6 48 167.2 48 140 48 C140 115.32 140 182.64 140 252 C120.53 252 101.06 252 81 252 C81 184.68 81 117.36 81 48 C54.27 48 27.54 48 0 48 C0 32.16 0 16.32 0 0 Z " fill="#FFFFFF" transform="translate(2723,266)"/>
<path d="M0 0 C19.47 0 38.94 0 59 0 C59 67.32 59 134.64 59 204 C100.58 204 142.16 204 185 204 C185 219.84 185 235.68 185 252 C123.95 252 62.9 252 0 252 C0 168.84 0 85.68 0 0 Z " fill="#FFFFFF" transform="translate(2500,266)"/>
<path d="M0 0 C15 0 15 0 18.4140625 2.24609375 C19.14367188 3.29925781 19.87328125 4.35242188 20.625 5.4375 C21.26344849 6.30616699 21.26344849 6.30616699 21.91479492 7.19238281 C22.83206368 8.44538285 23.72937817 9.71319437 24.60791016 10.99365234 C26.54000452 13.77828081 28.60928832 16.44815389 30.67919922 19.13110352 C31.77691746 20.55518372 32.86830919 21.98416094 33.95361328 23.41772461 C37.84351889 28.55448287 41.87613934 33.54976815 46 38.5 C50.63782565 44.06923163 55.13112198 49.7173682 59.5 55.5 C64.49518344 62.11142923 69.68136141 68.53259567 74.97827148 74.90405273 C79.26736099 80.0747984 83.37801537 85.34781693 87.4453125 90.6953125 C90.83921235 95.12272349 94.37945964 99.43213323 97.92016602 103.74243164 C103.3878969 110.4167855 108.66402056 117.20875344 114 124 C114.33 83.08 114.66 42.16 115 0 C120.94 0 126.88 0 133 0 C133 52.14 133 104.28 133 158 C117 158 117 158 113.41796875 155.4296875 C112.24243164 153.73461914 112.24243164 153.73461914 111.1875 151.875 C110.3164976 150.57848988 109.44406054 149.28294261 108.5703125 147.98828125 C108.14782227 147.3226416 107.72533203 146.65700195 107.29003906 145.97119141 C105.24380676 142.84452986 102.90339054 139.97104298 100.5625 137.0625 C99.64603887 135.89799756 98.73068347 134.73262411 97.81640625 133.56640625 C94.39618662 129.22614155 90.93805438 124.91641715 87.48071289 120.60571289 C83.67092978 115.8510199 79.90155323 111.06595989 76.14453125 106.26953125 C72.78947697 101.99159671 69.40149511 97.74107353 66 93.5 C59.37778123 85.24113955 52.84010502 76.91712242 46.32421875 68.57421875 C40.82555956 61.54339147 35.25520619 54.57812558 29.59033203 47.68017578 C25.92470306 43.20021964 22.48089977 38.64119969 19 34 C18.67 74.92 18.34 115.84 18 158 C12.06 158 6.12 158 0 158 C0 105.86 0 53.72 0 0 Z " fill="#FFFFFF" transform="translate(2058,650)"/>
<path d="M0 0 C15 0 15 0 18.4140625 2.5 C19.56787109 4.16333008 19.56787109 4.16333008 20.625 6 C21.50209553 7.29768229 22.38243858 8.59317415 23.265625 9.88671875 C23.70712891 10.56524902 24.14863281 11.2437793 24.60351562 11.94287109 C26.96368267 15.4195787 29.68296958 18.59077195 32.375 21.8125 C36.84760239 27.26784484 41.18098581 32.81233588 45.4375 38.4375 C50.45564043 45.06722822 55.66302561 51.51044272 60.97802734 57.90380859 C65.27026578 63.07822728 69.38407236 68.3547643 73.453125 73.70703125 C76.32527154 77.45424938 79.31996505 81.09875321 82.3125 84.75 C87.3358638 90.88572234 92.21421275 97.11498977 96.98364258 103.45019531 C102.50975648 110.76158366 108.26441981 117.83052477 114 125 C114.33 83.75 114.66 42.5 115 0 C120.61 0 126.22 0 132 0 C132 52.14 132 104.28 132 158 C117 158 117 158 111.75 152.875 C110.3894043 151.11230469 110.3894043 151.11230469 109.38671875 149.546875 C106.96903797 145.90778792 104.29464765 142.53095919 101.5625 139.125 C100.63342566 137.94036086 99.70635034 136.75415133 98.78125 135.56640625 C96.0476505 132.06039261 93.30761445 128.55950499 90.5625 125.0625 C89.88586304 124.20035889 89.88586304 124.20035889 89.19555664 123.32080078 C85.32064707 118.39159204 81.40354972 113.49680898 77.48071289 108.60571289 C73.67092978 103.8510199 69.90155323 99.06595989 66.14453125 94.26953125 C62.78947697 89.99159671 59.40149511 85.74107353 56 81.5 C50.74482864 74.94604454 45.5434621 68.35159571 40.36328125 61.73828125 C38.98419601 59.97984878 37.60197149 58.22393021 36.21875 56.46875 C35.75283447 55.87715088 35.28691895 55.28555176 34.80688477 54.67602539 C33.53692439 53.0637259 32.26652758 51.4517702 30.99609375 49.83984375 C26.63428154 44.24967243 22.32316408 38.6201133 18 33 C17.67 74.25 17.34 115.5 17 158 C11.39 158 5.78 158 0 158 C0 105.86 0 53.72 0 0 Z " fill="#FFFFFF" transform="translate(2818,650)"/>
<path d="M0 0 C103.06068578 0 103.06068578 0 128.6875 24.1875 C144.24881275 40.30378111 149.45994208 60.32701373 149.36132812 82.15063477 C148.95927447 103.79047971 140.85576535 122.4445153 125.32421875 137.61328125 C91.03512477 168.19043001 42.66563511 158 0 158 C0 105.86 0 53.72 0 0 Z M17 15 C17 57.24 17 99.48 17 143 C66.87461866 146.08544876 66.87461866 146.08544876 110 128 C111.48693359 126.83984375 111.48693359 126.83984375 113.00390625 125.65625 C124.74220197 115.76744433 130.58338199 99.87448906 132 85 C133.34024868 67.289571 128.2545969 50.06070785 116.6875 36.5 C103.20889437 22.74396166 87.82465794 17.09162866 69 15 C51.84 15 34.68 15 17 15 Z " fill="#FFFFFF" transform="translate(2349,650)"/>
<path d="M0 0 C1.64742187 0.52787109 1.64742187 0.52787109 3.328125 1.06640625 C14.16342709 4.88396036 23.3351282 10.3933692 31 19 C29.52278578 22.45201639 27.56205999 24.64961936 24.875 27.25 C24.15054688 27.95640625 23.42609375 28.6628125 22.6796875 29.390625 C22.12539062 29.92171875 21.57109375 30.4528125 21 31 C17.64886201 29.04960223 14.54050539 26.945691 11.4375 24.625 C-3.9497164 13.77827368 -22.59852142 11.20581222 -40.94140625 14.1484375 C-54.42029844 16.72734882 -66.73044025 22.72832569 -76 33 C-76.52980469 33.5259375 -77.05960938 34.051875 -77.60546875 34.59375 C-89.23273692 46.70869609 -93.55803505 62.70543519 -93.41772461 79.12695312 C-92.85414904 95.87521779 -86.75073152 110.84449996 -75.11328125 123.046875 C-60.44335826 136.60502933 -42.02733189 141.87375078 -22.3984375 141.28515625 C-11.13641911 140.70027524 3.44708693 137.95525521 12 130 C12.61602495 127.57067919 12.61602495 127.57067919 12.54589844 124.79418945 C12.56561707 123.73331619 12.58533569 122.67244293 12.60565186 121.579422 C12.60688049 120.43559555 12.60810913 119.2917691 12.609375 118.11328125 C12.62591125 116.94113571 12.64244751 115.76899017 12.65948486 114.56132507 C12.70813168 110.81166431 12.7293737 107.06240957 12.75 103.3125 C12.77814558 100.77276585 12.80807099 98.23305074 12.83984375 95.69335938 C12.91389569 89.46227298 12.96336877 83.23141423 13 77 C18.61 77 24.22 77 30 77 C30.15841439 84.84969435 30.28671899 92.69850896 30.3626852 100.54936409 C30.39915408 104.19529931 30.44857982 107.84008053 30.52807617 111.48535156 C30.60437543 115.00622691 30.64603801 118.52599563 30.6641407 122.04763412 C30.68329 124.03872985 30.7379001 126.0293827 30.79307556 128.01980591 C30.79690201 136.85510304 30.79690201 136.85510304 28.52606201 140.11758423 C26.74935418 141.68132221 25.06648796 142.85454819 23 144 C22.34854004 144.38888397 21.69708008 144.77776794 21.02587891 145.17843628 C19.1775059 146.25097802 17.29973783 147.19689554 15.375 148.125 C14.67914795 148.4648291 13.9832959 148.8046582 13.26635742 149.15478516 C-10.19480551 160.31860066 -37.08561956 161.05139182 -61.45703125 152.4140625 C-78.77281281 145.50302289 -92.83324602 133.21999364 -102 117 C-102.38800781 116.33484375 -102.77601563 115.6696875 -103.17578125 114.984375 C-113.44439768 96.11232319 -114.29023425 72.09039471 -108.35546875 51.80078125 C-104.58431864 40.68443945 -98.91601747 30.67686169 -91 22 C-90.48308594 21.3915625 -89.96617187 20.783125 -89.43359375 20.15625 C-68.37359007 -3.0678142 -28.9380394 -9.53117964 0 0 Z " fill="#FFFFFF" transform="translate(3206,652)"/>
<path d="M0 0 C5.94 0 11.88 0 18 0 C18.00879936 1.89228584 18.00879936 1.89228584 18.01777649 3.82279968 C18.07516981 15.75366693 18.14801752 27.6843548 18.23571491 39.61503887 C18.28030412 45.74765884 18.31958527 51.88021413 18.34643555 58.01293945 C18.37258295 63.93937816 18.41306558 69.86556641 18.46318626 75.79184914 C18.47977791 78.04464396 18.49133985 80.29748203 18.49761391 82.55032921 C18.55331622 100.72490762 18.93253053 118.16214317 32.0546875 132.25 C42.7249208 141.84892474 57.1753977 143.64078099 70.9296875 143.140625 C83.05600202 142.31695081 93.73574177 137.95738957 102 129 C109.86790104 118.1477227 112.12460838 105.02867323 112.20532227 91.95556641 C112.21522186 90.95982605 112.22512146 89.96408569 112.23532104 88.93817139 C112.26681289 85.65932563 112.29164468 82.38046541 112.31640625 79.1015625 C112.33698641 76.82326896 112.35798316 74.54497914 112.37937927 72.26669312 C112.4344902 66.27938868 112.48394781 60.29205041 112.53222656 54.3046875 C112.58252186 48.19137573 112.63816597 42.07811291 112.69335938 35.96484375 C112.80080662 23.97660434 112.9022813 11.98832238 113 0 C118.61 0 124.22 0 130 0 C130.0931256 13.52702184 130.16397968 27.05396604 130.20724869 40.58124447 C130.22802699 46.86409352 130.25616462 53.14672149 130.30175781 59.42944336 C130.34556565 65.50491539 130.36921026 71.58017622 130.37950897 77.65579414 C130.38683809 79.96117026 130.40114798 82.26653625 130.42292023 84.57182121 C130.62516165 106.8953717 128.61411214 126.90914193 112.3671875 143.78515625 C98.28895166 156.95736701 80.18846662 160.70263648 61.37890625 160.25 C43.86709375 159.47221575 28.0923805 154.04704212 16 141 C15.52949219 140.53464844 15.05898437 140.06929687 14.57421875 139.58984375 C2.38069205 126.76616063 -0.18006994 107.76820241 -0.11352539 90.8203125 C-0.11367142 89.83403366 -0.11381744 88.84775482 -0.1139679 87.83158875 C-0.11327542 84.5960362 -0.10551432 81.36054239 -0.09765625 78.125 C-0.09578971 75.87198925 -0.09436692 73.6189781 -0.09336853 71.3659668 C-0.08956197 65.45427314 -0.07974765 59.5426043 -0.06866455 53.63092041 C-0.05841034 47.59118994 -0.05386233 41.55145543 -0.04882812 35.51171875 C-0.03812364 23.6744683 -0.02106967 11.83723622 0 0 Z " fill="#FFFFFF" transform="translate(1771,650)"/>
<path d="M0 0 C35.97 0 71.94 0 109 0 C109 4.95 109 9.9 109 15 C78.97 15 48.94 15 18 15 C18 35.13 18 55.26 18 76 C45.06 76 72.12 76 100 76 C100 80.95 100 85.9 100 91 C98.26858507 92.73141493 96.04249956 92.11977579 93.73521423 92.12442017 C92.60449242 92.11902725 92.60449242 92.11902725 91.45092773 92.11352539 C90.26564987 92.11374443 90.26564987 92.11374443 89.056427 92.1139679 C86.43212178 92.11326857 83.80788664 92.10547527 81.18359375 92.09765625 C79.36898335 92.09579214 77.55437244 92.0943682 75.73976135 92.09336853 C70.9540977 92.08954279 66.1684642 92.07971204 61.3828125 92.06866455 C55.64596429 92.0566573 49.90910601 92.05204846 44.17224884 92.04621124 C35.4481449 92.03650031 26.72410716 92.01734415 18 92 C18 113.78 18 135.56 18 158 C12.06 158 6.12 158 0 158 C0 105.86 0 53.72 0 0 Z " fill="#FFFFFF" transform="translate(1522,650)"/>
<path d="M0 0 C5.94 0 11.88 0 18 0 C18 52.14 18 104.28 18 158 C12.06 158 6.12 158 0 158 C0 105.86 0 53.72 0 0 Z " fill="#FFFFFF" transform="translate(2642,650)"/>
</svg>
