<svg width="23" height="26" viewBox="0 0 23 26" fill="none" xmlns="http://www.w3.org/2000/svg">
<g clip-path="url(#clip0_87_8352)">
<path d="M16.5181 16.7951L13.0655 13.3359L1.64062 24.9386C1.74984 24.8974 1.8557 24.8478 1.95727 24.7902L16.5181 16.7951Z" fill="white"/>
<path d="M0.00850522 2.14031C0.0144238 3.55563 0.107148 22.4239 0.116026 23.6136C0.0902982 23.8613 0.125802 24.1115 0.219399 24.3422C0.312996 24.5727 0.4618 24.7767 0.652648 24.9359L12.5668 12.8374L0.600367 0.84375C0.393848 0.985741 0.229684 1.18139 0.125431 1.40977C0.0211803 1.63814 -0.0192362 1.89066 0.00850522 2.14031Z" fill="white"/>
<path d="M17.159 9.17969L13.5615 12.8328L17.1629 16.4404L22.1129 13.7216C22.7048 13.3939 23.3341 12.5586 22.1129 11.8906L17.159 9.17969Z" fill="white"/>
<path d="M1.95723 0.858566C1.79912 0.774519 1.62689 0.720497 1.44922 0.699219L13.0626 12.3335L16.5151 8.82791L1.95723 0.858566Z" fill="white"/>
</g>
<defs>
<clipPath id="clip0_87_8352">
<rect width="23" height="25" fill="white" transform="translate(0 0.699219)"/>
</clipPath>
</defs>
</svg>
