<svg width="17" height="19" viewBox="0 0 17 19" fill="none" xmlns="http://www.w3.org/2000/svg">
<path fill-rule="evenodd" clip-rule="evenodd" d="M10.4249 0.065884C10.7512 0.151864 11.0244 0.374449 11.1764 0.677147C11.7453 1.81609 12.1705 2.5075 12.598 3.06814C13.0314 3.63584 13.4884 4.09988 14.1857 4.79596C15.7946 6.40603 16.6002 8.51786 16.6002 10.6261C16.6002 12.7344 15.7946 14.8463 14.1857 16.4563C10.9655 19.6753 5.74549 19.6753 2.52536 16.4563C0.916466 14.8463 0.11084 12.7344 0.11084 10.6261C0.11084 8.51786 0.916466 6.40603 2.52536 4.79596C2.86221 4.45911 3.36867 4.35899 3.80917 4.54155C4.24967 4.72294 4.53588 5.15288 4.53588 5.62871C4.53588 6.94786 4.61832 7.95253 5.00465 8.75462C5.21665 9.19512 5.54762 9.62622 6.11769 10.0114C6.25431 8.7617 6.50401 7.23877 6.84086 5.79478C7.10587 4.65701 7.43564 3.52159 7.82903 2.57463C8.02573 2.09997 8.24834 1.65001 8.50039 1.26016C8.74538 0.880903 9.06104 0.495824 9.46856 0.22375C9.75006 0.0364779 10.0987 -0.021274 10.4249 0.065884ZM10.8537 15.4799C9.47444 16.8603 7.2366 16.8603 5.85738 15.4799C5.16718 14.7909 4.82209 13.8863 4.82209 12.9818C4.82209 12.9818 5.85738 13.5707 7.76661 13.5707C7.76661 12.3929 8.35552 8.85943 9.23888 8.27052C9.82778 9.44833 10.1646 9.79347 10.8537 10.4837C11.5439 11.1727 11.889 12.0772 11.889 12.9818C11.889 13.8863 11.5439 14.7909 10.8537 15.4799Z" fill="#FF8F1F"/>
</svg>
