<svg width="22" height="22" viewBox="0 0 22 22" fill="none" xmlns="http://www.w3.org/2000/svg">
<path fillRule="evenodd" clipRule="evenodd" d="M19.8002 11.0002C19.8002 15.8603 15.8603 19.8002 11.0002 19.8002C6.14009 19.8002 2.2002 15.8603 2.2002 11.0002C2.2002 6.14009 6.14009 2.2002 11.0002 2.2002C15.8603 2.2002 19.8002 6.14009 19.8002 11.0002ZM11.0002 7.70019C10.5944 7.70019 10.2386 7.91933 10.0467 8.25099C9.7425 8.77686 9.0696 8.95656 8.54373 8.65236C8.01787 8.34816 7.83817 7.67526 8.14236 7.1494C8.71129 6.16589 9.77736 5.5002 11.0002 5.5002C12.8227 5.5002 14.3002 6.97766 14.3002 8.80019C14.3002 10.237 13.3819 11.4594 12.1002 11.9124V12.1002C12.1002 12.7077 11.6077 13.2002 11.0002 13.2002C10.3927 13.2002 9.90021 12.7077 9.90021 12.1002V11.0002C9.90021 10.3927 10.3927 9.90019 11.0002 9.90019C11.6077 9.90019 12.1002 9.40771 12.1002 8.80019C12.1002 8.19268 11.6077 7.70019 11.0002 7.70019ZM11.0002 16.5002C11.6077 16.5002 12.1002 16.0077 12.1002 15.4002C12.1002 14.7927 11.6077 14.3002 11.0002 14.3002C10.3927 14.3002 9.90019 14.7927 9.90019 15.4002C9.90019 16.0077 10.3927 16.5002 11.0002 16.5002Z" fill="white"/>
</svg>
