<svg width="34" height="30" viewBox="0 0 34 30" fill="none" xmlns="http://www.w3.org/2000/svg">
<path fill-rule="evenodd" clip-rule="evenodd" d="M27.3495 29.6356C30.5252 29.6356 33.0996 27.0612 33.0996 23.8856V6.113C33.0996 2.93733 30.5252 0.36294 27.3495 0.36294L6.64972 0.36294C3.47405 0.36294 0.899658 2.93732 0.899658 6.113V23.8856C0.899658 27.0612 3.47405 29.6356 6.64972 29.6356L27.3495 29.6356ZM15.8002 26.7078C17.9173 26.7078 19.6335 24.9915 19.6335 22.8744L19.6335 7.12299C19.6335 5.00588 17.9173 3.28962 15.8002 3.28962H7.95239C5.83528 3.28962 4.11902 5.00588 4.11902 7.12299L4.11902 22.8744C4.11902 24.9915 5.83528 26.7078 7.95239 26.7078H15.8002Z" fill="#676E85"/>
</svg>
