<svg width="34" height="30" viewBox="0 0 34 30" fill="none" xmlns="http://www.w3.org/2000/svg">
<path fill-rule="evenodd" clip-rule="evenodd" d="M6.65045 0.364258C3.47478 0.364258 0.900391 2.93864 0.900391 6.11431V23.8869C0.900391 27.0625 3.47478 29.6369 6.65045 29.6369H27.3503C30.526 29.6369 33.1003 27.0626 33.1003 23.8869V6.11432C33.1003 2.93865 30.526 0.364258 27.3503 0.364258H6.65045ZM18.1998 3.29211C16.0827 3.29211 14.3665 5.00837 14.3665 7.12549V22.8769C14.3665 24.994 16.0827 26.7103 18.1998 26.7103H26.0476C28.1647 26.7103 29.881 24.994 29.881 22.8769V7.12549C29.881 5.00837 28.1647 3.29211 26.0476 3.29211H18.1998Z" fill="#676E85"/>
</svg>
