<svg width="13" height="24" viewBox="0 0 13 24" fill="none" xmlns="http://www.w3.org/2000/svg">
<path d="M5.084 20.662C3.836 20.5753 2.822 20.4107 2.042 20.168C1.27933 19.908 0.707333 19.674 0.326 19.466L1.21 16.996C1.76467 17.2733 2.432 17.5247 3.212 17.75C4.00933 17.9753 4.91067 18.088 5.916 18.088C7.112 18.088 7.93533 17.9147 8.386 17.568C8.854 17.204 9.088 16.7273 9.088 16.138C9.088 15.7393 8.99267 15.3927 8.802 15.098C8.61133 14.8033 8.34267 14.5433 7.996 14.318C7.64933 14.0927 7.23333 13.8847 6.748 13.694C6.28 13.5033 5.76 13.304 5.188 13.096C4.65067 12.9053 4.11333 12.6887 3.576 12.446C3.056 12.2033 2.57933 11.9087 2.146 11.562C1.73 11.198 1.392 10.7647 1.132 10.262C0.872 9.75933 0.742 9.144 0.742 8.416C0.742 7.22 1.09733 6.206 1.808 5.374C2.51867 4.52467 3.61067 3.97867 5.084 3.736V0.823999H7.788V3.632C8.62 3.70133 9.36533 3.82267 10.024 3.996C10.6827 4.152 11.2027 4.308 11.584 4.464L10.934 7.038C10.4313 6.84733 9.83333 6.66533 9.14 6.492C8.464 6.31867 7.684 6.232 6.8 6.232C5.864 6.232 5.162 6.40533 4.694 6.752C4.226 7.08133 3.992 7.54067 3.992 8.13C3.992 8.47667 4.06133 8.77133 4.2 9.014C4.33867 9.23933 4.54667 9.44733 4.824 9.638C5.10133 9.81133 5.43933 9.98467 5.838 10.158C6.23667 10.314 6.68733 10.4787 7.19 10.652C7.90067 10.9293 8.568 11.224 9.192 11.536C9.83333 11.8307 10.388 12.186 10.856 12.602C11.324 13.0007 11.688 13.4773 11.948 14.032C12.2253 14.5867 12.364 15.2453 12.364 16.008C12.364 17.152 12.0087 18.14 11.298 18.972C10.5873 19.804 9.41733 20.3413 7.788 20.584V23.834H5.084V20.662Z" fill="#00BE64"/>
</svg>
