<svg width="24" height="24" viewBox="0 0 24 24" fill="none" xmlns="http://www.w3.org/2000/svg">
<path d="M11.9392 2.20983L9.52922 7.81983H7.11922C6.71922 7.81983 6.32922 7.84983 5.94922 7.92983L6.94922 5.52983L6.98922 5.43983L7.04922 5.27983C7.07922 5.20983 7.09922 5.14983 7.12922 5.09983C8.28922 2.40983 9.58922 1.56983 11.9392 2.20983Z" fill="#34C759"/>
<path d="M18.7291 8.08953L18.7091 8.07953C18.1091 7.90953 17.4991 7.81953 16.8791 7.81953H10.6191L12.8691 2.58953L12.8991 2.51953C13.0391 2.56953 13.1891 2.63953 13.3391 2.68953L15.5491 3.61953C16.7791 4.12953 17.6391 4.65953 18.1691 5.29953C18.2591 5.41953 18.3391 5.52953 18.4191 5.65953C18.5091 5.79953 18.5791 5.93953 18.6191 6.08953C18.6591 6.17953 18.6891 6.25953 18.7091 6.34953C18.8591 6.85953 18.8691 7.43953 18.7291 8.08953Z" fill="#34C759"/>
<path d="M12.5195 17.6601H12.7695C13.0695 17.6601 13.3195 17.3901 13.3195 17.0601C13.3195 16.6401 13.1995 16.5801 12.9395 16.4801L12.5195 16.3301V17.6601Z" fill="#F0F1F5"/>
<path d="M18.2902 9.52031C17.8402 9.39031 17.3702 9.32031 16.8802 9.32031H7.12023C6.44023 9.32031 5.80023 9.45031 5.20023 9.71031C3.46023 10.4603 2.24023 12.1903 2.24023 14.2003V16.1503C2.24023 16.3903 2.26023 16.6203 2.29023 16.8603C2.51023 20.0403 4.21023 21.7403 7.39023 21.9503C7.62023 21.9803 7.85023 22.0003 8.10023 22.0003H15.9002C19.6002 22.0003 21.5502 20.2403 21.7402 16.7403C21.7502 16.5503 21.7602 16.3503 21.7602 16.1503V14.2003C21.7602 11.9903 20.2902 10.1303 18.2902 9.52031ZM13.2802 15.5003C13.7402 15.6603 14.3602 16.0003 14.3602 17.0603C14.3602 17.9703 13.6502 18.7003 12.7702 18.7003H12.5202V18.9203C12.5202 19.2103 12.2902 19.4403 12.0002 19.4403C11.7102 19.4403 11.4802 19.2103 11.4802 18.9203V18.7003H11.3902C10.4302 18.7003 9.64023 17.8903 9.64023 16.8903C9.64023 16.6003 9.87023 16.3703 10.1602 16.3703C10.4502 16.3703 10.6802 16.6003 10.6802 16.8903C10.6802 17.3103 11.0002 17.6603 11.3902 17.6603H11.4802V15.9703L10.7202 15.7003C10.2602 15.5403 9.64023 15.2003 9.64023 14.1403C9.64023 13.2303 10.3502 12.5003 11.2302 12.5003H11.4802V12.2803C11.4802 11.9903 11.7102 11.7603 12.0002 11.7603C12.2902 11.7603 12.5202 11.9903 12.5202 12.2803V12.5003H12.6102C13.5702 12.5003 14.3602 13.3103 14.3602 14.3103C14.3602 14.6003 14.1302 14.8303 13.8402 14.8303C13.5502 14.8303 13.3202 14.6003 13.3202 14.3103C13.3202 13.8903 13.0002 13.5403 12.6102 13.5403H12.5202V15.2303L13.2802 15.5003Z" fill="#34C759"/>
<path d="M10.6797 14.14C10.6797 14.56 10.7997 14.62 11.0597 14.72L11.4797 14.87V13.54H11.2297C10.9197 13.54 10.6797 13.81 10.6797 14.14Z" fill="#F0F1F5"/>
</svg>
