<svg width="24" height="24" viewBox="0 0 24 24" fill="none" xmlns="http://www.w3.org/2000/svg">
<path d="M21.5609 10.7396L20.2009 9.15957C19.9409 8.85957 19.7309 8.29957 19.7309 7.89957V6.19957C19.7309 5.13957 18.8609 4.26957 17.8009 4.26957H16.1009C15.7109 4.26957 15.1409 4.05957 14.8409 3.79957L13.2609 2.43957C12.5709 1.84957 11.4409 1.84957 10.7409 2.43957L9.17086 3.80957C8.87086 4.05957 8.30086 4.26957 7.91086 4.26957H6.18086C5.12086 4.26957 4.25086 5.13957 4.25086 6.19957V7.90957C4.25086 8.29957 4.04086 8.85957 3.79086 9.15957L2.44086 10.7496C1.86086 11.4396 1.86086 12.5596 2.44086 13.2496L3.79086 14.8396C4.04086 15.1396 4.25086 15.6996 4.25086 16.0896V17.7996C4.25086 18.8596 5.12086 19.7296 6.18086 19.7296H7.91086C8.30086 19.7296 8.87086 19.9396 9.17086 20.1996L10.7509 21.5596C11.4409 22.1496 12.5709 22.1496 13.2709 21.5596L14.8509 20.1996C15.1509 19.9396 15.7109 19.7296 16.1109 19.7296H17.8109C18.8709 19.7296 19.7409 18.8596 19.7409 17.7996V16.0996C19.7409 15.7096 19.9509 15.1396 20.2109 14.8396L21.5709 13.2596C22.1509 12.5696 22.1509 11.4296 21.5609 10.7396ZM16.1609 10.1096L11.3309 14.9396C11.1909 15.0796 11.0009 15.1596 10.8009 15.1596C10.6009 15.1596 10.4109 15.0796 10.2709 14.9396L7.85086 12.5196C7.56086 12.2296 7.56086 11.7496 7.85086 11.4596C8.14086 11.1696 8.62086 11.1696 8.91086 11.4596L10.8009 13.3496L15.1009 9.04957C15.3909 8.75957 15.8709 8.75957 16.1609 9.04957C16.4509 9.33957 16.4509 9.81957 16.1609 10.1096Z" fill="#34C759"/>
</svg>
