<svg width="50" height="50" viewBox="0 0 50 50" fill="#FF8F1F" xmlns="http://www.w3.org/2000/svg">
<path d="M28.125 35.1562C28.125 35.7743 27.9417 36.3785 27.5984 36.8924C27.255 37.4063 26.7669 37.8069 26.1959 38.0434C25.6249 38.2799 24.9965 38.3418 24.3904 38.2212C23.7842 38.1006 23.2273 37.803 22.7903 37.366C22.3533 36.9289 22.0556 36.3721 21.9351 35.7659C21.8145 35.1597 21.8764 34.5314 22.1129 33.9604C22.3494 33.3893 22.7499 32.9013 23.2639 32.5579C23.7778 32.2145 24.3819 32.0312 25 32.0312C25.8288 32.0312 26.6237 32.3605 27.2097 32.9465C27.7958 33.5326 28.125 34.3274 28.125 35.1562ZM46.0938 25C46.0938 29.1719 44.8566 33.2502 42.5388 36.7191C40.221 40.1879 36.9266 42.8915 33.0722 44.4881C29.2179 46.0846 24.9766 46.5023 20.8848 45.6884C16.793 44.8745 13.0345 42.8655 10.0845 39.9155C7.13446 36.9655 5.12548 33.207 4.31157 29.1152C3.49766 25.0234 3.91539 20.7822 5.51193 16.9278C7.10846 13.0734 9.8121 9.779 13.2809 7.46119C16.7498 5.14338 20.8281 3.90625 25 3.90625C30.5925 3.91245 35.9542 6.13682 39.9087 10.0913C43.8632 14.0458 46.0876 19.4075 46.0938 25ZM41.4063 25C41.4063 21.7551 40.444 18.5832 38.6413 15.8852C36.8386 13.1872 34.2763 11.0844 31.2784 9.8426C28.2806 8.60085 24.9818 8.27595 21.7993 8.90899C18.6168 9.54203 15.6935 11.1046 13.399 13.399C11.1046 15.6935 9.54204 18.6168 8.909 21.7993C8.27596 24.9818 8.60086 28.2805 9.84261 31.2784C11.0844 34.2762 13.1872 36.8386 15.8852 38.6413C18.5832 40.444 21.7552 41.4062 25 41.4062C29.3498 41.4016 33.5201 39.6716 36.5958 36.5958C39.6716 33.5201 41.4016 29.3498 41.4063 25ZM25 12.5C20.2617 12.5 16.4063 16.0039 16.4063 20.3125V21.0938C16.4063 21.7154 16.6532 22.3115 17.0927 22.751C17.5323 23.1906 18.1284 23.4375 18.75 23.4375C19.3716 23.4375 19.9678 23.1906 20.4073 22.751C20.8468 22.3115 21.0938 21.7154 21.0938 21.0938V20.3125C21.0938 18.5898 22.8516 17.1875 25 17.1875C27.1484 17.1875 28.9063 18.5898 28.9063 20.3125C28.9063 22.0352 27.1484 23.4375 25 23.4375C24.3784 23.4375 23.7823 23.6844 23.3427 24.124C22.9032 24.5635 22.6563 25.1596 22.6563 25.7812V27.3438C22.6549 27.9228 22.8679 28.4819 23.2542 28.9132C23.6406 29.3445 24.1729 29.6175 24.7486 29.6796C25.3243 29.7417 25.9026 29.5885 26.3721 29.2495C26.8415 28.9105 27.1689 28.4098 27.291 27.8438C30.9199 26.9297 33.5938 23.9004 33.5938 20.3125C33.5938 16.0039 29.7383 12.5 25 12.5Z" fill="#FF8F1F"/>
</svg>
