<svg width="24" height="24" viewBox="0 0 24 24" fill="none" xmlns="http://www.w3.org/2000/svg">
<path d="M21.5299 10.8699L20.0099 9.34988C19.7499 9.08988 19.5399 8.57988 19.5399 8.21988V6.05988C19.5399 5.17988 18.8199 4.45988 17.9399 4.45988H15.7899C15.4299 4.45988 14.9199 4.24988 14.6599 3.98988L13.1399 2.46988C12.5199 1.84988 11.4999 1.84988 10.8799 2.46988L9.33988 3.98988C9.08988 4.24988 8.57988 4.45988 8.20988 4.45988H6.05988C5.17988 4.45988 4.45988 5.17988 4.45988 6.05988V8.20988C4.45988 8.56988 4.24988 9.07988 3.98988 9.33988L2.46988 10.8599C1.84988 11.4799 1.84988 12.4999 2.46988 13.1199L3.98988 14.6399C4.24988 14.8999 4.45988 15.4099 4.45988 15.7699V17.9199C4.45988 18.7999 5.17988 19.5199 6.05988 19.5199H8.20988C8.56988 19.5199 9.07988 19.7299 9.33988 19.9899L10.8599 21.5099C11.4799 22.1299 12.4999 22.1299 13.1199 21.5099L14.6399 19.9899C14.8999 19.7299 15.4099 19.5199 15.7699 19.5199H17.9199C18.7999 19.5199 19.5199 18.7999 19.5199 17.9199V15.7699C19.5199 15.4099 19.7299 14.8999 19.9899 14.6399L21.5099 13.1199C22.1599 12.5099 22.1599 11.4899 21.5299 10.8699Z" fill="#00BE64"/>
<path d="M12.0007 8C10.8842 8 9.97656 8.90767 9.97656 10.0241C9.97656 11.1193 10.8331 12.0057 11.9496 12.044C11.9837 12.0398 12.0178 12.0398 12.0433 12.044C12.0518 12.044 12.0561 12.044 12.0646 12.044C12.0689 12.044 12.0689 12.044 12.0732 12.044C13.1641 12.0057 14.0206 11.1193 14.0249 10.0241C14.0249 8.90767 13.1172 8 12.0007 8Z" fill="#303343"/>
<path d="M14.1638 13.3884C12.9749 12.5958 11.036 12.5958 9.83851 13.3884C9.29732 13.7506 8.99902 14.2407 8.99902 14.7648C8.99902 15.289 9.29732 15.7748 9.83425 16.1327C10.4308 16.5333 11.2149 16.7336 11.999 16.7336C12.7831 16.7336 13.5672 16.5333 14.1638 16.1327C14.7007 15.7705 14.999 15.2847 14.999 14.7563C14.9948 14.2322 14.7007 13.7464 14.1638 13.3884Z" fill="#303343"/>
</svg>
