<svg width="25" height="24" viewBox="0 0 25 24" fill="none" xmlns="http://www.w3.org/2000/svg">
<path d="M17.6743 7.77C17.6043 7.76 17.5343 7.76 17.4643 7.77C15.9143 7.72 14.6843 6.45 14.6843 4.89C14.6843 3.3 15.9743 2 17.5743 2C19.1643 2 20.4643 3.29 20.4643 4.89C20.4543 6.45 19.2243 7.72 17.6743 7.77Z" fill="#FF8F1F"/>
<path d="M20.9344 14.7004C19.8144 15.4504 18.2444 15.7304 16.7944 15.5404C17.1744 14.7204 17.3744 13.8104 17.3844 12.8504C17.3844 11.8504 17.1644 10.9004 16.7444 10.0704C18.2244 9.8704 19.7944 10.1504 20.9244 10.9004C22.5044 11.9404 22.5044 13.6504 20.9344 14.7004Z" fill="#FF8F1F"/>
<path d="M6.5842 7.77C6.6542 7.76 6.7242 7.76 6.7942 7.77C8.3442 7.72 9.5742 6.45 9.5742 4.89C9.5742 3.29 8.2842 2 6.6842 2C5.0942 2 3.8042 3.29 3.8042 4.89C3.8042 6.45 5.0342 7.72 6.5842 7.77Z" fill="#FF8F1F"/>
<path d="M6.6944 12.8506C6.6944 13.8206 6.9044 14.7406 7.2844 15.5706C5.8744 15.7206 4.4044 15.4206 3.3244 14.7106C1.7444 13.6606 1.7444 11.9506 3.3244 10.9006C4.3944 10.1806 5.9044 9.89059 7.3244 10.0506C6.9144 10.8906 6.6944 11.8406 6.6944 12.8506Z" fill="#FF8F1F"/>
<path d="M12.2643 15.87C12.1843 15.86 12.0943 15.86 12.0043 15.87C10.1643 15.81 8.69434 14.3 8.69434 12.44C8.70434 10.54 10.2343 9 12.1443 9C14.0443 9 15.5843 10.54 15.5843 12.44C15.5743 14.3 14.1143 15.81 12.2643 15.87Z" fill="#FF8F1F"/>
<path d="M9.01434 17.9406C7.50434 18.9506 7.50434 20.6106 9.01434 21.6106C10.7343 22.7606 13.5543 22.7606 15.2743 21.6106C16.7843 20.6006 16.7843 18.9406 15.2743 17.9406C13.5643 16.7906 10.7443 16.7906 9.01434 17.9406Z" fill="#FF8F1F"/>
</svg>
