<svg width="16" height="16" viewBox="0 0 16 16" fill="none" xmlns="http://www.w3.org/2000/svg">
<path d="M1.33301 5.99967C1.33301 4.74234 1.33301 4.11434 1.72367 3.72367C2.11434 3.33301 2.74234 3.33301 3.99967 3.33301H11.9997C13.257 3.33301 13.885 3.33301 14.2757 3.72367C14.6663 4.11434 14.6663 4.74234 14.6663 5.99967C14.6663 6.31367 14.6663 6.47101 14.569 6.56901C14.471 6.66634 14.313 6.66634 13.9997 6.66634H1.99967C1.68567 6.66634 1.52834 6.66634 1.43034 6.56901C1.33301 6.47101 1.33301 6.31301 1.33301 5.99967ZM1.33301 11.9997C1.33301 13.257 1.33301 13.885 1.72367 14.2757C2.11434 14.6663 2.74234 14.6663 3.99967 14.6663H11.9997C13.257 14.6663 13.885 14.6663 14.2757 14.2757C14.6663 13.885 14.6663 13.257 14.6663 11.9997V8.66634C14.6663 8.35234 14.6663 8.19501 14.569 8.09701C14.471 7.99967 14.313 7.99967 13.9997 7.99967H1.99967C1.68567 7.99967 1.52834 7.99967 1.43034 8.09701C1.33301 8.19501 1.33301 8.35301 1.33301 8.66634V11.9997Z" fill="#FF8F1F"/>
<path d="M4.66602 2V4M11.3327 2V4" stroke="#FF8F1F" strokeWidth="2" strokeLinecap="round"/>
</svg>
