<svg width="11" height="11" viewBox="0 0 11 11" fill="none" xmlns="http://www.w3.org/2000/svg">
<path d="M3.86719 1.97656H3.78125C3.82852 1.97656 3.86719 1.93789 3.86719 1.89062V1.97656H7.13281V1.89062C7.13281 1.93789 7.17148 1.97656 7.21875 1.97656H7.13281V2.75H7.90625V1.89062C7.90625 1.51143 7.59795 1.20312 7.21875 1.20312H3.78125C3.40205 1.20312 3.09375 1.51143 3.09375 1.89062V2.75H3.86719V1.97656ZM9.28125 2.75H1.71875C1.52861 2.75 1.375 2.90361 1.375 3.09375V3.4375C1.375 3.48477 1.41367 3.52344 1.46094 3.52344H2.10977L2.3751 9.1416C2.39229 9.50791 2.69521 9.79688 3.06152 9.79688H7.93848C8.30586 9.79688 8.60772 9.50898 8.6249 9.1416L8.89023 3.52344H9.53906C9.58633 3.52344 9.625 3.48477 9.625 3.4375V3.09375C9.625 2.90361 9.47139 2.75 9.28125 2.75ZM7.85576 9.02344H3.14424L2.88428 3.52344H8.11572L7.85576 9.02344Z" fill="#FF8F1F"/>
</svg>
