<svg width="154" height="156" viewBox="0 0 154 156" fill="none" xmlns="http://www.w3.org/2000/svg">
<g filter="url(#filter0_d_569_10272)">
<path d="M60.2737 68.1381L69.0695 47.5562L77.8654 68.1381H60.2737Z" fill="#A4DCEC"/>
<path d="M77.8654 68.1381L69.0695 88.7199L60.2737 68.1381H77.8654Z" fill="#2778A0"/>
<path d="M86.6613 57.421L77.8654 68.1381L69.0696 47.5562L86.6613 57.421Z" fill="#2778A0"/>
<path d="M69.0694 47.5562L60.2735 68.1381L51.4795 57.421L69.0694 47.5562Z" fill="#2778A0"/>
<path d="M51.4792 78.8551L60.2733 68.1381L69.0691 88.7199L51.4792 78.8551Z" fill="#A4DCEC"/>
<path d="M86.6613 78.8551L77.8654 68.1381L69.0696 88.7199L86.6613 78.8551Z" fill="#A4DCEC"/>
<path d="M51.4792 57.4211V78.8551L60.2733 68.1381L51.4792 57.4211Z" fill="#134056"/>
<path d="M86.6611 57.4211L77.8652 68.1381L86.6611 78.8551V57.4211Z" fill="#134056"/>
</g>
<defs>
<filter id="filter0_d_569_10272" x="0.833353" y="-3.08965" width="152.963" height="158.945" filterUnits="userSpaceOnUse" color-interpolation-filters="sRGB">
<feFlood flood-opacity="0" result="BackgroundImageFix"/>
<feColorMatrix in="SourceAlpha" type="matrix" values="0 0 0 0 0 0 0 0 0 0 0 0 0 0 0 0 0 0 127 0" result="hardAlpha"/>
<feOffset dx="8.24468" dy="8.24468"/>
<feGaussianBlur stdDeviation="29.4453"/>
<feColorMatrix type="matrix" values="0 0 0 0 0.490196 0 0 0 0 0 0 0 0 0 0 0 0 0 0.15 0"/>
<feBlend mode="normal" in2="BackgroundImageFix" result="effect1_dropShadow_569_10272"/>
<feBlend mode="normal" in="SourceGraphic" in2="effect1_dropShadow_569_10272" result="shape"/>
</filter>
</defs>
</svg>
