<svg width="52" height="52" viewBox="0 0 52 52" fill="none" xmlns="http://www.w3.org/2000/svg">
<path d="M26 3.25C13.4367 3.25 3.25 13.4367 3.25 26C3.25 38.5633 13.4367 48.75 26 48.75C38.5633 48.75 48.75 38.5633 48.75 26C48.75 13.4367 38.5633 3.25 26 3.25ZM26 44.8906C15.5695 44.8906 7.10938 36.4305 7.10938 26C7.10938 15.5695 15.5695 7.10938 26 7.10938C36.4305 7.10938 44.8906 15.5695 44.8906 26C44.8906 36.4305 36.4305 44.8906 26 44.8906ZM28.4223 24.8219L27.1324 24.5223V17.7023C29.0621 17.9664 30.2555 19.175 30.4586 20.6578C30.484 20.8609 30.6566 21.0082 30.8598 21.0082H33.1398C33.3785 21.0082 33.5664 20.8 33.5461 20.5613C33.2363 17.3977 30.6313 15.3664 27.1527 15.016V13.3555C27.1527 13.132 26.9699 12.9492 26.7465 12.9492H25.3195C25.0961 12.9492 24.9133 13.132 24.9133 13.3555V15.0312C21.318 15.3816 18.5047 17.3672 18.5047 21.0742C18.5047 24.507 21.0336 26.1625 23.6895 26.7973L24.9438 27.1172V34.3637C22.6992 34.0641 21.4398 32.8656 21.1809 31.2508C21.1504 31.0578 20.9777 30.9156 20.7797 30.9156H18.4336C18.1949 30.9156 18.007 31.1187 18.0273 31.3574C18.2559 34.1504 20.3734 36.7199 24.893 37.05V38.6445C24.893 38.868 25.0758 39.0508 25.2992 39.0508H26.7414C26.9648 39.0508 27.1477 38.868 27.1477 38.6395L27.1375 37.0297C31.1137 36.6793 33.9574 34.5516 33.9574 30.7328C33.9523 27.2086 31.7129 25.6344 28.4223 24.8219ZM24.9387 23.9992C24.6543 23.918 24.4156 23.8418 24.177 23.7453C22.4605 23.1258 21.6633 22.1254 21.6633 20.8355C21.6633 18.9922 23.0598 17.941 24.9387 17.7023V23.9992ZM27.1324 34.3789V27.5895C27.2898 27.6352 27.432 27.6707 27.5793 27.7012C29.9812 28.4324 30.7887 29.448 30.7887 31.007C30.7887 32.9926 29.2957 34.1859 27.1324 34.3789Z" fill="#D6C3F8"/>
</svg>
