<svg width="32" height="32" viewBox="0 0 32 32" fill="none" xmlns="http://www.w3.org/2000/svg">
<circle cx="16" cy="16" r="16" fill="#F5F5F5"/>
<path d="M16.6376 10.2607C16.8001 10.2609 16.9564 10.3232 17.0746 10.4347C17.1928 10.5463 17.2639 10.6988 17.2734 10.8611C17.283 11.0233 17.2302 11.1831 17.1258 11.3077C17.0215 11.4323 16.8736 11.5124 16.7122 11.5316L16.6376 11.5361H11.5361V20.4636H20.4636V15.3622C20.4638 15.1997 20.5261 15.0433 20.6376 14.9251C20.7492 14.807 20.9017 14.7358 21.064 14.7263C21.2262 14.7168 21.386 14.7696 21.5106 14.8739C21.6352 14.9782 21.7153 15.1262 21.7345 15.2876L21.739 15.3622V20.4636C21.7391 20.7854 21.6176 21.0953 21.3988 21.3312C21.18 21.5672 20.8801 21.7117 20.5593 21.7358L20.4636 21.739H11.5361C11.2143 21.7391 10.9044 21.6176 10.6685 21.3988C10.4326 21.18 10.2881 20.8801 10.2639 20.5593L10.2607 20.4636V11.5361C10.2606 11.2143 10.3822 10.9044 10.6009 10.6685C10.8197 10.4326 11.1196 10.2881 11.4405 10.2639L11.5361 10.2607H16.6376ZM20.6186 10.4795C20.7334 10.3651 20.8873 10.2987 21.0493 10.2938C21.2112 10.2888 21.369 10.3457 21.4905 10.4528C21.612 10.56 21.6882 10.7094 21.7035 10.8707C21.7189 11.032 21.6723 11.193 21.5732 11.3212L21.5203 11.3818L15.2072 17.6942C15.0925 17.8086 14.9385 17.875 14.7766 17.8799C14.6146 17.8848 14.4569 17.828 14.3353 17.7208C14.2138 17.6137 14.1376 17.4643 14.1223 17.303C14.1069 17.1417 14.1535 16.9806 14.2526 16.8525L14.3056 16.7925L20.6186 10.4795Z" fill="#FF8F1F"/>
</svg>
