<svg width="23" height="23" viewBox="0 0 23 23" fill="none" xmlns="http://www.w3.org/2000/svg">
<circle cx="11.5" cy="11.5" r="11.5" fill="white" fillOpacity="0.06"/>
<g clipPath="url(#clip0_307_26490)">
<path d="M11.9583 7.375C12.0752 7.37513 12.1875 7.41986 12.2725 7.50006C12.3574 7.58025 12.4085 7.68985 12.4154 7.80647C12.4222 7.92309 12.3843 8.03792 12.3093 8.12751C12.2343 8.21709 12.128 8.27466 12.012 8.28846L11.9583 8.29167H8.29167V14.7083H14.7083V11.0417C14.7085 10.9248 14.7532 10.8125 14.8334 10.7275C14.9136 10.6426 15.0232 10.5915 15.1398 10.5846C15.2564 10.5778 15.3713 10.6157 15.4608 10.6907C15.5504 10.7657 15.608 10.872 15.6218 10.988L15.625 11.0417V14.7083C15.6251 14.9396 15.5377 15.1623 15.3805 15.3319C15.2232 15.5015 15.0077 15.6054 14.7771 15.6227L14.7083 15.625H8.29167C8.0604 15.6251 7.83766 15.5377 7.66808 15.3805C7.49851 15.2232 7.39464 15.0077 7.37729 14.7771L7.375 14.7083V8.29167C7.37493 8.0604 7.46227 7.83766 7.61952 7.66808C7.77677 7.49851 7.9923 7.39464 8.22292 7.37729L8.29167 7.375H11.9583ZM14.8197 7.53221C14.9022 7.45001 15.0129 7.40228 15.1293 7.39873C15.2457 7.39517 15.359 7.43606 15.4464 7.51307C15.5337 7.59009 15.5885 7.69746 15.5995 7.81338C15.6106 7.92931 15.5771 8.04509 15.5058 8.13721L15.4678 8.18075L10.9303 12.7178C10.8478 12.8 10.7371 12.8477 10.6207 12.8513C10.5043 12.8548 10.391 12.8139 10.3036 12.7369C10.2163 12.6599 10.1615 12.5525 10.1505 12.4366C10.1394 12.3207 10.1729 12.2049 10.2442 12.1128L10.2822 12.0697L14.8197 7.53221Z" fill="white"/>
</g>
<defs>
<clipPath id="clip0_307_26490">
<rect width="11" height="11" fill="white" transform="translate(6 6)"/>
</clipPath>
</defs>
</svg>
