<svg width="55" height="56" viewBox="0 0 55 56" fill="none" xmlns="http://www.w3.org/2000/svg">
<circle opacity="0.1" cx="27.5959" cy="27.8227" r="27.1921" fill="#EA79BA"/>
<path d="M37.4396 19.0942H36.8958L32.3003 14.4987C31.9332 14.1316 31.335 14.1316 30.9543 14.4987C30.5872 14.8658 30.5872 15.464 30.9543 15.8447L34.2037 19.0942H20.9884L24.2378 15.8447C24.6049 15.4776 24.6049 14.8794 24.2378 14.4987C23.8707 14.1316 23.2725 14.1316 22.8918 14.4987L18.31 19.0942H17.7661C16.5425 19.0942 14 19.0942 14 22.5748C14 23.8936 14.2719 24.7637 14.843 25.3348C15.1693 25.6747 15.5635 25.8514 15.985 25.9466C16.3793 26.0418 16.8008 26.0554 17.2087 26.0554H37.9834C38.4049 26.0554 38.7992 26.0282 39.1799 25.9466C40.322 25.6747 41.1921 24.8589 41.1921 22.5748C41.1921 19.0942 38.6497 19.0942 37.4396 19.0942Z" fill="#EA79BA"/>
<path d="M37.1816 27.8228H17.9024C17.0594 27.8228 16.4204 28.5705 16.5564 29.3999L17.6984 36.3883C18.0791 38.7268 19.0988 41.4188 23.6263 41.4188H31.2537C35.8356 41.4188 36.6514 39.1211 37.1408 36.5514L38.514 29.4407C38.6772 28.5977 38.0382 27.8228 37.1816 27.8228ZM25.7065 36.5922C25.7065 37.1225 25.2851 37.5439 24.7684 37.5439C24.2382 37.5439 23.8167 37.1225 23.8167 36.5922V32.1055C23.8167 31.5889 24.2382 31.1538 24.7684 31.1538C25.2851 31.1538 25.7065 31.5889 25.7065 32.1055V36.5922ZM31.5256 36.5922C31.5256 37.1225 31.1042 37.5439 30.5739 37.5439C30.0573 37.5439 29.6222 37.1225 29.6222 36.5922V32.1055C29.6222 31.5889 30.0573 31.1538 30.5739 31.1538C31.1042 31.1538 31.5256 31.5889 31.5256 32.1055V36.5922Z" fill="#EA79BA"/>
</svg>
