<svg width="16" height="16" viewBox="0 0 16 16" fill="none" xmlns="http://www.w3.org/2000/svg">
<path fillRule="evenodd" clipRule="evenodd" d="M3.30167 1.5H12.6977C13.1423 1.5 13.5223 1.5 13.8263 1.538C14.1483 1.57867 14.4597 1.67 14.7157 1.91C14.9757 2.15467 15.079 2.45933 15.1243 2.776C15.1663 3.06733 15.1663 3.42933 15.1663 3.84267V4.36C15.1663 4.686 15.1663 4.96667 15.1423 5.202C15.1157 5.45533 15.059 5.692 14.9217 5.91933C14.785 6.14533 14.6017 6.30933 14.3897 6.456C14.1903 6.59467 13.9363 6.738 13.6363 6.90667L11.675 8.01067C11.2283 8.262 11.073 8.35267 10.969 8.44267C10.731 8.64933 10.5943 8.87933 10.5303 9.16667C10.503 9.29 10.4997 9.44467 10.4997 9.91533V11.7367C10.4997 12.3373 10.4997 12.8473 10.4377 13.24C10.3723 13.6567 10.2197 14.0567 9.81967 14.3067C9.42834 14.5513 8.99834 14.5287 8.57967 14.4293C8.17634 14.334 7.67967 14.1393 7.08367 13.9067L7.02634 13.884C6.74634 13.7747 6.50234 13.6793 6.30901 13.5793C6.10101 13.472 5.90767 13.3387 5.76034 13.1307C5.61034 12.92 5.55101 12.6947 5.52367 12.464C5.49967 12.254 5.49967 12.002 5.49967 11.7207V9.91533C5.49967 9.44467 5.49701 9.29 5.46901 9.16667C5.40848 8.88282 5.25392 8.62772 5.03034 8.44267C4.92634 8.35267 4.77034 8.262 4.32434 8.01067L2.36301 6.90667C2.06301 6.738 1.80901 6.59467 1.60967 6.456C1.39767 6.30933 1.21434 6.14533 1.07767 5.91933C0.940341 5.692 0.883674 5.45467 0.857674 5.202C0.833008 4.96733 0.833008 4.686 0.833008 4.36V3.84267C0.833008 3.42933 0.833008 3.06733 0.875008 2.776C0.920341 2.45933 1.02367 2.15467 1.28367 1.91C1.53967 1.67 1.85034 1.57867 2.17301 1.538C2.47701 1.5 2.85701 1.5 3.30167 1.5ZM2.29834 2.53067C2.07567 2.55867 2.00501 2.604 1.96834 2.63933C1.93501 2.67 1.89234 2.724 1.86434 2.918C1.83434 3.13 1.83301 3.41933 1.83301 3.87667V4.33667C1.83301 4.69267 1.83301 4.922 1.85167 5.09933C1.86901 5.264 1.89834 5.34333 1.93434 5.40267C1.97101 5.46333 2.03234 5.532 2.17967 5.63467C2.33567 5.74267 2.54834 5.86333 2.87301 6.046L4.81501 7.13933L4.86834 7.16933C5.24167 7.37933 5.49501 7.522 5.68567 7.68733C6.07129 8.01264 6.33849 8.45635 6.44567 8.94933C6.49967 9.194 6.49967 9.46933 6.49967 9.856V11.6953C6.49967 12.01 6.50034 12.2033 6.51767 12.3487C6.53234 12.4807 6.55701 12.5253 6.57501 12.5513C6.59501 12.5793 6.63501 12.6227 6.76767 12.6913C6.90901 12.764 7.10434 12.8407 7.41234 12.9613C8.05301 13.212 8.48434 13.3793 8.81034 13.4567C9.12967 13.5327 9.23501 13.4933 9.28901 13.4593C9.33434 13.4307 9.40434 13.3727 9.45034 13.084C9.49834 12.7793 9.49967 12.3487 9.49967 11.6947V9.856C9.49967 9.46933 9.49967 9.194 9.55434 8.94933C9.66134 8.45643 9.92831 8.01274 10.3137 7.68733C10.5043 7.522 10.7583 7.37867 11.1303 7.16933L11.1843 7.13933L13.1263 6.046C13.451 5.86333 13.6637 5.74267 13.8197 5.63467C13.967 5.532 14.0283 5.46333 14.065 5.40267C14.101 5.34333 14.1303 5.264 14.147 5.09933C14.1657 4.922 14.1663 4.69267 14.1663 4.336V3.876C14.1663 3.41933 14.165 3.12933 14.135 2.918C14.107 2.724 14.0637 2.67 14.0317 2.63933C13.9943 2.60467 13.9237 2.55867 13.701 2.53067C13.4677 2.50067 13.151 2.5 12.6663 2.5H3.33301C2.84834 2.5 2.53234 2.50067 2.29834 2.53067Z" fill="#FF8F1F"/>
</svg>
