<svg width="55" height="56" viewBox="0 0 55 56" fill="none" xmlns="http://www.w3.org/2000/svg">
<circle opacity="0.15" cx="27.7463" cy="27.8227" r="27.1921" fill="#6DACE7"/>
<path d="M33.185 17.2857C33.185 18.9716 31.8118 20.3448 30.1258 20.3448H25.3672C24.5243 20.3448 23.7629 20.0049 23.2054 19.4474C22.648 18.89 22.3081 18.1286 22.3081 17.2857C22.3081 15.5998 23.6813 14.2266 25.3672 14.2266H30.1258C30.9688 14.2266 31.7302 14.5665 32.2876 15.1239C32.8451 15.6813 33.185 16.4427 33.185 17.2857Z" fill="#6DACE7"/>
<path d="M37.0326 18.3464C36.7199 18.088 36.3664 17.8841 35.9857 17.7345C35.5914 17.585 35.1971 17.8977 35.1155 18.3056C34.6533 20.6305 32.6003 22.3844 30.1258 22.3844H25.3672C24.0076 22.3844 22.7295 21.8542 21.7642 20.8888C21.0572 20.1818 20.5678 19.2845 20.3774 18.3192C20.2958 17.9113 19.888 17.585 19.4937 17.7481C17.9165 18.3872 16.8696 19.8283 16.8696 22.7243V35.9805C16.8696 40.0593 19.3033 41.4189 22.3081 41.4189H33.1849C36.1896 41.4189 38.6233 40.0593 38.6233 35.9805V22.7243C38.6233 20.5081 38.0115 19.1485 37.0326 18.3464ZM22.3081 28.1627H27.7465C28.3039 28.1627 28.7662 28.625 28.7662 29.1824C28.7662 29.7399 28.3039 30.2021 27.7465 30.2021H22.3081C21.7506 30.2021 21.2883 29.7399 21.2883 29.1824C21.2883 28.625 21.7506 28.1627 22.3081 28.1627ZM33.1849 35.6406H22.3081C21.7506 35.6406 21.2883 35.1783 21.2883 34.6209C21.2883 34.0634 21.7506 33.6011 22.3081 33.6011H33.1849C33.7423 33.6011 34.2046 34.0634 34.2046 34.6209C34.2046 35.1783 33.7423 35.6406 33.1849 35.6406Z" fill="#6DACE7"/>
</svg>
