<svg width="30" height="31" viewBox="0 0 30 31" fill="none" xmlns="http://www.w3.org/2000/svg">
<path d="M1.875 9.88281C1.875 8.76393 2.31947 7.69087 3.11064 6.89971C3.90181 6.10854 4.97487 5.66406 6.09375 5.66406H23.9062C25.0251 5.66406 26.0982 6.10854 26.8894 6.89971C27.6805 7.69087 28.125 8.76393 28.125 9.88281V22.0703C28.125 23.1892 27.6805 24.2622 26.8894 25.0534C26.0982 25.8446 25.0251 26.2891 23.9062 26.2891H6.09375C4.97487 26.2891 3.90181 25.8446 3.11064 25.0534C2.31947 24.2622 1.875 23.1892 1.875 22.0703V9.88281ZM6.09375 7.53906C5.47215 7.53906 4.87601 7.78599 4.43647 8.22553C3.99693 8.66507 3.75 9.26121 3.75 9.88281V11.2891H26.25V9.88281C26.25 9.26121 26.0031 8.66507 25.5635 8.22553C25.124 7.78599 24.5279 7.53906 23.9062 7.53906H6.09375ZM3.75 22.0703C3.75 22.6919 3.99693 23.2881 4.43647 23.7276C4.87601 24.1671 5.47215 24.4141 6.09375 24.4141H23.9062C24.5279 24.4141 25.124 24.1671 25.5635 23.7276C26.0031 23.2881 26.25 22.6919 26.25 22.0703V13.1641H3.75V22.0703ZM19.6875 18.7891H22.5C22.7486 18.7891 22.9871 18.8878 23.1629 19.0636C23.3387 19.2395 23.4375 19.4779 23.4375 19.7266C23.4375 19.9752 23.3387 20.2137 23.1629 20.3895C22.9871 20.5653 22.7486 20.6641 22.5 20.6641H19.6875C19.4389 20.6641 19.2004 20.5653 19.0246 20.3895C18.8488 20.2137 18.75 19.9752 18.75 19.7266C18.75 19.4779 18.8488 19.2395 19.0246 19.0636C19.2004 18.8878 19.4389 18.7891 19.6875 18.7891Z" fill="white"/>
</svg>
