<svg width="15" height="15" viewBox="0 0 15 15" fill="none" xmlns="http://www.w3.org/2000/svg">
<path d="M6.79102 0.416992C10.31 0.416992 13.166 3.27299 13.166 6.79199C13.166 10.311 10.31 13.167 6.79102 13.167C3.27202 13.167 0.416016 10.311 0.416016 6.79199C0.416016 3.27299 3.27202 0.416992 6.79102 0.416992ZM6.79102 11.7503C9.5305 11.7503 11.7493 9.53147 11.7493 6.79199C11.7493 4.05251 9.5305 1.83366 6.79102 1.83366C4.05154 1.83366 1.83268 4.05251 1.83268 6.79199C1.83268 9.53147 4.05154 11.7503 6.79102 11.7503ZM12.8014 11.8007L14.8049 13.8041L13.8032 14.8059L11.7997 12.8024L12.8014 11.8007Z" fill="#959BA4"/>
</svg>
