<svg width="24" height="24" viewBox="0 0 24 24" fill="none" xmlns="http://www.w3.org/2000/svg">
<path d="M20.3591 12.7296C19.9891 12.7296 19.6791 12.4496 19.6391 12.0796C19.3991 9.87958 18.2191 7.89958 16.3991 6.63958C16.0691 6.40958 15.9891 5.95958 16.2191 5.62958C16.4491 5.29958 16.8991 5.21958 17.2291 5.44958C19.3991 6.95958 20.7991 9.31958 21.0891 11.9296C21.1291 12.3296 20.8391 12.6896 20.4391 12.7296C20.4091 12.7296 20.3891 12.7296 20.3591 12.7296Z" fill="#34C759"/>
<path d="M3.73931 12.7802C3.71931 12.7802 3.68931 12.7802 3.66931 12.7802C3.26931 12.7402 2.97931 12.3802 3.01931 11.9802C3.28931 9.3702 4.66931 7.0102 6.81931 5.4902C7.13931 5.2602 7.59931 5.3402 7.82931 5.6602C8.05931 5.9902 7.97931 6.4402 7.65931 6.6702C5.85931 7.9502 4.68931 9.9302 4.46931 12.1202C4.42931 12.5002 4.10931 12.7802 3.73931 12.7802Z" fill="#34C759"/>
<path d="M15.9906 21.1003C14.7606 21.6903 13.4406 21.9903 12.0606 21.9903C10.6206 21.9903 9.25059 21.6703 7.97059 21.0203C7.61059 20.8503 7.47059 20.4103 7.65059 20.0503C7.82059 19.6903 8.26059 19.5503 8.62059 19.7203C9.25059 20.0403 9.92059 20.2603 10.6006 20.3903C11.5206 20.5703 12.4606 20.5803 13.3806 20.4203C14.0606 20.3003 14.7306 20.0903 15.3506 19.7903C15.7206 19.6203 16.1606 19.7603 16.3206 20.1303C16.5006 20.4903 16.3606 20.9303 15.9906 21.1003Z" fill="#34C759"/>
<path d="M12.0505 2.00977C10.5005 2.00977 9.23047 3.26977 9.23047 4.82977C9.23047 6.38977 10.4905 7.64977 12.0505 7.64977C13.6105 7.64977 14.8705 6.38977 14.8705 4.82977C14.8705 3.26977 13.6105 2.00977 12.0505 2.00977Z" fill="#34C759"/>
<path d="M5.05047 13.8701C3.50047 13.8701 2.23047 15.1301 2.23047 16.6901C2.23047 18.2501 3.49047 19.5101 5.05047 19.5101C6.61047 19.5101 7.87047 18.2501 7.87047 16.6901C7.87047 15.1301 6.60047 13.8701 5.05047 13.8701Z" fill="#34C759"/>
<path d="M18.9509 13.8701C17.4009 13.8701 16.1309 15.1301 16.1309 16.6901C16.1309 18.2501 17.3909 19.5101 18.9509 19.5101C20.5109 19.5101 21.7709 18.2501 21.7709 16.6901C21.7709 15.1301 20.5109 13.8701 18.9509 13.8701Z" fill="#34C759"/>
</svg>
