<svg width="46" height="46" viewBox="0 0 46 46" fill="none" xmlns="http://www.w3.org/2000/svg">
<path d="M40.25 43.6045H5.75C4.96417 43.6045 4.3125 42.9528 4.3125 42.167C4.3125 41.3812 4.96417 40.7295 5.75 40.7295H40.25C41.0358 40.7295 41.6875 41.3812 41.6875 42.167C41.6875 42.9528 41.0358 43.6045 40.25 43.6045Z" fill="#00BE64"/>
<path d="M10.7333 16.0615H7.66667C6.6125 16.0615 5.75 16.924 5.75 17.9782V34.4999C5.75 35.554 6.6125 36.4165 7.66667 36.4165H10.7333C11.7875 36.4165 12.65 35.554 12.65 34.4999V17.9782C12.65 16.9049 11.7875 16.0615 10.7333 16.0615Z" fill="#00BE64"/>
<path d="M24.5341 9.94727H21.4674C20.4133 9.94727 19.5508 10.8098 19.5508 11.8639V34.4998C19.5508 35.5539 20.4133 36.4164 21.4674 36.4164H24.5341C25.5883 36.4164 26.4508 35.5539 26.4508 34.4998V11.8639C26.4508 10.8098 25.5883 9.94727 24.5341 9.94727Z" fill="#00BE64"/>
<path d="M38.3329 3.83301H35.2663C34.2121 3.83301 33.3496 4.69551 33.3496 5.74967V34.4997C33.3496 35.5538 34.2121 36.4163 35.2663 36.4163H38.3329C39.3871 36.4163 40.2496 35.5538 40.2496 34.4997V5.74967C40.2496 4.69551 39.3871 3.83301 38.3329 3.83301Z" fill="#00BE64"/>
</svg>
