<svg width="16" height="16" viewBox="0 0 16 16" fill="none" xmlns="http://www.w3.org/2000/svg">
<path d="M8.00016 14.6663C4.31826 14.6663 1.3335 11.6815 1.3335 7.99967C1.3335 4.31777 4.31826 1.33301 8.00016 1.33301C11.682 1.33301 14.6668 4.31777 14.6668 7.99967C14.6668 11.6815 11.682 14.6663 8.00016 14.6663ZM8.00016 13.333C10.9457 13.333 13.3335 10.9452 13.3335 7.99967C13.3335 5.05415 10.9457 2.66634 8.00016 2.66634C5.05464 2.66634 2.66683 5.05415 2.66683 7.99967C2.66683 10.9452 5.05464 13.333 8.00016 13.333ZM8.66683 7.99967H11.3335V9.33301H7.3335V4.66634H8.66683V7.99967Z" fill="#4B5563"/>
</svg>
