<svg width="62" height="29" viewBox="0 0 62 29" fill="none" xmlns="http://www.w3.org/2000/svg">
<path d="M8.35469 1.98844C8.47469 2.39844 8.60469 2.86344 8.74469 3.38344C8.89469 3.89344 9.04969 4.42344 9.20969 4.97344C9.37969 5.52344 9.54969 6.07344 9.71969 6.62344C9.88969 7.17344 10.0547 7.68344 10.2147 8.15344C10.3447 7.64344 10.4747 7.08844 10.6047 6.48844C10.7447 5.88844 10.8747 5.26844 10.9947 4.62844C11.1147 3.98844 11.2297 3.35344 11.3397 2.72344C11.4597 2.08344 11.5697 1.46844 11.6697 0.878437H14.0997C13.7497 2.61844 13.3447 4.38344 12.8847 6.17344C12.4347 7.96344 11.9447 9.66344 11.4147 11.2734H9.26969C8.91969 10.3134 8.57969 9.30844 8.24969 8.25844C7.91969 7.19844 7.59469 6.13844 7.27469 5.07844C6.95469 6.13844 6.63469 7.19844 6.31469 8.25844C5.99469 9.30844 5.65969 10.3134 5.30969 11.2734H3.16469C2.63469 9.66344 2.13969 7.96344 1.67969 6.17344C1.22969 4.38344 0.829688 2.61844 0.479688 0.878437H3.01469C3.11469 1.46844 3.22469 2.08344 3.34469 2.72344C3.46469 3.35344 3.58969 3.98844 3.71969 4.62844C3.84969 5.26844 3.97969 5.88844 4.10969 6.48844C4.24969 7.08844 4.38969 7.64344 4.52969 8.15344C4.70969 7.66344 4.88469 7.14344 5.05469 6.59344C5.22469 6.04344 5.38969 5.49344 5.54969 4.94344C5.70969 4.39344 5.85469 3.86344 5.98469 3.35344C6.12469 2.84344 6.24969 2.38844 6.35969 1.98844H8.35469ZM15.6033 11.2734V0.878437H22.6233V2.84344H17.9433V4.88344H22.0983V6.80344H17.9433V9.30844H22.9683V11.2734H15.6033ZM31.66 11.2734C31.55 10.9134 31.425 10.5434 31.285 10.1634C31.155 9.78344 31.025 9.40344 30.895 9.02344H26.845C26.715 9.40344 26.58 9.78344 26.44 10.1634C26.31 10.5434 26.19 10.9134 26.08 11.2734H23.65C24.04 10.1534 24.41 9.11844 24.76 8.16844C25.11 7.21844 25.45 6.32344 25.78 5.48344C26.12 4.64344 26.45 3.84844 26.77 3.09844C27.1 2.33844 27.44 1.59844 27.79 0.878437H30.025C30.365 1.59844 30.7 2.33844 31.03 3.09844C31.36 3.84844 31.69 4.64344 32.02 5.48344C32.36 6.32344 32.705 7.21844 33.055 8.16844C33.405 9.11844 33.775 10.1534 34.165 11.2734H31.66ZM28.855 3.23344C28.805 3.38344 28.73 3.58844 28.63 3.84844C28.53 4.10844 28.415 4.40844 28.285 4.74844C28.155 5.08844 28.01 5.46344 27.85 5.87344C27.7 6.28344 27.545 6.71344 27.385 7.16344H30.34C30.18 6.71344 30.025 6.28344 29.875 5.87344C29.725 5.46344 29.58 5.08844 29.44 4.74844C29.31 4.40844 29.195 4.10844 29.095 3.84844C28.995 3.58844 28.915 3.38344 28.855 3.23344ZM42.4555 9.26344V11.2734H35.5105V0.878437H37.8505V9.26344H42.4555ZM50.5008 0.878437V2.87344H47.3658V11.2734H45.0258V2.87344H41.8908V0.878437H50.5008ZM58.2747 0.878437H60.6147V11.2734H58.2747V6.86344H54.3447V11.2734H52.0047V0.878437H54.3447V4.85344H58.2747V0.878437Z" fill="white"/>
<path d="M1.31377 28.2734V17.8784H8.27377V19.8434H3.65377V22.0184H7.76377V23.9834H3.65377V28.2734H1.31377ZM13.9921 28.4834C13.2621 28.4834 12.6321 28.3834 12.1021 28.1834C11.5721 27.9734 11.1321 27.6884 10.7821 27.3284C10.4421 26.9584 10.1871 26.5234 10.0171 26.0234C9.85705 25.5134 9.77705 24.9534 9.77705 24.3434V17.8784H12.1171V24.1484C12.1171 24.5684 12.1621 24.9284 12.2521 25.2284C12.3521 25.5184 12.4821 25.7584 12.6421 25.9484C12.8121 26.1284 13.0121 26.2584 13.2421 26.3384C13.4821 26.4184 13.7421 26.4584 14.0221 26.4584C14.5921 26.4584 15.0521 26.2834 15.4021 25.9334C15.7621 25.5834 15.9421 24.9884 15.9421 24.1484V17.8784H18.2821V24.3434C18.2821 24.9534 18.1971 25.5134 18.0271 26.0234C17.8571 26.5334 17.5971 26.9734 17.2471 27.3434C16.8971 27.7034 16.4521 27.9834 15.9121 28.1834C15.3721 28.3834 14.7321 28.4834 13.9921 28.4834ZM27.5075 28.2734C26.8375 27.0834 26.1125 25.9084 25.3325 24.7484C24.5525 23.5884 23.7225 22.4934 22.8425 21.4634V28.2734H20.5325V17.8784H22.4375C22.7675 18.2084 23.1325 18.6134 23.5325 19.0934C23.9325 19.5734 24.3375 20.0884 24.7475 20.6384C25.1675 21.1784 25.5825 21.7434 25.9925 22.3334C26.4025 22.9134 26.7875 23.4734 27.1475 24.0134V17.8784H29.4725V28.2734H27.5075ZM34.2104 26.3684C34.3204 26.3784 34.4454 26.3884 34.5854 26.3984C34.7354 26.3984 34.9104 26.3984 35.1104 26.3984C36.2804 26.3984 37.1454 26.1034 37.7054 25.5134C38.2754 24.9234 38.5604 24.1084 38.5604 23.0684C38.5604 21.9784 38.2904 21.1534 37.7504 20.5934C37.2104 20.0334 36.3554 19.7534 35.1854 19.7534C35.0254 19.7534 34.8604 19.7584 34.6904 19.7684C34.5204 19.7684 34.3604 19.7784 34.2104 19.7984V26.3684ZM40.9754 23.0684C40.9754 23.9684 40.8354 24.7534 40.5554 25.4234C40.2754 26.0934 39.8754 26.6484 39.3554 27.0884C38.8454 27.5284 38.2204 27.8584 37.4804 28.0784C36.7404 28.2984 35.9104 28.4084 34.9904 28.4084C34.5704 28.4084 34.0804 28.3884 33.5204 28.3484C32.9604 28.3184 32.4104 28.2484 31.8704 28.1384V18.0134C32.4104 17.9134 32.9704 17.8484 33.5504 17.8184C34.1404 17.7784 34.6454 17.7584 35.0654 17.7584C35.9554 17.7584 36.7604 17.8584 37.4804 18.0584C38.2104 18.2584 38.8354 18.5734 39.3554 19.0034C39.8754 19.4334 40.2754 19.9834 40.5554 20.6534C40.8354 21.3234 40.9754 22.1284 40.9754 23.0684ZM42.93 28.2734V17.8784H49.95V19.8434H45.27V21.8834H49.425V23.8034H45.27V26.3084H50.295V28.2734H42.93ZM54.3667 26.3684C54.4767 26.3784 54.6017 26.3884 54.7417 26.3984C54.8917 26.3984 55.0667 26.3984 55.2667 26.3984C56.4367 26.3984 57.3017 26.1034 57.8617 25.5134C58.4317 24.9234 58.7167 24.1084 58.7167 23.0684C58.7167 21.9784 58.4467 21.1534 57.9067 20.5934C57.3667 20.0334 56.5117 19.7534 55.3417 19.7534C55.1817 19.7534 55.0167 19.7584 54.8467 19.7684C54.6767 19.7684 54.5167 19.7784 54.3667 19.7984V26.3684ZM61.1317 23.0684C61.1317 23.9684 60.9917 24.7534 60.7117 25.4234C60.4317 26.0934 60.0317 26.6484 59.5117 27.0884C59.0017 27.5284 58.3767 27.8584 57.6367 28.0784C56.8967 28.2984 56.0667 28.4084 55.1467 28.4084C54.7267 28.4084 54.2367 28.3884 53.6767 28.3484C53.1167 28.3184 52.5667 28.2484 52.0267 28.1384V18.0134C52.5667 17.9134 53.1267 17.8484 53.7067 17.8184C54.2967 17.7784 54.8017 17.7584 55.2217 17.7584C56.1117 17.7584 56.9167 17.8584 57.6367 18.0584C58.3667 18.2584 58.9917 18.5734 59.5117 19.0034C60.0317 19.4334 60.4317 19.9834 60.7117 20.6534C60.9917 21.3234 61.1317 22.1284 61.1317 23.0684Z" fill="#00BE64"/>
</svg>
