<svg width="30" height="31" viewBox="0 0 30 31" fill="none" xmlns="http://www.w3.org/2000/svg">
<path d="M13.7401 19.4827C14.9966 18.6462 15.9506 17.4276 16.4609 16.007C16.9712 14.5864 17.0108 13.0393 16.5739 11.5945C16.1369 10.1497 15.2466 8.8838 14.0345 7.9841C12.8225 7.0844 11.3531 6.59863 9.84366 6.59863C8.33419 6.59863 6.8648 7.0844 5.65276 7.9841C4.44073 8.8838 3.55041 10.1497 3.11345 11.5945C2.67649 13.0393 2.71611 14.5864 3.22643 16.007C3.73675 17.4276 4.69068 18.6462 5.94717 19.4827C3.67431 20.3204 1.73323 21.8706 0.413577 23.9019C0.344221 24.005 0.296046 24.1208 0.271852 24.2427C0.247659 24.3645 0.24793 24.49 0.272649 24.6117C0.297369 24.7335 0.346044 24.8491 0.415845 24.9519C0.485646 25.0547 0.57518 25.1426 0.679244 25.2105C0.783309 25.2783 0.899826 25.3248 1.02202 25.3473C1.14422 25.3697 1.26966 25.3677 1.39106 25.3412C1.51245 25.3148 1.62737 25.2644 1.72915 25.1932C1.83092 25.1219 1.91751 25.0311 1.98389 24.9261C2.83513 23.6169 3.99993 22.541 5.37253 21.7962C6.74512 21.0515 8.28202 20.6614 9.84366 20.6614C11.4053 20.6614 12.9422 21.0515 14.3148 21.7962C15.6874 22.541 16.8522 23.6169 17.7034 24.9261C17.8409 25.1305 18.0533 25.2725 18.2947 25.3215C18.5361 25.3705 18.7871 25.3226 18.9934 25.188C19.1997 25.0534 19.3448 24.8431 19.3972 24.6024C19.4497 24.3617 19.4053 24.1101 19.2737 23.9019C17.9541 21.8706 16.013 20.3204 13.7401 19.4827ZM4.68741 13.6327C4.68741 12.6129 4.98981 11.616 5.55639 10.7681C6.12297 9.92014 6.92826 9.25925 7.87044 8.86898C8.81262 8.47872 9.84938 8.37661 10.8496 8.57556C11.8498 8.77452 12.7686 9.2656 13.4897 9.98672C14.2108 10.7078 14.7019 11.6266 14.9008 12.6268C15.0998 13.627 14.9977 14.6638 14.6074 15.6059C14.2171 16.5481 13.5563 17.3534 12.7083 17.92C11.8604 18.4866 10.8635 18.789 9.84366 18.789C8.47661 18.7874 7.166 18.2437 6.19935 17.277C5.2327 16.3104 4.68896 14.9998 4.68741 13.6327ZM29.3132 25.1991C29.1049 25.3349 28.8513 25.3825 28.608 25.3313C28.3647 25.28 28.1518 25.1343 28.0159 24.9261C27.1657 23.6161 26.001 22.5398 24.6282 21.7953C23.2553 21.0508 21.7179 20.6619 20.1562 20.664C19.9075 20.664 19.6691 20.5652 19.4932 20.3894C19.3174 20.2136 19.2187 19.9751 19.2187 19.7265C19.2187 19.4778 19.3174 19.2394 19.4932 19.0636C19.6691 18.8878 19.9075 18.789 20.1562 18.789C20.9155 18.7883 21.6653 18.6199 22.352 18.2958C23.0387 17.9717 23.6454 17.4999 24.1286 16.9142C24.6119 16.3285 24.9598 15.6432 25.1475 14.9075C25.3352 14.1717 25.3581 13.4036 25.2146 12.6579C25.071 11.9123 24.7645 11.2075 24.317 10.5941C23.8695 9.98059 23.2921 9.47353 22.6259 9.1091C21.9597 8.74468 21.2213 8.53189 20.4633 8.48594C19.7054 8.43999 18.9466 8.56201 18.2413 8.84328C18.1263 8.893 18.0025 8.91916 17.8772 8.92021C17.752 8.92127 17.6277 8.89721 17.5119 8.84945C17.3961 8.80168 17.291 8.73119 17.2029 8.64213C17.1148 8.55307 17.0454 8.44725 16.9989 8.33093C16.9523 8.2146 16.9296 8.09013 16.932 7.96487C16.9344 7.8396 16.9618 7.71609 17.0128 7.60162C17.0637 7.48716 17.1371 7.38406 17.2285 7.29843C17.32 7.21279 17.4277 7.14636 17.5452 7.10305C19.1594 6.45928 20.9549 6.43611 22.5851 7.03802C24.2154 7.63992 25.5651 8.82425 26.3737 10.3625C27.1823 11.9008 27.3925 13.684 26.9639 15.3682C26.5353 17.0524 25.4982 18.5181 24.0526 19.4827C26.3255 20.3204 28.2666 21.8706 29.5862 23.9019C29.722 24.1101 29.7695 24.3638 29.7183 24.6071C29.6671 24.8503 29.5214 25.0633 29.3132 25.1991Z" fill="white"/>
</svg>
