<svg width="11" height="11" viewBox="0 0 11 11" fill="none" xmlns="http://www.w3.org/2000/svg">
<path d="M1.501 7.01083C1.11142 6.50483 0.916626 6.25137 0.916626 5.50016C0.916626 4.7485 1.11142 4.49595 1.501 3.9895C2.27879 2.97933 3.58321 1.8335 5.49996 1.8335C7.41671 1.8335 8.72113 2.97933 9.49892 3.9895C9.8885 4.49641 10.0833 4.74895 10.0833 5.50016C10.0833 6.25183 9.8885 6.50437 9.49892 7.01083C8.72113 8.021 7.41671 9.16683 5.49996 9.16683C3.58321 9.16683 2.27879 8.021 1.501 7.01083Z" stroke="#FF8F1F" strokeWidth="0.6875"/>
<path d="M6.87512 5.5C6.87512 5.86467 6.73026 6.21441 6.47239 6.47227C6.21453 6.73013 5.86479 6.875 5.50012 6.875C5.13545 6.875 4.78571 6.73013 4.52785 6.47227C4.26999 6.21441 4.12512 5.86467 4.12512 5.5C4.12512 5.13533 4.26999 4.78559 4.52785 4.52773C4.78571 4.26987 5.13545 4.125 5.50012 4.125C5.86479 4.125 6.21453 4.26987 6.47239 4.52773C6.73026 4.78559 6.87512 5.13533 6.87512 5.5Z" stroke="#FF8F1F" strokeWidth="0.6875"/>
</svg>
