<svg width="16" height="16" viewBox="0 0 16 16" fill="none" xmlns="http://www.w3.org/2000/svg">
<path d="M1.33337 5.99992C1.33337 4.74259 1.33337 4.11459 1.72404 3.72392C2.11471 3.33325 2.74271 3.33325 4.00004 3.33325H12C13.2574 3.33325 13.8854 3.33325 14.276 3.72392C14.6667 4.11459 14.6667 4.74259 14.6667 5.99992C14.6667 6.31392 14.6667 6.47125 14.5694 6.56925C14.4714 6.66659 14.3134 6.66658 14 6.66658H2.00004C1.68604 6.66658 1.52871 6.66659 1.43071 6.56925C1.33337 6.47125 1.33337 6.31325 1.33337 5.99992ZM1.33337 11.9999C1.33337 13.2573 1.33337 13.8853 1.72404 14.2759C2.11471 14.6666 2.74271 14.6666 4.00004 14.6666H12C13.2574 14.6666 13.8854 14.6666 14.276 14.2759C14.6667 13.8853 14.6667 13.2573 14.6667 11.9999V8.66658C14.6667 8.35258 14.6667 8.19525 14.5694 8.09725C14.4714 7.99992 14.3134 7.99992 14 7.99992H2.00004C1.68604 7.99992 1.52871 7.99992 1.43071 8.09725C1.33337 8.19525 1.33337 8.35325 1.33337 8.66658V11.9999Z" fill="white"/>
<path d="M4.66675 2V4M11.3334 2V4" stroke="white" strokeWidth="2" strokeLinecap="round"/>
</svg>
