<svg width="22" height="23" viewBox="0 0 22 23" fill="none" xmlns="http://www.w3.org/2000/svg">
<path fill-rule="evenodd" clip-rule="evenodd" d="M19.8002 11.5012C19.8002 16.3613 15.8603 20.3012 11.0002 20.3012C6.14009 20.3012 2.2002 16.3613 2.2002 11.5012C2.2002 6.64107 6.14009 2.70117 11.0002 2.70117C15.8603 2.70117 19.8002 6.64107 19.8002 11.5012ZM11.0002 8.20117C10.5944 8.20117 10.2386 8.42031 10.0467 8.75197C9.7425 9.27784 9.0696 9.45754 8.54373 9.15334C8.01787 8.84914 7.83817 8.17624 8.14236 7.65037C8.71129 6.66687 9.77736 6.00117 11.0002 6.00117C12.8227 6.00117 14.3002 7.47863 14.3002 9.30117C14.3002 10.738 13.3819 11.9604 12.1002 12.4134V12.6012C12.1002 13.2087 11.6077 13.7012 11.0002 13.7012C10.3927 13.7012 9.90021 13.2087 9.90021 12.6012V11.5012C9.90021 10.8937 10.3927 10.4012 11.0002 10.4012C11.6077 10.4012 12.1002 9.90868 12.1002 9.30117C12.1002 8.69366 11.6077 8.20117 11.0002 8.20117ZM11.0002 17.0012C11.6077 17.0012 12.1002 16.5087 12.1002 15.9012C12.1002 15.2937 11.6077 14.8012 11.0002 14.8012C10.3927 14.8012 9.90019 15.2937 9.90019 15.9012C9.90019 16.5087 10.3927 17.0012 11.0002 17.0012Z" fill="white"/>
</svg>
