<svg width="55" height="56" viewBox="0 0 55 56" fill="none" xmlns="http://www.w3.org/2000/svg">
<circle opacity="0.1" cx="27.5373" cy="27.8227" r="27.1921" fill="#AA7AEB"/>
<path d="M27.5372 14.2266C23.9751 14.2266 21.0791 17.1225 21.0791 20.6847C21.0791 24.1789 23.8119 27.0069 27.3741 27.1292C27.4828 27.1156 27.5916 27.1156 27.6732 27.1292C27.7004 27.1292 27.714 27.1292 27.7412 27.1292C27.7548 27.1292 27.7548 27.1292 27.7684 27.1292C31.249 27.0069 33.9818 24.1789 33.9954 20.6847C33.9954 17.1225 31.0994 14.2266 27.5372 14.2266Z" fill="#AA7AEB"/>
<path d="M34.444 30.7458C30.6507 28.2169 24.4645 28.2169 20.644 30.7458C18.9173 31.9014 17.9656 33.465 17.9656 35.1373C17.9656 36.8096 18.9173 38.3596 20.6304 39.5016C22.5339 40.7797 25.0355 41.4187 27.5372 41.4187C30.0389 41.4187 32.5406 40.7797 34.444 39.5016C36.1571 38.346 37.1088 36.796 37.1088 35.1101C37.0952 33.4378 36.1571 31.8878 34.444 30.7458Z" fill="#AA7AEB"/>
</svg>
