<svg width="60" height="60" viewBox="0 0 60 60" fill="none" xmlns="http://www.w3.org/2000/svg">
<g id="ci:calendar-days">
<path id="Vector" d="M20 10H18C15.2 10 13.8 10 12.73 10.545C11.7891 11.0242 11.0242 11.7891 10.545 12.73C10 13.8 10 15.2 10 18V20M20 10H40M20 10V5M10 20V42C10 44.8 10 46.2 10.545 47.27C11.0244 48.2108 11.7892 48.9756 12.73 49.455C13.7975 50 15.1975 50 17.9925 50H42.0075C44.8025 50 46.2 50 47.2675 49.455C48.21 48.975 48.975 48.21 49.455 47.27C50 46.2 50 44.805 50 42.01V20M10 20H50M40 10H42C44.8 10 46.2 10 47.2675 10.545C48.21 11.025 48.975 11.7875 49.455 12.73C50 13.7975 50 15.1975 50 17.9925V20M40 10V5M40 40H40.005V40.005H40V40ZM30 40H30.005V40.005H30V40ZM20 40H20.005V40.005H20V40ZM40.005 30V30.005H40V30H40.005ZM30 30H30.005V30.005H30V30ZM20 30H20.005V30.005H20V30Z" stroke="#986AEB" strokeWidth="3" strokeLinecap="round" strokeLinejoin="round"/>
</g>
</svg>
