<svg width="60" height="60" viewBox="0 0 60 60" fill="none" xmlns="http://www.w3.org/2000/svg">
<g id="uil:asterisk">
<path id="Vector" d="M46.405 36.585L35 30L46.405 23.415C46.9745 23.0811 47.3889 22.5355 47.5576 21.8973C47.7264 21.2591 47.6358 20.58 47.3057 20.0083C46.9756 19.4365 46.4328 19.0186 45.7957 18.8456C45.1586 18.6727 44.4789 18.7587 43.905 19.085L32.5 25.67V12.5C32.5 11.837 32.2366 11.2011 31.7678 10.7322C31.2989 10.2634 30.6631 10 30 10C29.337 10 28.7011 10.2634 28.2323 10.7322C27.7634 11.2011 27.5 11.837 27.5 12.5V25.67L16.095 19.085C15.5211 18.7587 14.8415 18.6727 14.2044 18.8456C13.5673 19.0186 13.0244 19.4365 12.6943 20.0083C12.3642 20.58 12.2737 21.2591 12.4424 21.8973C12.6112 22.5355 13.0255 23.0811 13.595 23.415L25 30L13.595 36.585C13.0255 36.9189 12.6112 37.4645 12.4424 38.1027C12.2737 38.7409 12.3642 39.42 12.6943 39.9917C13.0244 40.5635 13.5673 40.9814 14.2044 41.1544C14.8415 41.3273 15.5211 41.2413 16.095 40.915L27.5 34.33V47.5C27.5 48.163 27.7634 48.7989 28.2323 49.2678C28.7011 49.7366 29.337 50 30 50C30.6631 50 31.2989 49.7366 31.7678 49.2678C32.2366 48.7989 32.5 48.163 32.5 47.5V34.33L43.905 40.915C44.4789 41.2413 45.1586 41.3273 45.7957 41.1544C46.4328 40.9814 46.9756 40.5635 47.3057 39.9917C47.6358 39.42 47.7264 38.7409 47.5576 38.1027C47.3889 37.4645 46.9745 36.9189 46.405 36.585Z" fill="#986AEB"/>
</g>
</svg>
