<svg width="60" height="60" viewBox="0 0 60 60" fill="none" xmlns="http://www.w3.org/2000/svg">
<g id="streamline:bag-dollar">
<g id="Group">
<path id="Vector" d="M30.0004 57.8574C45.0004 57.8574 55.7147 52.5516 55.7147 40.7402C55.7147 27.9045 49.2861 19.3459 36.429 12.9259L41.4861 6.42021C41.7437 5.99347 41.8835 5.50608 41.8914 5.0077C41.8993 4.50932 41.775 4.01775 41.5311 3.58307C41.2872 3.14838 40.9324 2.78611 40.5029 2.53316C40.0734 2.2802 39.5846 2.1456 39.0861 2.14307H20.9147C20.4173 2.14824 19.9301 2.28448 19.5022 2.53805C19.0742 2.79161 18.7208 3.15354 18.4773 3.58733C18.2339 4.02111 18.1092 4.51142 18.1158 5.00878C18.1223 5.50615 18.2599 5.99299 18.5147 6.42021L23.5718 12.9688C10.7147 19.4316 4.28613 27.9902 4.28613 40.8259C4.28613 52.5516 15.0004 57.8574 30.0004 57.8574Z" stroke="#986AEB" strokeWidth="2" strokeLinecap="round" strokeLinejoin="round"/>
<path id="Vector_2" d="M35.9276 29.1687C35.6082 28.2623 35.0153 27.4775 34.2307 26.9224C33.4462 26.3674 32.5087 26.0696 31.5476 26.0701H27.9562C26.9329 26.0681 25.945 26.4448 25.1828 27.1275C24.4206 27.8103 23.9379 28.751 23.8278 29.7683C23.7177 30.7857 23.9878 31.8079 24.5862 32.638C25.1847 33.4681 26.069 34.0474 27.0691 34.2644L32.5419 35.4644C33.6571 35.7131 34.6415 36.3641 35.307 37.2928C35.9725 38.2216 36.2724 39.3631 36.1494 40.499C36.0263 41.6349 35.489 42.6857 34.6401 43.4504C33.7912 44.2152 32.6902 44.6403 31.5476 44.6444H28.4576C26.4348 44.6444 24.7162 43.3501 24.0776 41.5501M30.0005 26.0701V21.4287M30.0005 49.2859V44.6444" stroke="#986AEB" strokeWidth="2" strokeLinecap="round" strokeLinejoin="round"/>
</g>
</g>
</svg>
