<svg width="60" height="60" viewBox="0 0 60 60" fill="none" xmlns="http://www.w3.org/2000/svg">
<g id="bx:spreadsheet">
<path id="Vector" d="M52.5 12.5C52.5 9.7425 50.2575 7.5 47.5 7.5H12.5C9.7425 7.5 7.5 9.7425 7.5 12.5V47.5C7.5 50.2575 9.7425 52.5 12.5 52.5H47.5C50.2575 52.5 52.5 50.2575 52.5 47.5V12.5ZM12.5 47.5V12.5H47.5L47.505 47.5H12.5Z" fill="#986AEB"/>
<path id="Vector_2" d="M17.5 17.5H22.495V22.5H17.5V17.5ZM27.5 17.5H42.5V22.5H27.5V17.5ZM17.5 27.5H22.495V32.5H17.5V27.5ZM27.5 27.5H42.5V32.5H27.5V27.5ZM17.5 37.5H22.495V42.5H17.5V37.5ZM27.5 37.5H42.5V42.5H27.5V37.5Z" fill="#986AEB"/>
</g>
</svg>
