<svg width="60" height="60" viewBox="0 0 60 60" fill="none" xmlns="http://www.w3.org/2000/svg">
<g id="solar:box-minimalistic-linear">
<path id="Vector" d="M52.5 18.75L30 30M30 30L7.5 18.75M30 30V53.75M38.945 8.455L43.945 11.08C49.3225 13.9025 52.0125 15.3125 53.5075 17.85C55 20.385 55 23.5425 55 29.85V30.1425C55 36.455 55 39.6125 53.5075 42.1475C52.0125 44.685 49.3225 46.0975 43.945 48.92L38.945 51.5425C34.555 53.8475 32.36 55 30 55C27.64 55 25.445 53.85 21.055 51.545L16.055 48.92C10.6775 46.0975 7.9875 44.6875 6.4925 42.15C5 39.615 5 36.4575 5 30.15V29.8575C5 23.545 5 20.3875 6.4925 17.8525C7.9875 15.315 10.6775 13.9025 16.055 11.0825L21.055 8.4575C25.445 6.1525 27.64 5 30 5C32.36 5 34.555 6.15 38.945 8.455Z" stroke="#986AEB" strokeWidth="2" strokeLinecap="round"/>
</g>
</svg>
