<svg width="143" height="142" viewBox="0 0 143 142" fill="none" xmlns="http://www.w3.org/2000/svg">
<rect width="122.811" height="122.811" rx="28.7838" transform="matrix(1 0 0 -1 0.5 122.811)" fill="url(#paint0_linear_307_24662)"/>
<g filter="url(#filter0_b_307_24662)">
<rect width="122.811" height="122.811" rx="28.7838" transform="matrix(1 0 0 -1 19.6895 142)" fill="#EEEEEE" fillOpacity="0.61"/>
<rect x="0.959459" y="-0.959459" width="120.892" height="120.892" rx="27.8243" transform="matrix(1 0 0 -1 19.6895 140.081)" stroke="white" strokeWidth="1.91892"/>
</g>
<path d="M69.6565 92.3433C69.3831 92.0698 69.2295 91.6989 69.2295 91.3122C69.2295 90.9255 69.3831 90.5546 69.6565 90.2812L78.9373 81.0003L69.6565 71.7195C69.3908 71.4445 69.2438 71.0761 69.2472 70.6937C69.2505 70.3113 69.4039 69.9456 69.6742 69.6752C69.9446 69.4048 70.3104 69.2514 70.6928 69.2481C71.0751 69.2448 71.4435 69.3918 71.7186 69.6574L80.9994 78.9383L90.2802 69.6574C90.5553 69.3918 90.9236 69.2448 91.306 69.2481C91.6884 69.2514 92.0542 69.4048 92.3245 69.6752C92.5949 69.9456 92.7483 70.3113 92.7516 70.6937C92.7549 71.0761 92.608 71.4445 92.3423 71.7195L83.0615 81.0003L92.3423 90.2812C92.608 90.5562 92.7549 90.9246 92.7516 91.307C92.7483 91.6893 92.5949 92.0551 92.3245 92.3255C92.0542 92.5959 91.6884 92.7492 91.306 92.7526C90.9236 92.7559 90.5553 92.6089 90.2802 92.3433L80.9994 83.0624L71.7186 92.3433C71.4451 92.6166 71.0742 92.7702 70.6875 92.7702C70.3008 92.7702 69.93 92.6166 69.6565 92.3433Z" fill="#FF8F1F"/>
<path fillRule="evenodd" clipRule="evenodd" d="M80.9997 110.166C97.1084 110.166 110.166 97.1084 110.166 80.9997C110.166 64.8909 97.1084 51.833 80.9997 51.833C64.8909 51.833 51.833 64.8909 51.833 80.9997C51.833 97.1084 64.8909 110.166 80.9997 110.166ZM80.9997 107.25C95.497 107.25 107.25 95.497 107.25 80.9997C107.25 66.5024 95.497 54.7497 80.9997 54.7497C66.5024 54.7497 54.7497 66.5024 54.7497 80.9997C54.7497 95.497 66.5024 107.25 80.9997 107.25Z" fill="#FF8F1F"/>
<defs>
<filter id="filter0_b_307_24662" x="4.3381" y="3.8381" width="153.513" height="153.513" filterUnits="userSpaceOnUse" color-interpolation-filters="sRGB">
<feFlood flood-opacity="0" result="BackgroundImageFix"/>
<feGaussianBlur in="BackgroundImageFix" stdDeviation="7.67568"/>
<feComposite in2="SourceAlpha" operator="in" result="effect1_backgroundBlur_307_24662"/>
<feBlend mode="normal" in="SourceGraphic" in2="effect1_backgroundBlur_307_24662" result="shape"/>
</filter>
<linearGradient id="paint0_linear_307_24662" x1="61.4054" y1="0" x2="61.4054" y2="122.811" gradientUnits="userSpaceOnUse">
<stop stop-color="#FF8F1F"/>
<stop offset="1" stop-color="#FF8F1F" stop-opacity="0"/>
</linearGradient>
</defs>
</svg>
