<svg width="142" height="143" viewBox="0 0 142 143" fill="none" xmlns="http://www.w3.org/2000/svg">
<rect width="122.811" height="122.811" rx="28.7838" transform="matrix(1 0 0 -1 0 123.311)" fill="url(#paint0_linear_307_24632)"/>
<g filter="url(#filter0_b_307_24632)">
<rect width="122.811" height="122.811" rx="28.7838" transform="matrix(1 0 0 -1 19.1895 142.5)" fill="#EEEEEE" fillOpacity="0.61"/>
<rect x="0.959459" y="-0.959459" width="120.892" height="120.892" rx="27.8243" transform="matrix(1 0 0 -1 19.1895 140.581)" stroke="white" strokeWidth="1.91892"/>
</g>
<path d="M39.712 88V75.2513H41.6607L47.2337 84.5579H46.2138L51.6957 75.2513H53.6444L53.6627 88H51.4225L51.4043 78.7663H51.8778L47.2155 86.543H46.1592L41.4239 78.7663H41.9703V88H39.712ZM59.6924 88V77.2547H55.4671V75.2513H66.2853V77.2547H62.06V88H59.6924ZM65.422 85.1042V83.4651L71.7053 75.2513H74.2368L68.0446 83.4651L66.8608 83.1009H76.9687V85.1042H65.422ZM72.4156 88V85.1042L72.4884 83.1009V80.5329H74.7103V88H72.4156ZM77.0798 89.8212L83.0899 72.6652H85.1297L79.1196 89.8212H77.0798ZM86.0966 88V75.2513H88.0454L93.6184 84.5579H92.5985L98.0804 75.2513H100.029L100.047 88H97.8072L97.789 78.7663H98.2625L93.6001 86.543H92.5438L87.8086 78.7663H88.355V88H86.0966ZM106.077 88V77.2547H101.852V75.2513H112.67V77.2547H108.445V88H106.077ZM117.637 88.1821C116.738 88.1821 115.858 88.0546 114.996 87.7997C114.146 87.5325 113.43 87.1683 112.847 86.7069L113.849 84.8675C114.31 85.2439 114.869 85.5474 115.524 85.7781C116.192 86.0088 116.884 86.1241 117.601 86.1241C118.438 86.1241 119.094 85.9481 119.567 85.596C120.053 85.2439 120.296 84.7703 120.296 84.1754C120.296 83.7747 120.193 83.4226 119.986 83.1191C119.792 82.8155 119.44 82.5848 118.93 82.427C118.432 82.2692 117.746 82.1902 116.872 82.1902H113.794L114.45 75.2513H121.935V77.2365H115.324L116.562 76.1073L116.071 81.2978L114.832 80.1869H117.4C118.663 80.1869 119.677 80.3569 120.442 80.6968C121.219 81.0247 121.783 81.486 122.135 82.081C122.5 82.6638 122.682 83.3316 122.682 84.0843C122.682 84.825 122.5 85.5049 122.135 86.1241C121.771 86.7433 121.213 87.2412 120.46 87.6175C119.719 87.9939 118.778 88.1821 117.637 88.1821Z" fill="#FF8F1F"/>
<defs>
<filter id="filter0_b_307_24632" x="3.8381" y="4.3381" width="153.513" height="153.513" filterUnits="userSpaceOnUse" color-interpolation-filters="sRGB">
<feFlood flood-opacity="0" result="BackgroundImageFix"/>
<feGaussianBlur in="BackgroundImageFix" stdDeviation="7.67568"/>
<feComposite in2="SourceAlpha" operator="in" result="effect1_backgroundBlur_307_24632"/>
<feBlend mode="normal" in="SourceGraphic" in2="effect1_backgroundBlur_307_24632" result="shape"/>
</filter>
<linearGradient id="paint0_linear_307_24632" x1="61.4054" y1="0" x2="61.4054" y2="122.811" gradientUnits="userSpaceOnUse">
<stop stop-color="#FF8F1F"/>
<stop offset="1" stop-color="#FF8F1F" stop-opacity="0"/>
</linearGradient>
</defs>
</svg>
