<svg width="143" height="142" viewBox="0 0 143 142" fill="none" xmlns="http://www.w3.org/2000/svg">
<rect width="122.811" height="122.811" rx="28.7838" transform="matrix(1 0 0 -1 0.5 122.811)" fill="url(#paint0_linear_307_24652)"/>
<g filter="url(#filter0_b_307_24652)">
<rect width="122.811" height="122.811" rx="28.7838" transform="matrix(1 0 0 -1 19.6895 142)" fill="#EEEEEE" fillOpacity="0.61"/>
<rect x="0.959459" y="-0.959459" width="120.892" height="120.892" rx="27.8243" transform="matrix(1 0 0 -1 19.6895 140.081)" stroke="white" strokeWidth="1.91892"/>
</g>
<path d="M96.3333 97.667H74.25C72.9722 97.667 71.9311 98.0559 71.1267 98.8337C70.3222 99.6114 69.8356 100.5 69.6667 101.5C69.5 102.5 69.6533 103.473 70.1267 104.417C70.6 105.361 71.4467 106.056 72.6667 106.5L91.75 114.084C92.3056 114.306 92.8478 114.376 93.3767 114.294C93.9056 114.211 94.3911 114.03 94.8333 113.75C95.2778 113.473 95.6389 113.098 95.9167 112.627C96.1944 112.156 96.3333 111.614 96.3333 111V97.667ZM76.3333 47.667C80 47.667 83.1389 48.9725 85.75 51.5837C88.3611 54.1948 89.6667 57.3337 89.6667 61.0003C89.6667 64.667 88.3611 67.8059 85.75 70.417C83.1389 73.0281 80 74.3337 76.3333 74.3337C72.6667 74.3337 69.5278 73.0281 66.9167 70.417C64.3056 67.8059 63 64.667 63 61.0003C63 57.3337 64.3056 54.1948 66.9167 51.5837C69.5278 48.9725 72.6667 47.667 76.3333 47.667ZM107.083 77.667C108.694 77.667 110.083 78.2092 111.25 79.2937C112.417 80.3781 113 81.7248 113 83.3337C113 84.6114 112.639 85.7781 111.917 86.8337C111.194 87.8892 110.222 88.6392 109 89.0837L103 91.0003H74.25C71.0833 91.0003 68.4167 92.0837 66.25 94.2503C64.0833 96.417 63 99.0837 63 102.25C63 103.25 63.1389 104.209 63.4167 105.127C63.6944 106.045 64.0556 106.891 64.5 107.667H53V94.3337C53 89.7225 54.6256 85.7925 57.8767 82.5437C61.1278 79.2948 65.0578 77.6692 69.6667 77.667H107.083Z" fill="#FF8F1F"/>
<defs>
<filter id="filter0_b_307_24652" x="4.3381" y="3.8381" width="153.513" height="153.513" filterUnits="userSpaceOnUse" color-interpolation-filters="sRGB">
<feFlood flood-opacity="0" result="BackgroundImageFix"/>
<feGaussianBlur in="BackgroundImageFix" stdDeviation="7.67568"/>
<feComposite in2="SourceAlpha" operator="in" result="effect1_backgroundBlur_307_24652"/>
<feBlend mode="normal" in="SourceGraphic" in2="effect1_backgroundBlur_307_24652" result="shape"/>
</filter>
<linearGradient id="paint0_linear_307_24652" x1="61.4054" y1="0" x2="61.4054" y2="122.811" gradientUnits="userSpaceOnUse">
<stop stop-color="#FF8F1F"/>
<stop offset="1" stop-color="#FF8F1F" stop-opacity="0"/>
</linearGradient>
</defs>
</svg>
