<svg width="142" height="143" viewBox="0 0 142 143" fill="none" xmlns="http://www.w3.org/2000/svg">
<rect width="122.811" height="122.811" rx="28.7838" transform="matrix(1 0 0 -1 0 123.311)" fill="url(#paint0_linear_307_24641)"/>
<g filter="url(#filter0_b_307_24641)">
<rect width="122.811" height="122.811" rx="28.7838" transform="matrix(1 0 0 -1 19.1895 142.5)" fill="#EEEEEE" fillOpacity="0.61"/>
<rect x="0.959459" y="-0.959459" width="120.892" height="120.892" rx="27.8243" transform="matrix(1 0 0 -1 19.1895 140.581)" stroke="white" strokeWidth="1.91892"/>
</g>
<path d="M52.0625 67.2969C52.0625 64.8726 53.0255 62.5477 54.7397 60.8335C56.4539 59.1193 58.7789 58.1563 61.2031 58.1562H99.7969C102.221 58.1562 104.546 59.1193 106.26 60.8335C107.974 62.5477 108.938 64.8726 108.938 67.2969V93.7031C108.938 96.1274 107.974 98.4523 106.26 100.167C104.546 101.881 102.221 102.844 99.7969 102.844H61.2031C58.7789 102.844 56.4539 101.881 54.7397 100.167C53.0255 98.4523 52.0625 96.1274 52.0625 93.7031V67.2969ZM61.2031 62.2188C59.8563 62.2188 58.5647 62.7538 57.6123 63.7061C56.66 64.6584 56.125 65.9501 56.125 67.2969V70.3438H104.875V67.2969C104.875 65.9501 104.34 64.6584 103.388 63.7061C102.435 62.7538 101.144 62.2188 99.7969 62.2188H61.2031ZM56.125 93.7031C56.125 95.0499 56.66 96.3416 57.6123 97.2939C58.5647 98.2462 59.8563 98.7812 61.2031 98.7812H99.7969C101.144 98.7812 102.435 98.2462 103.388 97.2939C104.34 96.3416 104.875 95.0499 104.875 93.7031V74.4062H56.125V93.7031ZM90.6562 86.5938H96.75C97.2887 86.5938 97.8054 86.8078 98.1863 87.1887C98.5672 87.5696 98.7812 88.0863 98.7812 88.625C98.7812 89.1637 98.5672 89.6804 98.1863 90.0613C97.8054 90.4422 97.2887 90.6562 96.75 90.6562H90.6562C90.1175 90.6562 89.6009 90.4422 89.2199 90.0613C88.839 89.6804 88.625 89.1637 88.625 88.625C88.625 88.0863 88.839 87.5696 89.2199 87.1887C89.6009 86.8078 90.1175 86.5938 90.6562 86.5938Z" fill="#FF8F1F"/>
<defs>
<filter id="filter0_b_307_24641" x="3.8381" y="4.3381" width="153.513" height="153.513" filterUnits="userSpaceOnUse" color-interpolation-filters="sRGB">
<feFlood flood-opacity="0" result="BackgroundImageFix"/>
<feGaussianBlur in="BackgroundImageFix" stdDeviation="7.67568"/>
<feComposite in2="SourceAlpha" operator="in" result="effect1_backgroundBlur_307_24641"/>
<feBlend mode="normal" in="SourceGraphic" in2="effect1_backgroundBlur_307_24641" result="shape"/>
</filter>
<linearGradient id="paint0_linear_307_24641" x1="61.4054" y1="0" x2="61.4054" y2="122.811" gradientUnits="userSpaceOnUse">
<stop stop-color="#FF8F1F"/>
<stop offset="1" stop-color="#FF8F1F" stop-opacity="0"/>
</linearGradient>
</defs>
</svg>
