<svg width="180" height="30" viewBox="0 0 180 30" fill="none" xmlns="http://www.w3.org/2000/svg">
<g id="60e4a1e73807566c70e7fb96_logo-company-4-crypto-template.svg" clip-path="url(#clip0_22_53165)">
<path id="Vector" d="M40.5488 12.0426C40.5488 10.1425 40.9731 8.44538 41.8216 6.95115C42.6887 5.43847 43.8601 4.26706 45.3358 3.43693C46.8301 2.58835 48.4996 2.16406 50.3443 2.16406C52.5026 2.16406 54.3935 2.71748 56.0169 3.82432C57.6402 4.93117 58.7747 6.46229 59.4204 8.41771H54.9654C54.5226 7.49535 53.8954 6.80357 53.0837 6.34239C52.2905 5.8812 51.3681 5.65061 50.3166 5.65061C49.1913 5.65061 48.186 5.9181 47.3005 6.45307C46.4335 6.9696 45.7509 7.70749 45.2528 8.66675C44.7732 9.62601 44.5334 10.7513 44.5334 12.0426C44.5334 13.3154 44.7732 14.4407 45.2528 15.4184C45.7509 16.3777 46.4335 17.1248 47.3005 17.6598C48.186 18.1763 49.1913 18.4346 50.3166 18.4346C51.3681 18.4346 52.2905 18.204 53.0837 17.7428C53.8954 17.2632 54.5226 16.5622 54.9654 15.6398H59.4204C58.7747 17.6137 57.6402 19.154 56.0169 20.2609C54.4119 21.3493 52.5211 21.8935 50.3443 21.8935C48.4996 21.8935 46.8301 21.4784 45.3358 20.6483C43.8601 19.7997 42.6887 18.6283 41.8216 17.134C40.9731 15.6398 40.5488 13.9427 40.5488 12.0426Z" fill="white"/>
<path id="Vector_2" d="M69.5363 21.9763C68.0605 21.9763 66.7323 21.6534 65.5517 21.0078C64.371 20.3437 63.4395 19.4121 62.7569 18.213C62.0928 17.0139 61.7607 15.6304 61.7607 14.0624C61.7607 12.4943 62.102 11.1108 62.7846 9.9117C63.4856 8.71262 64.4356 7.79025 65.6347 7.1446C66.8338 6.48049 68.1712 6.14844 69.647 6.14844C71.1228 6.14844 72.4602 6.48049 73.6593 7.1446C74.8584 7.79025 75.7992 8.71262 76.4817 9.9117C77.1827 11.1108 77.5332 12.4943 77.5332 14.0624C77.5332 15.6304 77.1735 17.0139 76.4541 18.213C75.7531 19.4121 74.7938 20.3437 73.5763 21.0078C72.3772 21.6534 71.0305 21.9763 69.5363 21.9763ZM69.5363 18.6004C70.2373 18.6004 70.8922 18.4344 71.5009 18.1023C72.1282 17.7518 72.6262 17.2353 72.9952 16.5528C73.3641 15.8702 73.5486 15.0401 73.5486 14.0624C73.5486 12.605 73.1612 11.489 72.3864 10.7142C71.6301 9.92092 70.6985 9.5243 69.5916 9.5243C68.4848 9.5243 67.5532 9.92092 66.7969 10.7142C66.059 11.489 65.69 12.605 65.69 14.0624C65.69 15.5197 66.0498 16.645 66.7692 17.4382C67.5071 18.213 68.4295 18.6004 69.5363 18.6004Z" fill="white"/>
<path id="Vector_3" d="M99.4127 6.17773C101.294 6.17773 102.807 6.75882 103.95 7.921C105.112 9.06474 105.694 10.6696 105.694 12.7358V21.7288H101.82V13.2615C101.82 12.0624 101.515 11.1493 100.906 10.5221C100.298 9.87642 99.468 9.55359 98.4165 9.55359C97.365 9.55359 96.5256 9.87642 95.8984 10.5221C95.2897 11.1493 94.9853 12.0624 94.9853 13.2615V21.7288H91.1114V13.2615C91.1114 12.0624 90.807 11.1493 90.1982 10.5221C89.5895 9.87642 88.7593 9.55359 87.7078 9.55359C86.6379 9.55359 85.7893 9.87642 85.1621 10.5221C84.5533 11.1493 84.2489 12.0624 84.2489 13.2615V21.7288H80.375V6.3991H84.2489V8.25306C84.747 7.6074 85.3835 7.1001 86.1582 6.73115C86.9515 6.3622 87.8185 6.17773 88.7593 6.17773C89.9584 6.17773 91.0283 6.43599 91.9692 6.95252C92.91 7.4506 93.6386 8.17004 94.1552 9.11086C94.6532 8.22539 95.3727 7.51516 96.3135 6.98019C97.2728 6.44522 98.3058 6.17773 99.4127 6.17773Z" fill="white"/>
<path id="Vector_4" d="M113.244 8.61116C113.742 7.91016 114.424 7.32907 115.291 6.86789C116.177 6.38826 117.182 6.14844 118.307 6.14844C119.617 6.14844 120.798 6.47127 121.849 7.11693C122.919 7.76258 123.759 8.68495 124.367 9.88403C124.995 11.0647 125.308 12.439 125.308 14.007C125.308 15.575 124.995 16.9678 124.367 18.1853C123.759 19.3844 122.919 20.316 121.849 20.9801C120.798 21.6442 119.617 21.9763 118.307 21.9763C117.182 21.9763 116.186 21.7457 115.319 21.2845C114.47 20.8233 113.779 20.2422 113.244 19.5412V29.0324H109.37V6.39748H113.244V8.61116ZM121.351 14.007C121.351 13.0847 121.158 12.2914 120.77 11.6273C120.401 10.9448 119.903 10.4282 119.276 10.0777C118.667 9.72722 118.003 9.55197 117.284 9.55197C116.583 9.55197 115.919 9.73645 115.291 10.1054C114.683 10.4559 114.184 10.9724 113.797 11.655C113.428 12.3375 113.244 13.14 113.244 14.0624C113.244 14.9847 113.428 15.7872 113.797 16.4697C114.184 17.1523 114.683 17.678 115.291 18.047C115.919 18.3975 116.583 18.5727 117.284 18.5727C118.003 18.5727 118.667 18.3883 119.276 18.0193C119.903 17.6504 120.401 17.1246 120.77 16.4421C121.158 15.7595 121.351 14.9478 121.351 14.007Z" fill="white"/>
<path id="Vector_5" d="M127.127 14.007C127.127 12.4574 127.432 11.0831 128.04 9.88403C128.667 8.68495 129.507 7.76258 130.558 7.11693C131.628 6.47127 132.818 6.14844 134.128 6.14844C135.272 6.14844 136.268 6.37903 137.116 6.84021C137.983 7.3014 138.675 7.88249 139.192 8.58349V6.39748H143.093V21.7272H139.192V19.4859C138.694 20.2053 138.002 20.8049 137.116 21.2845C136.249 21.7457 135.244 21.9763 134.1 21.9763C132.809 21.9763 131.628 21.6442 130.558 20.9801C129.507 20.316 128.667 19.3844 128.04 18.1853C127.432 16.9678 127.127 15.575 127.127 14.007ZM139.192 14.0624C139.192 13.1215 139.007 12.3191 138.638 11.655C138.269 10.9724 137.771 10.4559 137.144 10.1054C136.517 9.73645 135.844 9.55197 135.124 9.55197C134.405 9.55197 133.741 9.72722 133.132 10.0777C132.523 10.4282 132.025 10.9448 131.638 11.6273C131.269 12.2914 131.084 13.0847 131.084 14.007C131.084 14.9294 131.269 15.7411 131.638 16.4421C132.025 17.1246 132.523 17.6504 133.132 18.0193C133.759 18.3883 134.423 18.5727 135.124 18.5727C135.844 18.5727 136.517 18.3975 137.144 18.047C137.771 17.678 138.269 17.1615 138.638 16.4974C139.007 15.8149 139.192 15.0032 139.192 14.0624Z" fill="white"/>
<path id="Vector_6" d="M155.372 6.17773C157.198 6.17773 158.674 6.75882 159.799 7.921C160.925 9.06474 161.487 10.6696 161.487 12.7358V21.7288H157.613V13.2615C157.613 12.044 157.309 11.1124 156.7 10.4667C156.091 9.80263 155.261 9.47058 154.21 9.47058C153.14 9.47058 152.291 9.80263 151.664 10.4667C151.055 11.1124 150.751 12.044 150.751 13.2615V21.7288H146.877V6.3991H150.751V8.3084C151.267 7.64429 151.922 7.12777 152.715 6.75882C153.527 6.37143 154.413 6.17773 155.372 6.17773Z" fill="white"/>
<path id="Vector_7" d="M179.837 6.39844L170.346 28.9779H166.223L169.543 21.3407L163.4 6.39844H167.745L171.701 17.1071L175.714 6.39844H179.837Z" fill="white"/>
<path id="Vector_8" d="M11.5032 28.8286C5.58841 28.8286 0.8125 24.016 0.8125 18.1379C0.8125 12.2599 5.58841 7.44727 11.5032 7.44727C17.3812 7.44727 22.1939 12.2232 22.1939 18.1379C22.1571 24.016 17.3812 28.8286 11.5032 28.8286Z" fill="#FF8F1F"/>
<path id="Vector_9" d="M27.305 0.615234H13.2246C12.2737 0.615234 11.5029 1.38608 11.5029 2.33697V16.4174C11.5029 17.3683 12.2737 18.1391 13.2246 18.1391H27.305C28.2559 18.1391 29.0268 17.3683 29.0268 16.4174V2.33697C29.0268 1.38608 28.2559 0.615234 27.305 0.615234Z" fill="white"/>
</g>
<defs>
<clipPath id="clip0_22_53165">
<rect width="180" height="29" fill="white" transform="translate(0 0.53125)"/>
</clipPath>
</defs>
</svg>
