<svg width="179" height="32" viewBox="0 0 179 32" fill="none" xmlns="http://www.w3.org/2000/svg">
<g id="60e4a1e73807566a10e7fb98_logo-company-5-crypto-template.svg" clip-path="url(#clip0_22_53177)">
<path id="Vector" d="M38.9912 13.4078C38.9912 11.5078 39.4154 9.81062 40.264 8.31638C41.131 6.8037 42.3025 5.63229 43.7782 4.80216C45.2725 3.95358 46.942 3.5293 48.7867 3.5293C50.945 3.5293 52.8359 4.08272 54.4592 5.18956C56.0826 6.2964 57.2171 7.82753 57.8628 9.78294H53.4078C52.965 8.86058 52.3378 8.1688 51.5261 7.70762C50.7329 7.24644 49.8105 7.01584 48.759 7.01584C47.6337 7.01584 46.6284 7.28333 45.7429 7.8183C44.8759 8.33483 44.1933 9.07272 43.6952 10.032C43.2156 10.9912 42.9758 12.1165 42.9758 13.4078C42.9758 14.6807 43.2156 15.806 43.6952 16.7837C44.1933 17.743 44.8759 18.4901 45.7429 19.0251C46.6284 19.5416 47.6337 19.7998 48.759 19.7998C49.8105 19.7998 50.7329 19.5693 51.5261 19.1081C52.3378 18.6284 52.965 17.9274 53.4078 17.0051H57.8628C57.2171 18.9789 56.0826 20.5193 54.4592 21.6261C52.8543 22.7145 50.9635 23.2587 48.7867 23.2587C46.942 23.2587 45.2725 22.8437 43.7782 22.0135C42.3025 21.1649 41.131 19.9935 40.264 18.4993C39.4154 17.0051 38.9912 15.3079 38.9912 13.4078Z" fill="white"/>
<path id="Vector_2" d="M67.9787 23.3415C66.5029 23.3415 65.1747 23.0187 63.9941 22.373C62.8134 21.7089 61.8818 20.7774 61.1993 19.5783C60.5352 18.3792 60.2031 16.9956 60.2031 15.4276C60.2031 13.8596 60.5444 12.476 61.227 11.277C61.928 10.0779 62.878 9.15549 64.0771 8.50983C65.2762 7.84572 66.6136 7.51367 68.0894 7.51367C69.5652 7.51367 70.9026 7.84572 72.1017 8.50983C73.3008 9.15549 74.2416 10.0779 74.9241 11.277C75.6251 12.476 75.9756 13.8596 75.9756 15.4276C75.9756 16.9956 75.6159 18.3792 74.8964 19.5783C74.1954 20.7774 73.2362 21.7089 72.0187 22.373C70.8196 23.0187 69.4729 23.3415 67.9787 23.3415ZM67.9787 19.9657C68.6797 19.9657 69.3346 19.7996 69.9433 19.4676C70.5705 19.1171 71.0686 18.6006 71.4376 17.918C71.8065 17.2355 71.991 16.4053 71.991 15.4276C71.991 13.9703 71.6036 12.8542 70.8288 12.0794C70.0725 11.2862 69.1409 10.8896 68.034 10.8896C66.9272 10.8896 65.9956 11.2862 65.2393 12.0794C64.5014 12.8542 64.1324 13.9703 64.1324 15.4276C64.1324 16.885 64.4921 18.0103 65.2116 18.8035C65.9495 19.5783 66.8719 19.9657 67.9787 19.9657Z" fill="white"/>
<path id="Vector_3" d="M97.855 7.54297C99.7367 7.54297 101.25 8.12406 102.393 9.28625C103.555 10.43 104.137 12.0349 104.137 14.101V23.0941H100.263V14.6268C100.263 13.4277 99.958 12.5145 99.3493 11.8873C98.7405 11.2417 97.9104 10.9188 96.8589 10.9188C95.8074 10.9188 94.968 11.2417 94.3408 11.8873C93.7321 12.5145 93.4277 13.4277 93.4277 14.6268V23.0941H89.5537V14.6268C89.5537 13.4277 89.2494 12.5145 88.6406 11.8873C88.0318 11.2417 87.2017 10.9188 86.1502 10.9188C85.0803 10.9188 84.2317 11.2417 83.6045 11.8873C82.9957 12.5145 82.6913 13.4277 82.6913 14.6268V23.0941H78.8174V7.76434H82.6913V9.6183C83.1894 8.97264 83.8259 8.46534 84.6006 8.09639C85.3939 7.72745 86.2609 7.54297 87.2017 7.54297C88.4008 7.54297 89.4707 7.80124 90.4116 8.31776C91.3524 8.81584 92.081 9.53529 92.5976 10.4761C93.0956 9.59063 93.8151 8.88041 94.7559 8.34543C95.7152 7.81046 96.7482 7.54297 97.855 7.54297Z" fill="white"/>
<path id="Vector_4" d="M111.687 9.97639C112.185 9.27539 112.867 8.6943 113.734 8.23312C114.62 7.75349 115.625 7.51367 116.75 7.51367C118.06 7.51367 119.241 7.8365 120.292 8.48216C121.362 9.12781 122.202 10.0502 122.81 11.2493C123.438 12.4299 123.751 13.8043 123.751 15.3723C123.751 16.9403 123.438 18.3331 122.81 19.5506C122.202 20.7497 121.362 21.6813 120.292 22.3454C119.241 23.0095 118.06 23.3415 116.75 23.3415C115.625 23.3415 114.629 23.1109 113.762 22.6498C112.913 22.1886 112.222 21.6075 111.687 20.9065V30.3976H107.813V7.76271H111.687V9.97639ZM119.794 15.3723C119.794 14.4499 119.601 13.6567 119.213 12.9926C118.844 12.31 118.346 11.7935 117.719 11.443C117.11 11.0925 116.446 10.9172 115.727 10.9172C115.026 10.9172 114.362 11.1017 113.734 11.4707C113.126 11.8212 112.627 12.3377 112.24 13.0202C111.871 13.7028 111.687 14.5053 111.687 15.4276C111.687 16.35 111.871 17.1524 112.24 17.835C112.627 18.5176 113.126 19.0433 113.734 19.4123C114.362 19.7627 115.026 19.938 115.727 19.938C116.446 19.938 117.11 19.7535 117.719 19.3846C118.346 19.0156 118.844 18.4899 119.213 17.8073C119.601 17.1248 119.794 16.3131 119.794 15.3723Z" fill="white"/>
<path id="Vector_5" d="M125.57 15.3723C125.57 13.8227 125.875 12.4484 126.483 11.2493C127.11 10.0502 127.95 9.12781 129.001 8.48216C130.071 7.8365 131.261 7.51367 132.571 7.51367C133.715 7.51367 134.711 7.74426 135.559 8.20545C136.426 8.66663 137.118 9.24772 137.635 9.94872V7.76271H141.536V23.0925H137.635V20.8511C137.137 21.5706 136.445 22.1701 135.559 22.6498C134.692 23.1109 133.687 23.3415 132.543 23.3415C131.252 23.3415 130.071 23.0095 129.001 22.3454C127.95 21.6813 127.11 20.7497 126.483 19.5506C125.875 18.3331 125.57 16.9403 125.57 15.3723ZM137.635 15.4276C137.635 14.4868 137.45 13.6843 137.081 13.0202C136.712 12.3377 136.214 11.8212 135.587 11.4707C134.96 11.1017 134.287 10.9172 133.567 10.9172C132.848 10.9172 132.184 11.0925 131.575 11.443C130.966 11.7935 130.468 12.31 130.081 12.9926C129.712 13.6567 129.527 14.4499 129.527 15.3723C129.527 16.2946 129.712 17.1063 130.081 17.8073C130.468 18.4899 130.966 19.0156 131.575 19.3846C132.202 19.7535 132.866 19.938 133.567 19.938C134.287 19.938 134.96 19.7627 135.587 19.4123C136.214 19.0433 136.712 18.5268 137.081 17.8627C137.45 17.1801 137.635 16.3684 137.635 15.4276Z" fill="white"/>
<path id="Vector_6" d="M153.815 7.54297C155.641 7.54297 157.117 8.12406 158.242 9.28625C159.368 10.43 159.93 12.0349 159.93 14.101V23.0941H156.056V14.6268C156.056 13.4092 155.752 12.4776 155.143 11.832C154.534 11.1679 153.704 10.8358 152.653 10.8358C151.583 10.8358 150.734 11.1679 150.107 11.832C149.498 12.4776 149.194 13.4092 149.194 14.6268V23.0941H145.32V7.76434H149.194V9.67364C149.71 9.00954 150.365 8.49301 151.158 8.12406C151.97 7.73667 152.856 7.54297 153.815 7.54297Z" fill="white"/>
<path id="Vector_7" d="M178.28 7.76367L168.789 30.3432H164.666L167.986 22.706L161.843 7.76367H166.187L170.144 18.4723L174.157 7.76367H178.28Z" fill="white"/>
<path id="Vector_8" d="M3.59846 31.4241H0.836914V12.0859H11.1958V23.8268C11.1958 28.0221 7.79621 31.4241 3.59846 31.4241Z" fill="#FF8F1F"/>
<path id="Vector_9" d="M25.008 12.0858C25.008 5.41224 19.5982 0 12.9222 0C12.3359 0 11.7595 0.0443424 11.1953 0.125637V12.0858H25.008Z" fill="#FF8F1F"/>
<path id="Vector_10" d="M21.0944 24.8265C23.7436 23.7455 25.0149 20.7217 23.934 18.0725C22.853 15.4233 19.8291 14.152 17.1799 15.2329C14.5307 16.3139 13.2594 19.3378 14.3404 21.987C15.4214 24.6362 18.4453 25.9075 21.0944 24.8265Z" fill="white"/>
</g>
<defs>
<clipPath id="clip0_22_53177">
<rect width="179" height="32" fill="white"/>
</clipPath>
</defs>
</svg>
