<svg width="178" height="30" viewBox="0 0 178 30" fill="none" xmlns="http://www.w3.org/2000/svg">
<g id="60e4a1e73807560ecae7fb97_logo-company-3-crypto-template.svg" clip-path="url(#clip0_22_53152)">
<path id="Vector" d="M22.6016 12.7741C18.8412 12.7741 15.7887 9.73327 15.7887 5.99605C15.7887 5.50858 15.8468 5.04433 15.9396 4.58008H6.88672C3.38162 4.58008 0.538086 7.41201 0.538086 10.8939V22.5582C0.538086 26.0517 3.38162 28.872 6.88672 28.872H18.6091C22.1258 28.872 24.9577 26.0401 24.9577 22.5582V12.3447C24.2381 12.6116 23.4373 12.7741 22.6016 12.7741Z" fill="#FF8F1F"/>
<path id="Vector_2" d="M24.9695 22.5582V12.3447C24.2383 12.6116 23.4374 12.7741 22.6134 12.7741C18.8529 12.7741 15.8005 9.73327 15.8005 5.99605C15.8005 5.50858 15.8585 5.04433 15.9514 4.58008H6.89843C3.41655 4.58008 0.59623 7.36559 0.549805 10.8243C8.90632 14.2713 17.495 18.4612 24.923 23.359C24.9462 23.0921 24.9695 22.8251 24.9695 22.5582Z" fill="#FF8F1F"/>
<path id="Vector_3" d="M23.1231 10.4341C25.8506 10.4341 28.0558 8.24056 28.0558 5.52469C28.0558 2.82043 25.8506 0.615234 23.1231 0.615234C20.3956 0.615234 18.1904 2.80882 18.1904 5.52469C18.1904 8.22895 20.3956 10.4341 23.1231 10.4341Z" fill="white"/>
<path id="Vector_4" d="M53.0086 16.6796C52.8145 17.5046 52.4869 18.3054 52.0258 19.082C51.5648 19.8343 50.9945 20.5137 50.315 21.1204C49.6355 21.7028 48.859 22.176 47.9854 22.54C47.1118 22.8798 46.1775 23.0496 45.1826 23.0496C44.042 23.0496 42.9621 22.8312 41.9429 22.3944C40.948 21.9333 40.0622 21.3145 39.2857 20.538C38.5334 19.7615 37.9268 18.8636 37.4657 17.8444C37.0289 16.8009 36.8105 15.6846 36.8105 14.4955C36.8105 13.3065 37.0289 12.2023 37.4657 11.1831C37.9268 10.1396 38.5334 9.22957 39.2857 8.45303C40.0622 7.67649 40.948 7.06982 41.9429 6.63301C42.9621 6.17194 44.042 5.94141 45.1826 5.94141C46.1775 5.94141 47.1118 6.12341 47.9854 6.48741C48.859 6.82715 49.6355 7.30035 50.315 7.90703C50.9945 8.48943 51.5648 9.16891 52.0258 9.94545C52.4869 10.6978 52.8145 11.4864 53.0086 12.3115H48.8226C48.6285 11.8747 48.3615 11.4864 48.0218 11.1467C47.7306 10.8555 47.3545 10.5886 46.8934 10.3458C46.4323 10.0789 45.862 9.94545 45.1826 9.94545C43.9935 9.94545 42.9985 10.358 42.1977 11.1831C41.3969 12.0082 40.9965 13.1123 40.9965 14.4955C40.9965 15.8787 41.3969 16.9829 42.1977 17.808C42.9985 18.633 43.9935 19.0456 45.1826 19.0456C45.862 19.0456 46.4323 18.9242 46.8934 18.6816C47.3545 18.4389 47.7306 18.172 48.0218 17.8808C48.3615 17.541 48.6285 17.1406 48.8226 16.6796H53.0086Z" fill="white"/>
<path id="Vector_5" d="M59.9253 14.4955C59.9253 15.8787 60.3257 16.9829 61.1265 17.808C61.9273 18.633 62.9223 19.0456 64.1114 19.0456C65.3004 19.0456 66.2954 18.633 67.0962 17.808C67.897 16.9829 68.2974 15.8787 68.2974 14.4955C68.2974 13.1123 67.897 12.0082 67.0962 11.1831C66.2954 10.358 65.3004 9.94545 64.1114 9.94545C62.9223 9.94545 61.9273 10.358 61.1265 11.1831C60.3257 12.0082 59.9253 13.1123 59.9253 14.4955ZM72.4834 14.4955C72.4834 15.6846 72.2529 16.8009 71.7918 17.8444C71.355 18.8636 70.7484 19.7615 69.9718 20.538C69.2195 21.3145 68.3338 21.9333 67.3146 22.3944C66.3196 22.8312 65.2519 23.0496 64.1114 23.0496C62.9708 23.0496 61.8909 22.8312 60.8717 22.3944C59.8768 21.9333 58.991 21.3145 58.2145 20.538C57.4622 19.7615 56.8555 18.8636 56.3945 17.8444C55.9577 16.8009 55.7393 15.6846 55.7393 14.4955C55.7393 13.3065 55.9577 12.2023 56.3945 11.1831C56.8555 10.1396 57.4622 9.22957 58.2145 8.45303C58.991 7.67649 59.8768 7.06982 60.8717 6.63301C61.8909 6.17194 62.9708 5.94141 64.1114 5.94141C65.2519 5.94141 66.3196 6.17194 67.3146 6.63301C68.3338 7.06982 69.2195 7.67649 69.9718 8.45303C70.7484 9.22957 71.355 10.1396 71.7918 11.1831C72.2529 12.2023 72.4834 13.3065 72.4834 14.4955Z" fill="white"/>
<path id="Vector_6" d="M84.1142 5.94141C84.9635 5.94141 85.6915 6.06274 86.2982 6.30541C86.9049 6.52381 87.4024 6.76648 87.7906 7.03342C88.2274 7.34889 88.5793 7.71289 88.8462 8.12543C89.2345 7.71289 89.6834 7.34889 90.1931 7.03342C90.6299 6.76648 91.1516 6.52381 91.7583 6.30541C92.3649 6.06274 93.0323 5.94141 93.7603 5.94141C95.5803 5.94141 97.0363 6.52381 98.1283 7.68862C99.2203 8.85344 99.7663 10.5764 99.7663 12.8575V22.8676H95.5803V13.2215C95.5803 12.2023 95.3012 11.4015 94.7431 10.8191C94.2092 10.2366 93.5783 9.94545 92.8503 9.94545C92.1223 9.94545 91.4792 10.2366 90.9211 10.8191C90.3872 11.4015 90.1203 12.2023 90.1203 13.2215V22.8676H85.9342V13.2215C85.9342 12.2023 85.6551 11.4015 85.097 10.8191C84.5631 10.2366 83.9322 9.94545 83.2042 9.94545C82.4762 9.94545 81.8331 10.2366 81.275 10.8191C80.7411 11.4015 80.4742 12.2023 80.4742 13.2215V22.8676H76.2881V6.12341H79.3821L80.1102 7.76142C80.4499 7.42169 80.826 7.11835 81.2386 6.85141C81.5783 6.63301 81.9908 6.42674 82.4762 6.23261C82.9615 6.03847 83.5075 5.94141 84.1142 5.94141Z" fill="white"/>
<path id="Vector_7" d="M112.87 5.94141C113.914 5.94141 114.909 6.15981 115.855 6.59661C116.801 7.00915 117.626 7.60369 118.33 8.38023C119.058 9.13251 119.629 10.0304 120.041 11.0739C120.478 12.1174 120.696 13.2579 120.696 14.4955C120.696 15.7331 120.478 16.8737 120.041 17.9172C119.629 18.9606 119.058 19.8707 118.33 20.6472C117.626 21.3995 116.801 21.994 115.855 22.4308C114.909 22.8434 113.914 23.0496 112.87 23.0496C112.166 23.0496 111.548 22.9647 111.014 22.7948C110.504 22.625 110.055 22.4429 109.667 22.2488C109.23 22.0061 108.842 21.7271 108.502 21.4116V28.6917H104.316V6.12341H107.41L108.138 7.76142C108.502 7.42169 108.927 7.11835 109.412 6.85141C109.825 6.63301 110.322 6.42674 110.905 6.23261C111.487 6.03847 112.142 5.94141 112.87 5.94141ZM108.138 14.4955C108.138 15.8787 108.539 16.9829 109.339 17.808C110.14 18.633 111.135 19.0456 112.324 19.0456C113.513 19.0456 114.508 18.633 115.309 17.808C116.11 16.9829 116.51 15.8787 116.51 14.4955C116.51 13.1123 116.11 12.0082 115.309 11.1831C114.508 10.358 113.513 9.94545 112.324 9.94545C111.135 9.94545 110.14 10.358 109.339 11.1831C108.539 12.0082 108.138 13.1123 108.138 14.4955Z" fill="white"/>
<path id="Vector_8" d="M131.44 5.94141C132.386 5.94141 133.26 6.11127 134.061 6.45101C134.862 6.76648 135.553 7.21542 136.136 7.79782C136.718 8.38023 137.167 9.07184 137.483 9.87265C137.822 10.6735 137.992 11.5471 137.992 12.4935V22.8676H134.898L134.17 21.2296C133.782 21.5693 133.357 21.8727 132.896 22.1396C132.484 22.3823 131.986 22.6007 131.404 22.7948C130.821 22.9647 130.166 23.0496 129.438 23.0496C127.618 23.0496 126.223 22.6128 125.252 21.7392C124.281 20.8413 123.796 19.7008 123.796 18.3176C123.796 17.4925 123.954 16.7402 124.269 16.0607C124.609 15.357 125.167 14.7625 125.944 14.2771C126.72 13.7675 127.739 13.3793 129.001 13.1123C130.287 12.8211 131.889 12.6755 133.806 12.6755C133.806 11.7534 133.551 11.0375 133.042 10.5278C132.556 10.0182 131.901 9.76345 131.076 9.76345C130.518 9.76345 130.069 9.86051 129.729 10.0546C129.414 10.2488 129.159 10.455 128.965 10.6735C128.746 10.9404 128.601 11.2438 128.528 11.5835H124.342C124.439 10.807 124.657 10.0789 124.997 9.39944C125.361 8.71997 125.847 8.12543 126.453 7.61582C127.06 7.10622 127.776 6.70581 128.601 6.41461C129.45 6.09914 130.397 5.94141 131.44 5.94141ZM130.166 19.7736C131.258 19.7736 132.132 19.4581 132.787 18.8272C133.466 18.172 133.806 17.3348 133.806 16.3156V15.5875C132.568 15.5875 131.574 15.6482 130.821 15.7695C130.069 15.8666 129.474 16.0243 129.038 16.2428C128.625 16.4369 128.346 16.6796 128.2 16.9708C128.055 17.262 127.982 17.5896 127.982 17.9536C127.982 18.4146 128.188 18.8393 128.601 19.2276C129.013 19.5916 129.535 19.7736 130.166 19.7736Z" fill="white"/>
<path id="Vector_9" d="M151.082 5.94141C152.077 5.94141 152.987 6.11127 153.812 6.45101C154.637 6.76648 155.341 7.23969 155.923 7.87063C156.53 8.4773 156.991 9.21744 157.306 10.091C157.646 10.9647 157.816 11.9475 157.816 13.0395V22.8676H153.63V13.5855C153.63 12.4935 153.302 11.6199 152.647 10.9647C152.016 10.2852 151.191 9.94545 150.172 9.94545C149.153 9.94545 148.316 10.2852 147.66 10.9647C147.029 11.6199 146.714 12.4935 146.714 13.5855V22.8676H142.528V6.12341H145.622L146.35 7.76142C146.763 7.42169 147.211 7.11835 147.697 6.85141C148.109 6.63301 148.595 6.42674 149.153 6.23261C149.735 6.03847 150.378 5.94141 151.082 5.94141Z" fill="white"/>
<path id="Vector_10" d="M160.561 6.12305H164.929L169.115 17.0432L172.937 6.12305H177.306C176.116 9.18068 175.037 11.9471 174.066 14.4223C173.653 15.4901 173.241 16.5336 172.828 17.5528C172.44 18.572 172.088 19.5063 171.773 20.3556C171.457 21.1807 171.19 21.8723 170.972 22.4304C170.753 22.9886 170.62 23.3162 170.571 23.4132C170.159 24.4082 169.746 25.2454 169.334 25.9248C168.946 26.6286 168.521 27.1989 168.06 27.6357C167.599 28.0725 167.101 28.3879 166.567 28.5821C166.034 28.7762 165.427 28.8733 164.747 28.8733C164.553 28.8733 164.359 28.8611 164.165 28.8369C163.995 28.8369 163.85 28.8247 163.728 28.8005C163.558 28.7762 163.413 28.7398 163.291 28.6913V25.2332C164.214 25.2332 164.917 25.027 165.403 24.6144C165.912 24.2019 166.3 23.6802 166.567 23.0492L166.931 22.1392L160.561 6.12305Z" fill="white"/>
</g>
<defs>
<clipPath id="clip0_22_53152">
<rect width="177" height="29" fill="white" transform="translate(0.492188 0.53125)"/>
</clipPath>
</defs>
</svg>
