<svg width="40" height="41" viewBox="0 0 40 41" fill="none" xmlns="http://www.w3.org/2000/svg">
<path d="M-18 -3.46094C-18 -10.0884 -12.6274 -15.4609 -6 -15.4609H47C53.6274 -15.4609 59 -10.0884 59 -3.46094V44.5391C59 51.1665 53.6274 56.5391 47 56.5391H-6C-12.6274 56.5391 -18 51.1665 -18 44.5391V-3.46094Z" fill="#00BE64" fill-opacity="0.04"/>
<path d="M2.91818 6.36248C2.52532 4.89105 4.03675 3.6339 5.41246 4.28962L36.1239 18.931C37.4796 19.5768 37.4796 21.5082 36.1239 22.1539L5.41103 36.7968C4.03532 37.451 2.52389 36.1939 2.91675 34.7225L6.71389 20.5425L2.91818 6.36248ZM8.64389 21.6139L5.18961 34.5282L34.5253 20.5425L5.18961 6.55676L8.64389 19.471H24.6425C24.9266 19.471 25.1991 19.5839 25.4001 19.7849C25.601 19.9858 25.7139 20.2583 25.7139 20.5425C25.7139 20.8266 25.601 21.0992 25.4001 21.3001C25.1991 21.501 24.9266 21.6139 24.6425 21.6139H8.64389Z" fill="#00BE64"/>
</svg>
