<svg width="176" height="30" viewBox="0 0 176 30" fill="none" xmlns="http://www.w3.org/2000/svg">
<g id="60e4a1e73807569833e7fb95_logo-company-2-crypto-template.svg" clip-path="url(#clip0_22_53138)">
<path id="Vector" d="M60.8034 15.896C59.5404 17.9449 57.7441 19.1237 55.4146 19.1237C52.0467 19.1237 49.5768 16.4012 49.5768 12.8929C49.5768 9.38458 51.9344 6.69021 55.4708 6.69021C57.7161 6.69021 59.7368 7.95319 60.7472 9.86171L64.0029 7.2796C62.347 4.33263 59.3439 2.56445 55.5269 2.56445C49.4084 2.56445 45.1143 7.1112 45.1143 12.8929C45.1143 18.6746 49.4926 23.2494 55.4708 23.2494C59.2317 23.2494 62.3751 21.2567 64.0871 18.422L60.8034 15.896Z" fill="white"/>
<path id="Vector_2" d="M73.0025 8.17773C68.5119 8.17773 65.2842 11.4335 65.2842 15.6996C65.2842 19.9376 68.5119 23.2494 73.0025 23.2494C77.4931 23.2494 80.7207 19.9376 80.7207 15.6996C80.7207 11.4335 77.4931 8.17773 73.0025 8.17773ZM73.0025 11.9667C74.9391 11.9667 76.3985 13.4543 76.3985 15.6996C76.3985 17.9449 74.9391 19.4605 73.0025 19.4605C71.0659 19.4605 69.6065 17.9449 69.6065 15.6996C69.6065 13.4543 71.0659 11.9667 73.0025 11.9667Z" fill="white"/>
<path id="Vector_3" d="M83.5088 8.51452V22.9126H87.7749V15.4189C87.7749 13.5385 88.7572 11.9387 90.5534 11.9387C92.1252 11.9387 93.1355 12.921 93.1355 14.8014V22.9126H97.4016V15.4189C97.4016 13.5385 98.384 11.9387 100.18 11.9387C101.752 11.9387 102.734 12.921 102.734 14.8014V22.9126H107V14.1559C107 10.423 104.895 8.17773 101.443 8.17773C99.0014 8.17773 97.6262 9.24425 96.5877 10.7037C95.6054 9.10392 94.0337 8.17773 91.8164 8.17773C89.936 8.17773 88.5327 8.90745 87.6065 10.3669V8.51452H83.5088Z" fill="white"/>
<path id="Vector_4" d="M118.193 11.9387C120.017 11.9387 121.533 13.4262 121.533 15.7557C121.533 18.001 120.017 19.4885 118.193 19.4885C116.285 19.4885 114.797 18.0291 114.797 15.7557C114.797 13.3981 116.285 11.9387 118.193 11.9387ZM114.601 8.51452H110.643V28.5259H114.909V21.3409C115.807 22.6881 117.52 23.2494 119.063 23.2494C122.992 23.2494 125.827 19.9937 125.827 15.6996C125.827 11.2651 122.768 8.17773 119.091 8.17773C117.688 8.17773 115.723 8.76712 114.601 10.5072V8.51452Z" fill="white"/>
<path id="Vector_5" d="M136.089 13.9594L132.16 14.7172C129.128 15.3628 127.473 16.8222 127.473 18.9553C127.473 21.4532 129.437 23.2494 132.244 23.2494C134.152 23.2494 135.556 22.4074 136.229 21.1444V22.9126H140.187V13.8472C140.187 10.3388 137.801 8.17773 133.787 8.17773C131.093 8.17773 128.932 9.30038 127.613 10.9002L129.83 13.5946C130.7 12.6123 131.935 11.8545 133.535 11.8545C134.994 11.8545 136.089 12.4158 136.089 13.8472V13.9594ZM133.198 20.0779C132.188 20.0779 131.542 19.5166 131.542 18.7027C131.542 17.9168 132.104 17.4116 133.254 17.2151L136.117 16.6538V17.0748C136.117 18.7869 134.966 20.0779 133.198 20.0779Z" fill="white"/>
<path id="Vector_6" d="M143.78 8.51452V22.9126H148.046V15.4189C148.046 13.5385 149.029 11.9387 150.881 11.9387C152.453 11.9387 153.463 12.921 153.463 14.8014V22.9126H157.729V14.1559C157.729 10.423 155.596 8.17773 152.144 8.17773C150.207 8.17773 148.804 8.90745 147.878 10.3669V8.51452H143.78Z" fill="white"/>
<path id="Vector_7" d="M164.695 22.3785L164.527 22.8556C163.909 24.9044 162.871 25.2693 161.748 25.2693C161.271 25.2693 160.541 25.2132 159.783 24.7922V28.3285C160.429 28.6373 161.355 28.8618 162.365 28.8618C165.088 28.8618 166.828 27.5707 168.259 24.0905L174.546 8.51367H170.196L166.828 17.944L163.488 8.51367H159.026L164.695 22.3785Z" fill="white"/>
<path id="Vector_8" d="M19.7098 0.615234H15.2308C14.763 0.615234 14.3838 0.994447 14.3838 1.46223V25.3094C14.3838 25.7772 14.763 26.1564 15.2308 26.1564H19.7098C20.1776 26.1564 20.5568 25.7772 20.5568 25.3094V1.46223C20.5568 0.994447 20.1776 0.615234 19.7098 0.615234Z" fill="white"/>
<path id="Vector_9" d="M28.839 26.1566C31.737 26.1566 34.0863 23.8073 34.0863 20.9094C34.0863 18.0114 31.737 15.6621 28.839 15.6621C25.9411 15.6621 23.5918 18.0114 23.5918 20.9094C23.5918 23.8073 25.9411 26.1566 28.839 26.1566Z" fill="#FF8F1F"/>
<path id="Vector_10" d="M28.839 11.1097C31.737 11.1097 34.0863 8.76046 34.0863 5.86248C34.0863 2.96451 31.737 0.615234 28.839 0.615234C25.9411 0.615234 23.5918 2.96451 23.5918 5.86248C23.5918 8.76046 25.9411 11.1097 28.839 11.1097Z" fill="#FF8F1F"/>
<path id="Vector_11" d="M6.10174 26.1566C8.99971 26.1566 11.349 23.8073 11.349 20.9094C11.349 18.0114 8.99971 15.6621 6.10174 15.6621C3.20376 15.6621 0.854492 18.0114 0.854492 20.9094C0.854492 23.8073 3.20376 26.1566 6.10174 26.1566Z" fill="#FF8F1F"/>
</g>
<defs>
<clipPath id="clip0_22_53138">
<rect width="175" height="29" fill="white" transform="translate(0.5 0.53125)"/>
</clipPath>
</defs>
</svg>
