<svg width="77" height="73" viewBox="0 0 77 73" fill="none" xmlns="http://www.w3.org/2000/svg">
<rect y="0.539062" width="77" height="72" rx="12" fill="#00BE64" fill-opacity="0.04"/>
<g opacity="0.84992" clip-path="url(#clip0_2_118668)">
<path opacity="0.4" d="M47.7179 15.5391H28.3711C21.3207 15.5391 17.3262 19.5336 17.3262 26.5839V45.9124C17.3262 52.9627 21.3207 56.9573 28.3711 56.9573H47.7179C54.7683 56.9573 58.7444 52.9627 58.7444 45.9124V26.5839C58.7444 19.5336 54.7683 15.5391 47.7179 15.5391Z" fill="#00BE64"/>
<path d="M28.4424 30.7998C27.5036 30.7998 26.7305 31.5729 26.7305 32.5301V46.7596C26.7305 47.6985 27.5036 48.4715 28.4424 48.4715C29.3996 48.4715 30.1728 47.6985 30.1728 46.7596V32.5301C30.1728 31.5729 29.3996 30.7998 28.4424 30.7998Z" fill="#00BE64"/>
<path d="M38.1084 24.0068C37.1696 24.0068 36.3965 24.78 36.3965 25.7372V46.7592C36.3965 47.698 37.1696 48.4712 38.1084 48.4712C39.0656 48.4712 39.8387 47.698 39.8387 46.7592V25.7372C39.8387 24.78 39.0656 24.0068 38.1084 24.0068Z" fill="#00BE64"/>
<path d="M47.6445 38.3105C46.6873 38.3105 45.9141 39.0837 45.9141 40.0409V46.7599C45.9141 47.6987 46.6873 48.4718 47.626 48.4718C48.5832 48.4718 49.3564 47.6987 49.3564 46.7599V40.0409C49.3564 39.0837 48.5832 38.3105 47.6445 38.3105Z" fill="#00BE64"/>
</g>
<defs>
<clipPath id="clip0_2_118668">
<rect width="42" height="42" fill="white" transform="translate(17 15.5391)"/>
</clipPath>
</defs>
</svg>
