<svg width="77" height="73" viewBox="0 0 77 73" fill="none" xmlns="http://www.w3.org/2000/svg">
<rect y="0.539062" width="77" height="72" rx="12" fill="#00BE64" fill-opacity="0.04"/>
<g opacity="0.84992">
<path d="M48.1375 27.0929C46.4157 25.0156 44.0921 23.5181 41.4841 22.8049C38.8762 22.0917 36.1108 22.1975 33.5654 23.1079C31.02 24.0183 28.8187 25.6889 27.262 27.8917C25.7052 30.0946 24.869 32.7222 24.8672 35.4159V38.9898" stroke="#00BE64" stroke-opacity="0.3" stroke-width="4.92496" stroke-linecap="round" stroke-linejoin="round"/>
<path d="M29.043 46.5779C30.8486 48.4836 33.187 49.8056 35.7554 50.3725C38.3239 50.9395 41.0041 50.7254 43.449 49.758C45.8939 48.7905 47.9909 47.1143 49.4685 44.9464C50.9462 42.7784 51.7364 40.2185 51.7368 37.5981V35.2188" stroke="#00BE64" stroke-opacity="0.3" stroke-width="4.92496" stroke-linecap="round" stroke-linejoin="round"/>
<path d="M30.8146 36.1364C30.807 36.2797 30.7595 36.4189 30.6748 36.5397L25.1085 44.3941C24.955 44.6099 24.7022 44.7332 24.4371 44.7193C24.172 44.7055 23.9336 44.5565 23.8035 44.326L19.0919 35.9351C18.9554 35.6909 18.9618 35.3915 19.1114 35.154C19.2599 34.9155 19.5258 34.7774 19.8064 34.7921L30.0843 35.3286C30.3648 35.3432 30.6148 35.5082 30.7375 35.7609C30.7961 35.88 30.8213 36.0096 30.8146 36.1364Z" fill="#00BE64"/>
<path d="M45.4848 38.2878C45.4898 38.1462 45.5343 38.0082 45.6157 37.8875L50.9717 30.0428C51.1195 29.8273 51.3667 29.7013 51.6285 29.7104C51.8903 29.7195 52.1282 29.8624 52.2604 30.0876L57.054 38.2854C57.193 38.524 57.1918 38.8194 57.0483 39.0563C56.9059 39.2942 56.6459 39.435 56.3689 39.4253L46.2193 39.0723C45.9423 39.0627 45.6928 38.9042 45.5674 38.657C45.5075 38.5405 45.4804 38.4131 45.4848 38.2878Z" fill="#00BE64"/>
</g>
</svg>
