<svg width="77" height="73" viewBox="0 0 77 73" fill="none" xmlns="http://www.w3.org/2000/svg">
<rect y="0.539062" width="77" height="72" rx="12" fill="#00BE64" fill-opacity="0.04"/>
<g opacity="0.84992" clip-path="url(#clip0_57_2142)">
<path fill-rule="evenodd" clip-rule="evenodd" d="M57.1493 29.8526H48.8586C45.0005 29.8593 41.8749 32.8996 41.8679 36.6527C41.8627 40.4142 44.9917 43.4681 48.8586 43.4732H57.1563V44.0708C57.1563 50.6322 53.1693 54.5122 46.4223 54.5122H28.7358C21.987 54.5122 18 50.6322 18 44.0708V29.7797C18 23.2183 21.987 19.3535 28.7358 19.3535H46.4153C53.1624 19.3535 57.1493 23.2183 57.1493 29.7797V29.8526ZM27.2792 29.8372H38.3213H38.3282H38.3422C39.1688 29.8339 39.837 29.1787 39.8335 28.3729C39.8301 27.5688 39.1548 26.9188 38.3282 26.9221H27.2792C26.4578 26.9255 25.7913 27.5739 25.7878 28.3746C25.7843 29.1787 26.4526 29.8339 27.2792 29.8372Z" fill="#00BE64"/>
<path opacity="0.4" d="M45.4833 37.5123C45.8928 39.3703 47.5255 40.6774 49.3896 40.6435H55.7523C56.5279 40.6435 57.1571 40.0026 57.1571 39.2105V34.2657C57.1553 33.4753 56.5279 32.8328 55.7523 32.8311H49.2398C47.1194 32.8379 45.4068 34.5938 45.4102 36.7576C45.4102 37.0109 45.4352 37.2642 45.4833 37.5123Z" fill="#00BE64"/>
<path d="M49.325 38.6907C50.4063 38.6907 51.2828 37.8162 51.2828 36.7374C51.2828 35.6587 50.4063 34.7842 49.325 34.7842C48.2437 34.7842 47.3672 35.6587 47.3672 36.7374C47.3672 37.8162 48.2437 38.6907 49.325 38.6907Z" fill="#00BE64"/>
</g>
<defs>
<clipPath id="clip0_57_2142">
<rect width="40" height="36.2791" fill="white" transform="translate(18 18.5391)"/>
</clipPath>
</defs>
</svg>
