<svg width="41" height="41" viewBox="0 0 41 41" fill="none" xmlns="http://www.w3.org/2000/svg">
<rect x="0.896484" y="0.451172" width="40" height="40" rx="4" fill="#00BE64"/>
<g clip-path="url(#clip0_2_118737)">
<path d="M20.2091 33.7796C27.5615 33.7796 33.5218 27.8193 33.5218 20.4669C33.5218 13.1146 27.5615 7.1543 20.2091 7.1543C12.8568 7.1543 6.89648 13.1146 6.89648 20.4669C6.89648 27.8193 12.8568 33.7796 20.2091 33.7796Z" fill="white" fill-opacity="0.4"/>
<path d="M22.8158 12.2463C22.8158 11.9092 22.4082 11.7404 22.1699 11.9788L13.4897 20.659C13.3985 20.7502 13.3365 20.8664 13.3113 20.9929C13.2862 21.1194 13.2991 21.2505 13.3485 21.3696C13.3978 21.4888 13.4813 21.5907 13.5885 21.6623C13.6957 21.7341 13.8218 21.7724 13.9507 21.7725H17.2263C17.4352 21.7725 17.6047 21.942 17.6047 22.1509V28.6888C17.6047 29.0259 18.0122 29.1947 18.2505 28.9563L26.9308 20.2762C27.0219 20.1849 27.0839 20.0687 27.1091 19.9422C27.1342 19.8157 27.1212 19.6846 27.0719 19.5654C27.0226 19.4463 26.939 19.3445 26.8319 19.2727C26.7246 19.2011 26.5986 19.1627 26.4697 19.1626H23.1941C22.9852 19.1626 22.8158 18.9932 22.8158 18.7842V12.2463Z" fill="white"/>
</g>
<defs>
<clipPath id="clip0_2_118737">
<rect width="27.2432" height="28" fill="white" transform="translate(6.89648 6.45117)"/>
</clipPath>
</defs>
</svg>
