<svg width="184" height="27" viewBox="0 0 184 27" fill="none" xmlns="http://www.w3.org/2000/svg">
<g id="60e4a1e7380756458de7fb94_logo-company-1-crypto-template.svg" clip-path="url(#clip0_22_53125)">
<path id="Vector" d="M64.4797 20.707C63.0122 20.707 61.7187 20.3949 60.5987 19.7709C59.4789 19.1469 58.5908 18.277 57.9342 17.1613C57.2971 16.0456 56.9785 14.7691 56.9785 13.332C56.9785 11.8948 57.2971 10.6183 57.9342 9.50268C58.5908 8.38698 59.4789 7.51711 60.5987 6.89308C61.7187 6.26905 63.0122 5.95703 64.4797 5.95703C66.314 5.95703 67.8586 6.42978 69.1136 7.37529C70.3687 8.30188 71.17 9.58777 71.5175 11.2329H67.6077C67.4145 10.5522 67.0284 10.0227 66.4491 9.6445C65.8892 9.24739 65.2231 9.04883 64.4507 9.04883C63.4274 9.04883 62.5586 9.42704 61.8442 10.1834C61.1298 10.9398 60.7726 11.9893 60.7726 13.332C60.7726 14.6746 61.1298 15.7241 61.8442 16.4805C62.5586 17.237 63.4274 17.6151 64.4507 17.6151C65.2231 17.6151 65.8892 17.426 66.4491 17.0478C67.0284 16.6696 67.4145 16.1307 67.6077 15.431H71.5175C71.17 17.0194 70.3687 18.2959 69.1136 19.2603C67.8586 20.2247 66.314 20.707 64.4797 20.707Z" fill="white"/>
<path id="Vector_2" d="M81.1221 20.707C79.7319 20.707 78.4768 20.3949 77.3569 19.7709C76.2564 19.1469 75.3779 18.2865 74.7214 17.1896C74.0842 16.0739 73.7656 14.788 73.7656 13.332C73.7656 11.8759 74.0939 10.5994 74.7503 9.50268C75.4068 8.38698 76.2853 7.51711 77.3859 6.89308C78.5058 6.26905 79.7608 5.95703 81.151 5.95703C82.5219 5.95703 83.7576 6.26905 84.8582 6.89308C85.978 7.51711 86.8565 8.38698 87.4938 9.50268C88.1502 10.5994 88.4785 11.8759 88.4785 13.332C88.4785 14.788 88.1502 16.0739 87.4938 17.1896C86.8565 18.2865 85.978 19.1469 84.8582 19.7709C83.7383 20.3949 82.4929 20.707 81.1221 20.707ZM81.1221 17.5584C82.0875 17.5584 82.9274 17.2085 83.6418 16.5089C84.3561 15.7903 84.7133 14.7314 84.7133 13.332C84.7133 11.9326 84.3561 10.8831 83.6418 10.1834C82.9274 9.46485 82.0971 9.10557 81.151 9.10557C80.1663 9.10557 79.3167 9.46485 78.6024 10.1834C77.9073 10.8831 77.5597 11.9326 77.5597 13.332C77.5597 14.7314 77.9073 15.7903 78.6024 16.5089C79.3167 17.2085 80.1567 17.5584 81.1221 17.5584Z" fill="white"/>
<path id="Vector_3" d="M91.2139 20.3665V6.29741H94.4862L94.8048 8.19788C95.2689 7.51711 95.8768 6.97818 96.6302 6.58107C97.4019 6.16504 98.2907 5.95703 99.294 5.95703C101.515 5.95703 103.088 6.79853 104.015 8.48153C104.537 7.70621 105.231 7.09164 106.1 6.63779C106.989 6.18395 107.954 5.95703 108.997 5.95703C110.87 5.95703 112.308 6.50542 113.312 7.60221C114.316 8.699 114.818 10.3063 114.818 12.4243V20.3665H111.111V12.7647C111.111 11.5544 110.87 10.6278 110.387 9.98492C109.924 9.34194 109.2 9.02047 108.215 9.02047C107.211 9.02047 106.4 9.37976 105.782 10.0983C105.183 10.8169 104.885 11.8192 104.885 13.105V20.3665H101.177V12.7647C101.177 11.5544 100.935 10.6278 100.453 9.98492C99.9705 9.34194 99.2272 9.02047 98.223 9.02047C97.238 9.02047 96.437 9.37976 95.8191 10.0983C95.2204 10.8169 94.9211 11.8192 94.9211 13.105V20.3665H91.2139Z" fill="white"/>
<path id="Vector_4" d="M117.758 26.6069V6.29741H121.06L121.465 8.31134C121.928 7.6873 122.537 7.13891 123.29 6.66616C124.062 6.19341 125.056 5.95703 126.273 5.95703C127.624 5.95703 128.832 6.2785 129.894 6.92144C130.955 7.56439 131.795 8.44371 132.413 9.55941C133.031 10.6751 133.34 11.9421 133.34 13.3604C133.34 14.7786 133.031 16.0456 132.413 17.1613C131.795 18.258 130.955 19.128 129.894 19.7709C128.832 20.3949 127.624 20.707 126.273 20.707C125.192 20.707 124.245 20.5084 123.434 20.1113C122.624 19.7141 121.967 19.1563 121.465 18.4377V26.6069H117.758ZM125.491 17.53C126.669 17.53 127.644 17.1424 128.416 16.367C129.189 15.5918 129.575 14.5895 129.575 13.3604C129.575 12.1312 129.189 11.1195 128.416 10.3253C127.644 9.53105 126.669 9.13393 125.491 9.13393C124.294 9.13393 123.309 9.53105 122.537 10.3253C121.784 11.1006 121.408 12.1028 121.408 13.332C121.408 14.5611 121.784 15.5729 122.537 16.367C123.309 17.1424 124.294 17.53 125.491 17.53Z" fill="white"/>
<path id="Vector_5" d="M141.025 20.707C139.789 20.707 138.775 20.5178 137.984 20.1396C137.192 19.7425 136.603 19.2225 136.217 18.5795C135.831 17.9366 135.638 17.2274 135.638 16.4521C135.638 15.1474 136.159 14.0884 137.201 13.2753C138.244 12.4621 139.808 12.0555 141.894 12.0555H145.543V11.7152C145.543 10.7508 145.262 10.0416 144.703 9.58777C144.143 9.13393 143.448 8.90701 142.618 8.90701C141.864 8.90701 141.208 9.08665 140.648 9.44594C140.088 9.78634 139.741 10.2969 139.605 10.9777H135.986C136.082 9.9565 136.43 9.06774 137.028 8.31134C137.646 7.55494 138.437 6.97818 139.403 6.58107C140.369 6.16504 141.45 5.95703 142.646 5.95703C144.693 5.95703 146.305 6.45815 147.483 7.46039C148.661 8.46262 149.25 9.88092 149.25 11.7152V20.3665H146.093L145.746 18.0973C145.321 18.8537 144.722 19.4778 143.95 19.9695C143.197 20.4611 142.221 20.707 141.025 20.707ZM141.864 17.8704C142.926 17.8704 143.747 17.53 144.326 16.8493C144.925 16.1685 145.302 15.327 145.456 14.3248H142.299C141.314 14.3248 140.609 14.5044 140.185 14.8637C139.76 15.2041 139.547 15.6295 139.547 16.1401C139.547 16.6885 139.76 17.114 140.185 17.4165C140.609 17.7191 141.17 17.8704 141.864 17.8704Z" fill="white"/>
<path id="Vector_6" d="M152.209 20.3665V6.29741H155.482L155.771 8.68008C156.215 7.84804 156.852 7.18619 157.682 6.69453C158.532 6.20286 159.527 5.95703 160.666 5.95703C162.442 5.95703 163.823 6.50542 164.807 7.60221C165.792 8.699 166.285 10.3063 166.285 12.4243V20.3665H162.577V12.7647C162.577 11.5544 162.326 10.6278 161.824 9.98492C161.322 9.34194 160.54 9.02047 159.478 9.02047C158.436 9.02047 157.576 9.37976 156.901 10.0983C156.244 10.8169 155.916 11.8192 155.916 13.105V20.3665H152.209Z" fill="white"/>
<path id="Vector_7" d="M170.565 26.6083L173.896 19.4319H173.027L167.438 6.29883H171.464L175.489 16.1983L179.689 6.29883H183.628L174.505 26.6083H170.565Z" fill="white"/>
<path id="Vector_8" d="M14.7261 24.1626C13.7575 25.1112 12.1867 25.1099 11.2198 24.1596L1.96377 15.0633C0.999186 14.1154 1.00053 12.5815 1.96678 11.6352L11.2228 2.56999C12.189 1.62365 13.7552 1.62234 14.7231 2.56705L24.0109 11.6322C24.9811 12.5792 24.9825 14.1176 24.0139 15.0663L14.7261 24.1626Z" fill="#FF8F1F"/>
<path id="Vector_9" d="M27.5207 24.1577C26.5538 25.1079 24.9829 25.1093 24.0143 24.1606L14.7265 15.0643C13.7579 14.1157 13.7593 12.5773 14.7296 11.6302L24.0174 2.56509C24.9852 1.62039 26.5514 1.6217 27.5177 2.56803L36.7737 11.6332C37.7399 12.5795 37.7413 14.1134 36.7767 15.0613L27.5207 24.1577Z" fill="white"/>
<path id="Vector_10" d="M37.0047 24.1598C36.037 25.1091 34.4664 25.1091 33.4986 24.1598L24.2251 15.0632C23.2584 14.1149 23.2597 12.5785 24.2282 11.6318L33.5017 2.56643C34.4687 1.62108 36.0347 1.62108 37.0018 2.56643L46.2752 11.6318C47.2436 12.5785 47.245 14.1149 46.2782 15.0632L37.0047 24.1598Z" fill="#FF8F1F"/>
</g>
<defs>
<clipPath id="clip0_22_53125">
<rect width="184" height="26" fill="white" transform="translate(0.217773 0.78125)"/>
</clipPath>
</defs>
</svg>
