<svg width="59" height="58" viewBox="0 0 59 58" fill="none" xmlns="http://www.w3.org/2000/svg">
<g id="fad:phase">
<path id="Vector" fillRule="evenodd" clipRule="evenodd" d="M27.0831 41.4257L25.4078 46.0289C25.3672 46.1406 25.3051 46.2432 25.2249 46.331C25.1447 46.4187 25.048 46.4897 24.9403 46.5401C24.8326 46.5904 24.7161 46.619 24.5974 46.6243C24.4786 46.6296 24.36 46.6115 24.2483 46.5709L22.5458 45.9515C22.4341 45.9107 22.3316 45.8484 22.244 45.768C22.1564 45.6876 22.0856 45.5908 22.0355 45.483C21.9853 45.3752 21.9569 45.2586 21.9519 45.1399C21.9468 45.0211 21.9652 44.9025 22.006 44.7908L23.6881 40.1694C19.7017 38.0051 16.9951 33.7825 16.9951 28.9275C16.9951 21.8678 22.7182 16.1447 29.7779 16.1447C30.655 16.1447 31.5116 16.233 32.339 16.4013L33.9218 12.0524C33.9623 11.9407 34.0245 11.838 34.1047 11.7503C34.1849 11.6626 34.2816 11.5916 34.3893 11.5412C34.4969 11.4909 34.6135 11.4622 34.7322 11.457C34.8509 11.4517 34.9696 11.4698 35.0813 11.5104L36.7838 12.1298C36.8954 12.1706 36.998 12.2329 37.0855 12.3133C37.1731 12.3937 37.244 12.4905 37.2941 12.5983C37.3442 12.7061 37.3726 12.8227 37.3777 12.9414C37.3828 13.0602 37.3644 13.1788 37.3236 13.2904L35.7471 17.6212C39.7996 19.7651 42.5607 24.0239 42.5607 28.9275C42.5607 35.9872 36.8376 41.7103 29.7779 41.7103C28.8535 41.7103 27.9519 41.6121 27.0831 41.4257ZM28.2535 38.2101C28.7205 38.2812 29.1923 38.3168 29.6648 38.3166C34.7878 38.3166 38.9408 34.1637 38.9408 29.0406C38.9408 25.6798 37.1535 22.7366 34.4777 21.1094L28.2535 38.2101ZM24.8519 36.9719L31.0759 19.8712C30.6089 19.8001 30.1372 19.7645 29.6648 19.7646C24.5417 19.7646 20.3888 23.9176 20.3888 29.0406C20.3888 32.4015 22.1761 35.3447 24.8519 36.9719Z" fill="#FF8F1F"/>
</g>
</svg>
