<svg width="25" height="25" viewBox="0 0 25 25" fill="none" xmlns="http://www.w3.org/2000/svg">
<g id="ic:baseline-discord">
<path id="Vector" d="M19.5201 5.83005C18.1901 5.21005 16.7501 4.76005 15.2501 4.50005C15.237 4.49963 15.2239 4.50209 15.2118 4.50728C15.1997 4.51246 15.1889 4.52023 15.1801 4.53005C15.0001 4.86005 14.7901 5.29005 14.6501 5.62005C13.0591 5.38005 11.4411 5.38005 9.85012 5.62005C9.71012 5.28005 9.50012 4.86005 9.31012 4.53005C9.30012 4.51005 9.27012 4.50005 9.24012 4.50005C7.74012 4.76005 6.31012 5.21005 4.97012 5.83005C4.96012 5.83005 4.95012 5.84005 4.94012 5.85005C2.22012 9.92005 1.47012 13.88 1.84012 17.8C1.84012 17.82 1.85012 17.84 1.87012 17.85C3.67012 19.17 5.40012 19.97 7.11012 20.5C7.14012 20.51 7.17012 20.5 7.18012 20.48C7.58012 19.93 7.94012 19.35 8.25012 18.74C8.27012 18.7 8.25012 18.66 8.21012 18.65C7.64012 18.43 7.10012 18.17 6.57012 17.87C6.53012 17.85 6.53012 17.79 6.56012 17.76C6.67012 17.68 6.78012 17.59 6.89012 17.51C6.91012 17.49 6.94012 17.49 6.96012 17.5C10.4001 19.07 14.1101 19.07 17.5101 17.5C17.5301 17.49 17.5601 17.49 17.5801 17.51C17.6901 17.6 17.8001 17.68 17.9101 17.77C17.9501 17.8 17.9501 17.86 17.9001 17.88C17.3801 18.19 16.8301 18.44 16.2601 18.66C16.2201 18.67 16.2101 18.72 16.2201 18.75C16.5401 19.36 16.9001 19.94 17.2901 20.49C17.3201 20.5 17.3501 20.51 17.3801 20.5C19.1001 19.97 20.8301 19.17 22.6301 17.85C22.6501 17.84 22.6601 17.82 22.6601 17.8C23.1001 13.27 21.9301 9.34005 19.5601 5.85005C19.5501 5.84005 19.5401 5.83005 19.5201 5.83005ZM8.77012 15.41C7.74012 15.41 6.88012 14.46 6.88012 13.29C6.88012 12.12 7.72012 11.17 8.77012 11.17C9.83012 11.17 10.6701 12.13 10.6601 13.29C10.6601 14.46 9.82012 15.41 8.77012 15.41ZM15.7401 15.41C14.7101 15.41 13.8501 14.46 13.8501 13.29C13.8501 12.12 14.6901 11.17 15.7401 11.17C16.8001 11.17 17.6401 12.13 17.6301 13.29C17.6301 14.46 16.8001 15.41 15.7401 15.41Z" fill="white"/>
</g>
</svg>
