<svg width="25" height="25" viewBox="0 0 25 25" fill="none" xmlns="http://www.w3.org/2000/svg">
<g id="ic:baseline-telegram">
<path id="Vector" d="M12.25 2.5C6.73 2.5 2.25 6.98 2.25 12.5C2.25 18.02 6.73 22.5 12.25 22.5C17.77 22.5 22.25 18.02 22.25 12.5C22.25 6.98 17.77 2.5 12.25 2.5ZM16.89 9.3C16.74 10.88 16.09 14.72 15.76 16.49C15.62 17.24 15.34 17.49 15.08 17.52C14.5 17.57 14.06 17.14 13.5 16.77C12.62 16.19 12.12 15.83 11.27 15.27C10.28 14.62 10.92 14.26 11.49 13.68C11.64 13.53 14.2 11.2 14.25 10.99C14.2569 10.9582 14.256 10.9252 14.2473 10.8938C14.2386 10.8624 14.2224 10.8337 14.2 10.81C14.14 10.76 14.06 10.78 13.99 10.79C13.9 10.81 12.5 11.74 9.77 13.58C9.37 13.85 9.01 13.99 8.69 13.98C8.33 13.97 7.65 13.78 7.14 13.61C6.51 13.41 6.02 13.3 6.06 12.95C6.08 12.77 6.33 12.59 6.8 12.4C9.72 11.13 11.66 10.29 12.63 9.89C15.41 8.73 15.98 8.53 16.36 8.53C16.44 8.53 16.63 8.55 16.75 8.65C16.85 8.73 16.88 8.84 16.89 8.92C16.88 8.98 16.9 9.16 16.89 9.3Z" fill="white"/>
</g>
</svg>
