<svg width="46" height="46" viewBox="0 0 46 46" fill="none" xmlns="http://www.w3.org/2000/svg">
<g id="eos-icons:big-data-outlined" clipPath="url(#clip0_307_24502)">
<path id="Vector" d="M38.3332 11.7866C37.923 11.6908 37.5068 11.6223 37.0874 11.5815C36.5109 8.66093 35.0409 5.99175 32.8808 3.94327C30.7207 1.89478 27.9774 0.568268 25.0304 0.147266C22.0834 -0.273736 19.0784 0.231586 16.4311 1.59332C13.7839 2.95504 11.6253 5.10586 10.2541 7.74817C9.37008 7.85331 8.50158 8.06239 7.66658 8.37109C5.42596 9.15756 3.48493 10.6206 2.11173 12.5579C0.738538 14.4952 0.000976562 16.8112 0.000976562 19.1859C0.000976562 21.5605 0.738538 23.8765 2.11173 25.8139C3.48493 27.7512 5.42596 29.2142 7.66658 30.0007V25.7763C6.50161 25.1094 5.53349 24.1465 4.86019 22.9852C4.18689 21.8238 3.8323 20.5053 3.8323 19.1629C3.8323 17.8205 4.18689 16.5019 4.86019 15.3406C5.53349 14.1793 6.50161 13.2164 7.66658 12.5494C8.58258 12.0134 9.60151 11.6771 10.6566 11.5623L12.7074 11.3515L13.6657 9.53067C14.6671 7.59069 16.2475 6.01045 18.1875 5.00915C20.1275 4.00785 22.3311 3.63514 24.4925 3.94271C26.6539 4.25028 28.6661 5.22289 30.2498 6.72561C31.8335 8.22834 32.9103 10.1867 33.3307 12.329L33.9058 15.204L36.8382 15.4148C37.3493 15.4549 37.8523 15.5652 38.3332 15.7426C39.4518 16.1272 40.4223 16.8514 41.1094 17.8142C41.7965 18.777 42.1658 19.9303 42.1658 21.1131C42.1658 22.2959 41.7965 23.4492 41.1094 24.412C40.4223 25.3748 39.4518 26.099 38.3332 26.4836V30.4779C40.4947 30.0469 42.4398 28.8801 43.8376 27.1761C45.2354 25.472 45.9993 23.3362 45.9993 21.1323C45.9993 18.9283 45.2354 16.7925 43.8376 15.0885C42.4398 13.3844 40.4947 12.2176 38.3332 11.7866Z" fill="#D6C3F8"/>
<path id="Vector_2" d="M23 21.0884C15.6822 21.0884 11.5 22.5412 11.5 25.2418V41.8516C11.5 44.5522 17.4167 46.005 23 46.005C28.5833 46.005 34.5 44.5522 34.5 41.8516V25.2418C34.5 22.5412 30.3178 21.0884 23 21.0884ZM23 23.005C28.1961 23.005 32.4108 24.5575 32.4108 26.2787C32.4108 27.9999 28.1942 29.3933 23 29.3933C17.8058 29.3933 13.5892 27.9999 13.5892 26.2787C13.5892 24.5575 17.8058 23.005 23 23.005ZM13.5892 38.1927V36.002C16.5729 37.2197 19.7788 37.7982 23 37.7001C26.2212 37.7982 29.4271 37.2197 32.4108 36.002V38.2617C29.4058 39.3872 26.2064 39.902 23 39.7759C19.7896 39.8704 16.5919 39.3325 13.5892 38.1927Z" fill="#D6C3F8"/>
</g>
<defs>
<clipPath id="clip0_307_24502">
<rect width="46" height="46" fill="white" transform="translate(0 0.00488281)"/>
</clipPath>
</defs>
</svg>
