<svg width="46" height="45" viewBox="0 0 46 45" fill="none" xmlns="http://www.w3.org/2000/svg">
<g clipPath="url(#clip0_307_24485)">
<path fillRule="evenodd" clipRule="evenodd" d="M15.8125 22.5051C15.8125 22.1339 15.964 21.7779 16.2335 21.5154C16.5031 21.2529 16.8688 21.1055 17.25 21.1055H28.75C29.1312 21.1055 29.4969 21.2529 29.7665 21.5154C30.0361 21.7779 30.1875 22.1339 30.1875 22.5051C30.1875 22.8764 30.0361 23.2324 29.7665 23.4949C29.4969 23.7573 29.1312 23.9048 28.75 23.9048H17.25C16.8688 23.9048 16.5031 23.7573 16.2335 23.4949C15.964 23.2324 15.8125 22.8764 15.8125 22.5051Z" fill="#D6C3F8"/>
<path d="M8.625 0.110352H37.375C38.9 0.110352 40.3625 0.700211 41.4409 1.75017C42.5192 2.80013 43.125 4.22417 43.125 5.70904V39.3011C43.125 40.786 42.5192 42.2101 41.4409 43.26C40.3625 44.31 38.9 44.8998 37.375 44.8998H8.625C7.10001 44.8998 5.63747 44.31 4.55914 43.26C3.4808 42.2101 2.875 40.786 2.875 39.3011V36.5018H5.75V39.3011C5.75 40.0436 6.0529 40.7556 6.59207 41.2806C7.13124 41.8056 7.8625 42.1005 8.625 42.1005H37.375C38.1375 42.1005 38.8688 41.8056 39.4079 41.2806C39.9471 40.7556 40.25 40.0436 40.25 39.3011V5.70904C40.25 4.9666 39.9471 4.25458 39.4079 3.7296C38.8688 3.20462 38.1375 2.90969 37.375 2.90969H8.625C7.8625 2.90969 7.13124 3.20462 6.59207 3.7296C6.0529 4.25458 5.75 4.9666 5.75 5.70904V8.50838H2.875V5.70904C2.875 4.22417 3.4808 2.80013 4.55914 1.75017C5.63747 0.700211 7.10001 0.110352 8.625 0.110352Z" fill="#D6C3F8"/>
<path d="M2.875 14.107V12.7073C2.875 12.3361 3.02645 11.9801 3.29603 11.7176C3.56562 11.4551 3.93125 11.3076 4.3125 11.3076C4.69375 11.3076 5.05938 11.4551 5.32897 11.7176C5.59855 11.9801 5.75 12.3361 5.75 12.7073V14.107H7.1875C7.56875 14.107 7.93438 14.2544 8.20397 14.5169C8.47355 14.7794 8.625 15.1354 8.625 15.5066C8.625 15.8778 8.47355 16.2339 8.20397 16.4963C7.93438 16.7588 7.56875 16.9063 7.1875 16.9063H1.4375C1.05625 16.9063 0.690618 16.7588 0.421034 16.4963C0.15145 16.2339 0 15.8778 0 15.5066C0 15.1354 0.15145 14.7794 0.421034 14.5169C0.690618 14.2544 1.05625 14.107 1.4375 14.107H2.875ZM2.875 22.505V21.1053C2.875 20.7341 3.02645 20.3781 3.29603 20.1156C3.56562 19.8531 3.93125 19.7056 4.3125 19.7056C4.69375 19.7056 5.05938 19.8531 5.32897 20.1156C5.59855 20.3781 5.75 20.7341 5.75 21.1053V22.505H7.1875C7.56875 22.505 7.93438 22.6524 8.20397 22.9149C8.47355 23.1774 8.625 23.5334 8.625 23.9047C8.625 24.2759 8.47355 24.6319 8.20397 24.8944C7.93438 25.1569 7.56875 25.3043 7.1875 25.3043H1.4375C1.05625 25.3043 0.690618 25.1569 0.421034 24.8944C0.15145 24.6319 0 24.2759 0 23.9047C0 23.5334 0.15145 23.1774 0.421034 22.9149C0.690618 22.6524 1.05625 22.505 1.4375 22.505H2.875ZM2.875 30.903V29.5033C2.875 29.1321 3.02645 28.7761 3.29603 28.5136C3.56562 28.2511 3.93125 28.1037 4.3125 28.1037C4.69375 28.1037 5.05938 28.2511 5.32897 28.5136C5.59855 28.7761 5.75 29.1321 5.75 29.5033V30.903H7.1875C7.56875 30.903 7.93438 31.0505 8.20397 31.313C8.47355 31.5755 8.625 31.9315 8.625 32.3027C8.625 32.6739 8.47355 33.0299 8.20397 33.2924C7.93438 33.5549 7.56875 33.7024 7.1875 33.7024H1.4375C1.05625 33.7024 0.690618 33.5549 0.421034 33.2924C0.15145 33.0299 0 32.6739 0 32.3027C0 31.9315 0.15145 31.5755 0.421034 31.313C0.690618 31.0505 1.05625 30.903 1.4375 30.903H2.875Z" fill="#D6C3F8"/>
</g>
<defs>
<clipPath id="clip0_307_24485">
<rect width="46" height="44.7895" fill="white" transform="translate(0 0.110352)"/>
</clipPath>
</defs>
</svg>
