<svg width="46" height="46" viewBox="0 0 46 46" fill="none" xmlns="http://www.w3.org/2000/svg">
<path d="M5.47656 14.2429H40.5242M9.85751 5.48096H36.1432C37.3051 5.48096 38.4194 5.94252 39.241 6.76411C40.0626 7.5857 40.5242 8.70001 40.5242 9.86191V36.1476C40.5242 37.3095 40.0626 38.4238 39.241 39.2454C38.4194 40.067 37.3051 40.5286 36.1432 40.5286H9.85751C8.69561 40.5286 7.5813 40.067 6.75971 39.2454C5.93813 38.4238 5.47656 37.3095 5.47656 36.1476V9.86191C5.47656 8.70001 5.93813 7.5857 6.75971 6.76411C7.5813 5.94252 8.69561 5.48096 9.85751 5.48096Z" stroke="#D6C3F8" strokeLinecap="round" strokeLinejoin="round"/>
<path d="M23 25.1954C24.2098 25.1954 25.1905 24.2147 25.1905 23.0049C25.1905 21.7952 24.2098 20.8145 23 20.8145C21.7903 20.8145 20.8096 21.7952 20.8096 23.0049C20.8096 24.2147 21.7903 25.1954 23 25.1954Z" fill="#D6C3F8"/>
<path d="M14.2383 25.1954C15.4481 25.1954 16.4288 24.2147 16.4288 23.0049C16.4288 21.7952 15.4481 20.8145 14.2383 20.8145C13.0286 20.8145 12.0479 21.7952 12.0479 23.0049C12.0479 24.2147 13.0286 25.1954 14.2383 25.1954Z" fill="#D6C3F8"/>
<path d="M31.7618 25.1954C32.9715 25.1954 33.9522 24.2147 33.9522 23.0049C33.9522 21.7952 32.9715 20.8145 31.7618 20.8145C30.552 20.8145 29.5713 21.7952 29.5713 23.0049C29.5713 24.2147 30.552 25.1954 31.7618 25.1954Z" fill="#D6C3F8"/>
<path d="M23 33.9571C24.2098 33.9571 25.1905 32.9764 25.1905 31.7666C25.1905 30.5569 24.2098 29.5762 23 29.5762C21.7903 29.5762 20.8096 30.5569 20.8096 31.7666C20.8096 32.9764 21.7903 33.9571 23 33.9571Z" fill="#D6C3F8"/>
<path d="M14.2383 33.9571C15.4481 33.9571 16.4288 32.9764 16.4288 31.7666C16.4288 30.5569 15.4481 29.5762 14.2383 29.5762C13.0286 29.5762 12.0479 30.5569 12.0479 31.7666C12.0479 32.9764 13.0286 33.9571 14.2383 33.9571Z" fill="#D6C3F8"/>
<path d="M31.7618 33.9571C32.9715 33.9571 33.9522 32.9764 33.9522 31.7666C33.9522 30.5569 32.9715 29.5762 31.7618 29.5762C30.552 29.5762 29.5713 30.5569 29.5713 31.7666C29.5713 32.9764 30.552 33.9571 31.7618 33.9571Z" fill="#D6C3F8"/>
</svg>
