<svg width="46" height="46" viewBox="0 0 46 46" fill="none" xmlns="http://www.w3.org/2000/svg">
<path d="M7.66634 36.4216H15.333V21.0882H7.66634V36.4216ZM19.1663 36.4216H26.833V9.58822H19.1663V36.4216ZM30.6663 36.4216H38.333V24.9216H30.6663V36.4216ZM3.83301 36.4216V21.0882C3.83301 20.0341 4.20868 19.1313 4.96001 18.38C5.71134 17.6286 6.61346 17.2536 7.66634 17.2549H15.333V9.58822C15.333 8.53405 15.7087 7.6313 16.46 6.87997C17.2113 6.12864 18.1135 5.75361 19.1663 5.75489H26.833C27.8872 5.75489 28.7899 6.13055 29.5413 6.88189C30.2926 7.63322 30.6676 8.53533 30.6663 9.58822V21.0882H38.333C39.3872 21.0882 40.2899 21.4639 41.0413 22.2152C41.7926 22.9666 42.1676 23.8687 42.1663 24.9216V36.4216C42.1663 37.4757 41.7907 38.3785 41.0393 39.1298C40.288 39.8811 39.3859 40.2562 38.333 40.2549H7.66634C6.61218 40.2549 5.70943 39.8792 4.95809 39.1279C4.20676 38.3766 3.83173 37.4744 3.83301 36.4216Z" fill="#D6C3F8"/>
</svg>
