<svg width="229" height="34" viewBox="0 0 229 34" fill="none" xmlns="http://www.w3.org/2000/svg">
<path d="M14.0393 13.421L18.5029 12.6045L18.555 19.7616L9.62025 21.3961L9.57446 14.2362" fill="white"/>
<path d="M9.58502 15.8868C9.5815 15.3367 9.57798 14.7865 9.57446 14.2364C10.6942 14.0319 11.814 13.8275 12.9337 13.623C13.002 13.7226 14.555 16.0754 13.3507 18.613C12.255 20.9217 9.83685 21.3608 9.62025 21.3963C9.60851 19.5598 9.59676 17.7233 9.58502 15.8868Z" fill="white"/>
<path d="M18.5446 18.111C18.5771 18.6995 18.6183 19.2769 18.6671 19.8431C17.4891 20.0246 16.311 20.206 15.133 20.3874C14.9166 19.8208 14.4648 18.4 14.903 16.7085C15.6264 13.9158 18.1619 12.7538 18.5093 12.6016C18.436 14.3331 18.4375 16.174 18.5446 18.111Z" fill="white"/>
<path d="M27.0543 12.0871C26.0279 11.1971 24.7229 11.4589 24.5131 11.5047C22.5098 11.8711 20.5064 12.2376 18.503 12.6041C16.9322 13.5106 16.0873 15.2404 16.3759 16.8971C16.7175 18.8576 18.4785 19.7511 18.6671 19.8429C18.6242 19.2665 18.5812 18.69 18.5382 18.1135C19.6767 19.0741 20.8152 20.0347 21.9537 20.9953C20.7974 22.4099 19.641 23.8244 18.4846 25.2389L18.4731 23.4366C13.529 24.341 8.58483 25.2454 3.6407 26.1498C3.41093 26.1957 2.07505 26.4851 1.07366 27.8075C0.19464 28.9682 0.16277 30.1466 0.162659 30.4314C0.170267 31.6209 0.177874 32.8104 0.185482 33.9999C12.9505 31.8366 22.3281 29.8724 24.663 29.5222C25.1853 29.4439 26.2208 29.119 27.0333 28.1907C27.9361 27.1592 28.0755 25.8752 28.0994 25.2654C28.0764 21.6621 28.0533 18.0587 28.0303 14.4553C28.0352 14.2302 28.0429 12.9443 27.0543 12.0871Z" fill="white"/>
<path d="M1.06911 21.9128C2.09553 22.8028 3.40051 22.541 3.61029 22.4952C5.61366 22.1287 7.61703 21.7623 9.6204 21.3958C11.0252 20.6737 11.8862 19.2068 11.8187 17.6526C11.7557 16.2012 10.8923 14.8897 9.57461 14.2359C9.57813 14.7861 9.58165 15.3362 9.58516 15.8864C8.44667 14.9257 7.30818 13.9651 6.16969 13.0045C7.32606 11.59 8.48242 10.1755 9.63878 8.76093L9.65031 10.5633C14.5944 9.6589 19.5386 8.75447 24.4827 7.85005C24.7125 7.80421 26.0484 7.51475 27.0498 6.1924C27.9288 5.03163 27.9606 3.85333 27.9608 3.56852C27.9531 2.37901 27.9455 1.1895 27.9379 0C15.173 2.16329 5.7953 4.12744 3.46039 4.47764C2.93808 4.55598 1.90262 4.88088 1.09011 5.80922C0.187361 6.84066 0.047939 8.12463 0.0239868 8.73444C0.0470301 12.3378 0.0700825 15.9412 0.0931258 19.5445C0.0881693 19.7696 0.0805494 21.0556 1.06911 21.9128Z" fill="white"/>
<path d="M6.1695 13.0049L0.0298739 19.1445C-0.123421 20.2633 0.320565 21.3663 1.19342 22.0088C2.23867 22.7782 3.423 22.5369 3.6101 22.4956C5.61347 22.1291 7.61684 21.7626 9.62021 21.3961C11.025 20.6741 11.886 19.2071 11.8186 17.6529C11.7555 16.2015 10.8921 14.89 9.57442 14.2363C9.57794 14.7864 9.58146 15.3366 9.58497 15.8867C8.44648 14.9261 7.30799 13.9655 6.1695 13.0049Z" fill="white"/>
<path d="M18.4846 25.2389L13.5235 31.6126L0.185482 33.9999L0.162659 30.4313C0.165927 30.0927 0.217422 28.5427 1.44542 27.3208C2.27659 26.4937 3.22548 26.2361 3.6407 26.1498C8.58483 25.2454 13.529 24.3409 18.4731 23.4365C18.4769 24.0373 18.4808 24.6381 18.4846 25.2389Z" fill="white"/>
<path d="M45.2458 19.576C45.2458 20.3598 45.81 20.7517 46.9382 20.7517C48.0686 20.7517 48.6337 20.4001 48.6337 19.6967C48.6337 19.3213 48.4409 19.015 48.0552 18.7778C47.6674 18.5385 47.1992 18.3395 46.6505 18.1806C46.0998 18.0239 45.549 17.8403 44.9983 17.6299C44.4496 17.4195 43.9814 17.0905 43.5936 16.6429C43.2079 16.1953 43.0151 15.6364 43.0151 14.966C43.0151 12.1195 44.8477 10.6963 48.5131 10.6963C49.8517 10.6963 50.8645 10.9479 51.5514 11.4512C52.2382 11.9566 52.5817 12.6568 52.5817 13.552C52.5817 13.8821 52.5384 14.1977 52.4517 14.4988C52.3672 14.7999 52.2795 15.0124 52.1887 15.1362L52.0526 15.3404H49.0422C49.2897 15.0805 49.4134 14.7515 49.4134 14.3534C49.4134 13.617 48.9318 13.2488 47.9685 13.2488C46.7536 13.2488 46.1462 13.6335 46.1462 14.4029C46.1462 14.7886 46.3401 15.0959 46.7278 15.3249C47.1136 15.5497 47.5808 15.7281 48.1294 15.8602C48.6802 15.9901 49.2329 16.151 49.7878 16.3428C50.3447 16.5367 50.816 16.8574 51.2018 17.305C51.5875 17.7526 51.7803 18.3343 51.7803 19.0501C51.7803 20.4898 51.3492 21.5593 50.487 22.2585C49.6249 22.9557 48.2975 23.3043 46.5051 23.3043C44.7126 23.3043 43.4874 22.9866 42.8294 22.3513C42.3426 21.8749 42.0992 21.2169 42.0992 20.3774C42.0992 20.0597 42.1333 19.7142 42.2013 19.3409L42.2508 19.0655H45.3139L45.2799 19.2697C45.2572 19.3852 45.2458 19.4873 45.2458 19.576ZM59.5741 15.1207H59.967L62.8413 10.8139H65.9044L60.6632 18.3539L59.8309 23.066H56.7493L57.5816 18.3539L54.995 10.8139H58.2468L59.5741 15.1207ZM75.044 10.8139H78.104L75.9629 23.066H72.8813L70.7372 16.3614L69.58 23.066H66.5015L68.6611 10.8139H71.8263L73.9364 17.0761L75.044 10.8139ZM82.021 10.8139H86.7857C88.2708 10.8139 89.331 11.1882 89.9663 11.937C90.4304 12.5042 90.6625 13.2138 90.6625 14.0656C90.6625 14.3709 90.6346 14.6937 90.5789 15.0341L89.9168 18.8273C89.6879 20.1103 89.1309 21.1375 88.2461 21.9089C87.3632 22.6803 86.2185 23.066 84.8117 23.066H79.8583L82.021 10.8139ZM85.7121 13.4685H84.6044L83.3978 20.4114H85.0159C85.5481 20.4114 85.9648 20.267 86.2659 19.9783C86.5671 19.6895 86.7733 19.2161 86.8847 18.5581L87.3797 15.7673C87.4251 15.5178 87.4478 15.2898 87.4478 15.0836C87.4478 14.0069 86.8692 13.4685 85.7121 13.4685ZM94.9012 10.8139H97.9643L95.8201 23.066H92.7416L94.9012 10.8139ZM104.022 23.3043C102.401 23.3043 101.278 22.9526 100.653 22.2492C100.222 21.7501 100.006 21.0529 100.006 20.1577C100.006 19.7699 100.047 19.3553 100.127 18.9139L100.823 15C101.335 12.1309 103.179 10.6963 106.355 10.6963C107.671 10.6963 108.669 10.9768 109.35 11.5379C110.031 12.0989 110.371 12.8672 110.371 13.8429C110.371 14.2967 110.305 14.7473 110.173 15.1949C110.043 15.6425 109.916 15.9746 109.793 16.1912L109.604 16.5315H106.593C106.967 16.1005 107.153 15.4878 107.153 14.6937C107.153 14.275 107.046 13.9429 106.832 13.6975C106.615 13.4541 106.297 13.3324 105.879 13.3324C104.732 13.3324 104.051 13.9677 103.837 15.2383L103.24 18.6757C103.184 18.9706 103.156 19.2604 103.156 19.5451C103.156 20.2938 103.604 20.6682 104.499 20.6682C105.578 20.6682 106.224 20.0608 106.439 18.8459H109.502L109.418 19.3409C108.964 21.9832 107.166 23.3043 104.022 23.3043ZM121.38 23.066H118.146L118.248 20.3959H115.408L114.573 23.066H111.324L115.696 10.8139H121.312L121.38 23.066ZM118.521 13.7903H117.45L116.104 18.1157H118.335L118.521 13.7903ZM136.116 10.8139L135.64 13.4685H131.454L129.77 23.066H126.689L128.375 13.4685H124.17L124.647 10.8139H136.116ZM145.865 20.4114L145.392 23.066H136.85L139.009 10.8139H147.552L147.075 13.4685H141.596L141.203 15.7673H145.729L145.253 18.4189H140.726L140.389 20.4114H145.865ZM163.275 15.9189L162.814 18.5736H158.288L157.505 23.066H154.426L156.586 10.8139H165.129L164.652 13.4685H159.173L158.749 15.9189H163.275ZM174.618 22.1719C173.714 22.9268 172.441 23.3043 170.797 23.3043C169.151 23.3043 168.01 22.9237 167.375 22.1626C166.921 21.6408 166.694 20.9209 166.694 20.003C166.694 19.5946 166.739 19.147 166.83 18.6602L168.21 10.8139H171.273L169.893 18.5921C169.848 18.8747 169.825 19.1687 169.825 19.4739C169.825 20.2701 170.302 20.6682 171.255 20.6682C171.822 20.6682 172.276 20.5197 172.616 20.2227C172.956 19.9277 173.195 19.3842 173.331 18.5921L174.711 10.8139H177.774L176.394 18.6602C176.111 20.2485 175.519 21.419 174.618 22.1719ZM187.965 10.8139H191.028L188.884 23.066H185.806L183.662 16.3614L182.504 23.066H179.423L181.585 10.8139H184.751L186.861 17.0761L187.965 10.8139ZM194.942 10.8139H199.707C201.194 10.8139 202.255 11.1882 202.891 11.937C203.355 12.5042 203.587 13.2138 203.587 14.0656C203.587 14.3709 203.559 14.6937 203.503 15.0341L202.838 18.8273C202.611 20.1103 202.055 21.1375 201.17 21.9089C200.286 22.6803 199.14 23.066 197.733 23.066H192.783L194.942 10.8139ZM198.636 13.4685H197.529L196.322 20.4114H197.937C198.471 20.4114 198.889 20.267 199.19 19.9783C199.489 19.6895 199.696 19.2161 199.809 18.5581L200.304 15.7673C200.349 15.5178 200.372 15.2898 200.372 15.0836C200.372 14.0069 199.794 13.4685 198.636 13.4685ZM214.682 20.4114L214.205 23.066H205.663L207.826 10.8139H216.368L215.892 13.4685H210.412L210.019 15.7673H214.546L214.069 18.4189H209.543L209.202 20.4114H214.682ZM219.821 10.8139H224.586C226.073 10.8139 227.134 11.1882 227.769 11.937C228.236 12.5042 228.469 13.2138 228.469 14.0656C228.469 14.3709 228.44 14.6937 228.382 15.0341L227.717 18.8273C227.492 20.1103 226.936 21.1375 226.049 21.9089C225.164 22.6803 224.018 23.066 222.612 23.066H217.661L219.821 10.8139ZM223.515 13.4685H222.408L221.201 20.4114H222.819C223.351 20.4114 223.768 20.267 224.069 19.9783C224.37 19.6895 224.576 19.2161 224.688 18.5581L225.183 15.7673C225.228 15.5178 225.251 15.2898 225.251 15.0836C225.251 14.0069 224.672 13.4685 223.515 13.4685Z" fill="white"/>
</svg>
